fira-sans_eight-italic.sfdir

StartChar: exclam
Encoding: 33 33 987
Width: 235
Flags: MW
HStem: -5.28999 23.64 660.43 20G
VStem: 72.15 23.86
LayerCount: 2
Fore
SplineSet
112.86 192.28 m 1
 105.07 192.28 l 1
 172.641 680.431 l 1
 180.431 680.431 l 1
 112.86 192.28 l 1
84.5 18.3506 m 0
 91.5 18.3506 96.0107 13.4219 96.0107 6.85156 c 0
 96.0107 -0.148438 90.8604 -5.28809 83.6504 -5.28809 c 0
 76.8604 -5.28809 72.1504 -0.358398 72.1504 5.99121 c 0
 72.1504 13.2109 77.5 18.3506 84.5 18.3506 c 0
EndSplineSet
EndChar
StartChar: quotedbl
Encoding: 34 34 2132
Width: 319
Flags: MW
HStem: 660 20G<147 155 155 155 282 291 291 291>
VStem: 115 176
LayerCount: 2
Back
Fore
SplineSet
115 445 m 1
 147 680 l 1
 155 680 l 1
 122 445 l 1
 115 445 l 1
251 445 m 1
 282 680 l 1
 291 680 l 1
 257 445 l 1
 251 445 l 1
EndSplineSet
EndChar

StartChar: numbersign
Encoding: 35 35 989
Width: 482
Flags: MW
HStem: 0 21G<41.2197 49.8594 41.2197 41.2197 275.01 283.859 275.01 275.01> 209.71 7.57001 463.86 7.57001
VStem: 7.57001 488.43
LayerCount: 2
Fore
SplineSet
409.58 463.86 m 1
 342.759 217.28 l 1
 424.579 217.28 l 1
 422.149 209.71 l 1
 340.699 209.71 l 1
 283.859 0 l 1
 275.01 -0 l 1
 331.85 209.71 l 1
 106.699 209.71 l 1
 49.8594 0 l 1
 41.2197 -0 l 1
 98.0596 209.71 l 1
 7.56934 209.71 l 1
 9.99902 217.28 l 1
 100.109 217.28 l 1
 166.939 463.86 l 1
 80.7793 463.86 l 1
 81.4297 471.431 l 1
 168.989 471.431 l 1
 220.64 662.001 l 1
 229.29 662.001 l 1
 177.63 471.431 l 1
 402.78 471.431 l 1
 454.431 662.001 l 1
 463.28 662.001 l 1
 411.63 471.431 l 1
 496 471.431 l 1
 495.35 463.86 l 1
 409.58 463.86 l 1
400.729 463.86 m 1
 175.589 463.86 l 1
 108.759 217.28 l 1
 333.898 217.28 l 1
 400.729 463.86 l 1
EndSplineSet
Substitution2: "'onum' Oldstyle Figures lookup 22 subtable" numbersign.osf
Substitution2: "'tnum' Tabular Numbers lookup 21 subtable" numbersign.tf
AlternateSubs2: "'aalt' Access All Alternates lookup 1 subtable" numbersign.tf numbersign.osf
EndChar
StartChar: dollar
Encoding: 36 36 2206
Width: 527
GlyphClass: 2
Flags: MW
HStem: -9 7<178.5 215 222 222> 662 7<247 313>
VStem: 119 8<470.5 543.5> 432 8<145 230.5>
LayerCount: 2
Back
Fore
SplineSet
313 662 m 0
 181 662 127 584 127 504 c 0
 127 437 169 398 279 361 c 0
 386 325 440 274 440 191 c 0
 440 96 384 -7 222 -9 c 1
 203 -145 l 1
 196 -145 l 1
 215 -9 l 1
 139 -9 78 22 35 68 c 1
 40 73 l 1
 82 28 141 -2 216 -2 c 0
 379 -2 432 99 432 191 c 0
 432 270 380 318 277 354 c 0
 163 392 119 433 119 504 c 0
 119 583 171 669 313 669 c 1
 332 807 l 1
 340 807 l 1
 321 669 l 1
 392 668 434 642 475 606 c 1
 469 600 l 1
 427 639 383 662 313 662 c 0
EndSplineSet
Substitution2: "'onum' Oldstyle Figures lookup 26 subtable" dollar.osf
Substitution2: "'tnum' Tabular Numbers lookup 25 subtable" dollar.tf
AlternateSubs2: "'aalt' Access All Alternates lookup 1 subtable" dollar.tf dollar.osf
EndChar
StartChar: percent
Encoding: 37 37 2271
Width: 750
GlyphClass: 2
Flags: MW
HStem: -9 7<484.5 572.5 484.5 574.5> 290 7<504 591.5> 365 7<177 265 177 267> 664 7<197 284.5> 668 20G<669 669> 672 20G<663 663>
VStem: 102 8<450.5 518.5 450.5 521.5> 352 8<519 588> 409 8<77 144.5 77 148> 660 8<145 214>
LayerCount: 2
Back
Fore
SplineSet
663 692 m 1xe7c0
 669 688 l 1xebc0
 115 -11 l 1
 108 -8 l 1
 663 692 l 1xe7c0
252 671 m 0xf3c0
 321 671 360 627 360 552 c 0
 360 480 324 365 210 365 c 0
 141 365 102 411 102 485 c 0
 102 558 138 671 252 671 c 0xf3c0
252 664 m 0
 142 664 110 552 110 485 c 0
 110 416 144 372 210 372 c 0
 320 372 352 485 352 553 c 0
 352 623 317 664 252 664 c 0
559 297 m 0
 628 297 668 254 668 179 c 0
 668 106 631 -9 518 -9 c 0
 448 -9 409 37 409 112 c 0
 409 184 446 297 559 297 c 0
559 290 m 0
 449 290 417 178 417 111 c 0
 417 43 451 -2 518 -2 c 0
 627 -2 660 111 660 179 c 0
 660 249 624 290 559 290 c 0
EndSplineSet
Substitution2: "'onum' Oldstyle Figures lookup 26 subtable" percent.osf
Substitution2: "'tnum' Tabular Numbers lookup 25 subtable" percent.tf
AlternateSubs2: "'aalt' Access All Alternates lookup 1 subtable" percent.tf percent.osf
EndChar
StartChar: ampersand
Encoding: 38 38 2379
Width: 733
GlyphClass: 2
Flags: MW
HStem: -9 7<225.5 325 225.5 326.5> -3 21G<614 614> 684 7<302 390.5>
VStem: 107 8<105.5 181.5 105.5 185> 197 8<505.5 565.5 505.5 570> 481 8<533 605>
LayerCount: 2
Back
Fore
SplineSet
355 691 m 0xbc
 432 691 489 641 489 572 c 0
 489 487 444 440 292 361 c 1
 510 123 l 1
 560 192 584 260 609 335 c 1
 617 332 l 1
 591 255 565 186 515 118 c 1
 621 2 l 1
 614 -3 l 1x7c
 510 112 l 1
 449 35 378 -9 275 -9 c 0
 173 -9 107 61 107 146 c 0
 107 224 140 294 280 363 c 1
 222 424 197 476 197 531 c 0
 197 609 249 691 355 691 c 0xbc
355 684 m 0
 248 684 205 600 205 531 c 0
 205 480 227 431 287 366 c 1
 443 446 481 494 481 572 c 0
 481 638 426 684 355 684 c 0
285 358 m 1
 144 288 115 217 115 146 c 0
 115 65 176 -2 275 -2 c 0
 375 -2 444 41 505 117 c 1
 285 358 l 1
EndSplineSet
Substitution2: "'ss03' Style Set 3 lookup 36 subtable" ampersand.ss03
Substitution2: "'aalt' Access All Alternates lookup 0 subtable" ampersand.ss03
EndChar
StartChar: quotesingle
Encoding: 39 39 2133
Width: 184
Flags: MW
HStem: 660 20G<147 155 155 155>
VStem: 115 40
LayerCount: 2
Back
Fore
SplineSet
115 445 m 1
 147 680 l 1
 155 680 l 1
 122 445 l 1
 115 445 l 1
EndSplineSet
EndChar
StartChar: parenleft
Encoding: 40 40 2150
Width: 328
Flags: MW
HStem: -126 953<192 325>
VStem: 81.26 7.99001
LayerCount: 2
Back
Fore
SplineSet
325 827 m 1
 330 823 l 1
 223 692 129 575 98 350 c 0
 66 124 127 8 198 -123 c 1
 192 -126 l 1
 119 7 58 123 90 350 c 0
 121 578 215 694 325 827 c 1
EndSplineSet
Substitution2: "'case' Case-Sensitive Forms lookup 29 subtable" parenleft.case
Substitution2: "'dnom' Denominators lookup 17 subtable" parenleft.dnom
Substitution2: "'numr' Numerators lookup 16 subtable" parenleft.numr
Substitution2: "'sups' Superscript lookup 15 subtable" uni207D
Substitution2: "'subs' Subscript lookup 14 subtable" uni208D
AlternateSubs2: "'aalt' Access All Alternates lookup 1 subtable" uni208D uni207D parenleft.numr parenleft.dnom parenleft.case
EndChar
StartChar: parenright
Encoding: 41 41 2151
Width: 326
Flags: MW
HStem: -127 953<28 161>
VStem: 263.36 7.35001
LayerCount: 2
Back
Fore
SplineSet
161 826 m 1
 233 693 294 577 262 350 c 0
 230 122 137 6 28 -127 c 1
 22 -123 l 1
 129 8 223 125 255 350 c 0
 286 576 226 692 155 823 c 1
 161 826 l 1
EndSplineSet
Substitution2: "'case' Case-Sensitive Forms lookup 29 subtable" parenright.case
Substitution2: "'dnom' Denominators lookup 17 subtable" parenright.dnom
Substitution2: "'numr' Numerators lookup 16 subtable" parenright.numr
Substitution2: "'sups' Superscript lookup 15 subtable" uni207E
Substitution2: "'subs' Subscript lookup 14 subtable" uni208E
AlternateSubs2: "'aalt' Access All Alternates lookup 1 subtable" uni208E uni207E parenright.numr parenright.dnom parenright.case
EndChar

StartChar: asterisk
Encoding: 42 42 980
Width: 429
Flags: MW
HStem: 542.3 20G 542.54 20G 548.25 20G<254.37 254.37> 548.6 20G 708.49 20G
VStem: 105.57 315.5
LayerCount: 2
Fore
SplineSet
263.08 562.54 m 1x4c
 338.512 433.85 l 1
 331.361 429.21 l 1
 257.001 558.53 l 1
 145.641 429.21 l 1
 138.931 433.85 l 1
 251.511 562.3 l 1
 105.57 610.78 l 1
 108.71 617.92 l 1x8c
 254.37 568.25 l 1x2c
 276.07 728.49 l 1
 284.07 728.49 l 1
 261.38 568.601 l 1
 419.78 618.351 l 1
 421.07 610.78 l 1x1c
 263.08 562.54 l 1x4c
257.432 564.5 m 1
 257.441 564.5 l 1
 257.432 564.5 l 1
EndSplineSet
EndChar

StartChar: plus
Encoding: 43 43 1115
Width: 480
Flags: MW
HStem: 327 7.78
VStem: 92.42 316.08
LayerCount: 2
Fore
SplineSet
255.5 334.78 m 1
 408.5 334.78 l 1
 406.85 327 l 1
 253.85 327 l 1
 231.85 171.43 l 1
 223.64 171.43 l 1
 245.64 327 l 1
 92.4199 327 l 1
 94.0703 334.78 l 1
 247.28 334.78 l 1
 268.5 490.351 l 1
 276.71 490.351 l 1
 255.5 334.78 l 1
EndSplineSet
Substitution2: "'onum' Oldstyle Figures lookup 22 subtable" plus.osf
Substitution2: "'tnum' Tabular Numbers lookup 21 subtable" plus.tf
Substitution2: "'dnom' Denominators lookup 14 subtable" plus.dnom
Substitution2: "'numr' Numerators lookup 13 subtable" plus.numr
Substitution2: "'sups' Superscript lookup 12 subtable" plussuperior
Substitution2: "'subs' Subscript lookup 11 subtable" uni208A
AlternateSubs2: "'aalt' Access All Alternates lookup 1 subtable" uni208A plussuperior plus.numr plus.dnom plus.tf plus.osf
EndChar
StartChar: comma
Encoding: 44 44 2123
Width: 133
Flags: MW
HStem: -5 21G<26 26>
VStem: 18 24<4.5 9.5>
LayerCount: 2
Back
Fore
SplineSet
30 18 m 0
 37 18 42 13 42 7 c 0
 42 2 40 -2 36 -10 c 2
 -17 -115 l 1
 -25 -115 l 1
 26 -5 l 1
 20 -3 18 1 18 6 c 0
 18 13 23 18 30 18 c 0
EndSplineSet
EndChar

StartChar: hyphen
Encoding: 45 45 1027
Width: 400
Flags: MW
HStem: 308.43 7.57001
VStem: 90.21 234.93
LayerCount: 2
Fore
SplineSet
91.0703 316 m 1
 325.141 316 l 1
 324.28 308.43 l 1
 90.21 308.43 l 1
 91.0703 316 l 1
EndSplineSet
Substitution2: "'case' Case-Sensitive Forms lookup 25 subtable" hyphen.case
Substitution2: "'aalt' Access All Alternates lookup 0 subtable" hyphen.case
EndChar

StartChar: period
Encoding: 46 46 990
Width: 133
Flags: MW
HStem: -5.28999 23.64
VStem: 17.71 23.86
LayerCount: 2
Fore
SplineSet
30.0703 18.3496 m 0
 37.0703 18.3496 41.5693 13.4209 41.5693 6.85059 c 0
 41.5693 -0.149414 36.4297 -5.28906 29.21 -5.28906 c 0
 22.4297 -5.28906 17.71 -0.359375 17.71 5.99023 c 0
 17.71 13.21 23.0703 18.3496 30.0703 18.3496 c 0
EndSplineSet
EndChar
StartChar: slash
Encoding: 47 47 2135
Width: 520
Flags: MW
HStem: -93 888<98 447>
VStem: 91 364
LayerCount: 2
Back
Fore
SplineSet
447 795 m 1
 455 793 l 1
 98 -93 l 1
 91 -91 l 1
 447 795 l 1
EndSplineSet
Substitution2: "'frac' Diagonal Fractions lookup 18 subtable" fraction
Substitution2: "'aalt' Access All Alternates lookup 0 subtable" fraction
EndChar
StartChar: zero
Encoding: 48 48 2017
Width: 538
Flags: MW
HStem: -9 7<184 232 184 330.5> 663 8<264.5 374>
VStem: 80 8<138 225.5 138 292> 470 8<436.5 523>
LayerCount: 2
Back
Fore
SplineSet
326 671 m 0
 428 671 478 597 478 451 c 0
 478 286 429 -9 232 -9 c 0
 131 -9 80 64 80 208 c 0
 80 376 128 671 326 671 c 0
326 663 m 0
 203 663 125 542 97 336 c 0
 90 285 88 244 88 207 c 0
 88 69 136 -2 232 -2 c 0
 357 -1 433 122 461 325 c 0
 469 378 470 421 470 452 c 0
 470 594 422 663 326 663 c 0
EndSplineSet
Substitution2: "'zero' Slashed Zero lookup 32 subtable" zero.zero
Substitution2: "'onum' Oldstyle Figures lookup 26 subtable" zero.osf
Substitution2: "'tnum' Tabular Numbers lookup 25 subtable" zero.tf
Substitution2: "'frac' Diagonal Fractions lookup 19 subtable" zero.numr
Substitution2: "'dnom' Denominators lookup 17 subtable" zero.dnom
Substitution2: "'numr' Numerators lookup 16 subtable" zero.numr
Substitution2: "'sups' Superscript lookup 15 subtable" uni2070
Substitution2: "'subs' Subscript lookup 14 subtable" uni2080
AlternateSubs2: "'aalt' Access All Alternates lookup 1 subtable" uni2080 uni2070 zero.numr zero.dnom zero.tf zero.osf zero.zero
EndChar
StartChar: one
Encoding: 49 49 2018
Width: 387
Flags: MW
HStem: 0 21G<205 213 205 205> 651 9<296 306>
VStem: 98 208<543 660>
LayerCount: 2
Back
Fore
SplineSet
306 660 m 1
 213 0 l 1
 205 0 l 1
 296 651 l 1
 101 536 l 1
 98 543 l 1
 299 660 l 1
 306 660 l 1
EndSplineSet
Substitution2: "'onum' Oldstyle Figures lookup 26 subtable" one.osf
Substitution2: "'tnum' Tabular Numbers lookup 25 subtable" one.tf
Substitution2: "'frac' Diagonal Fractions lookup 19 subtable" one.numr
Substitution2: "'dnom' Denominators lookup 17 subtable" one.dnom
Substitution2: "'numr' Numerators lookup 16 subtable" one.numr
Substitution2: "'sups' Superscript lookup 15 subtable" uni00B9
Substitution2: "'subs' Subscript lookup 14 subtable" uni2081
AlternateSubs2: "'aalt' Access All Alternates lookup 1 subtable" uni2081 uni00B9 one.numr one.dnom one.tf one.osf
EndChar
StartChar: two
Encoding: 50 50 2019
Width: 463
Flags: MW
HStem: 0 8<15 15 26 360 14 15> 663 8<240.5 320>
VStem: 14.5 11.5 417 8<469.5 566.5>
LayerCount: 2
Back
Fore
SplineSet
277 671 m 0
 369 671 425 610 425 528 c 0
 425 407 366 342 26 8 c 1
 362 8 l 1
 360 0 l 1
 14 0 l 1
 15 8 l 1
 363 349 417 412 417 527 c 0
 417 606 363 663 277 663 c 0
 204 663 153 633 101 583 c 1
 94 588 l 1
 150 641 203 671 277 671 c 0
EndSplineSet
Substitution2: "'onum' Oldstyle Figures lookup 26 subtable" two.osf
Substitution2: "'tnum' Tabular Numbers lookup 25 subtable" two.tf
Substitution2: "'frac' Diagonal Fractions lookup 19 subtable" two.numr
Substitution2: "'dnom' Denominators lookup 17 subtable" two.dnom
Substitution2: "'numr' Numerators lookup 16 subtable" two.numr
Substitution2: "'sups' Superscript lookup 15 subtable" uni00B2
Substitution2: "'subs' Subscript lookup 14 subtable" uni2082
AlternateSubs2: "'aalt' Access All Alternates lookup 1 subtable" uni2082 uni00B2 two.numr two.dnom two.tf two.osf
EndChar

StartChar: three
Encoding: 51 51 882
Width: 471
Flags: MW
HStem: -9.21001 7.57001 349 7.36 663.71 7.14
VStem: 379.35 8.22 407.57 8.21001
LayerCount: 2
Fore
SplineSet
273 670.85 m 0
 364.5 670.85 415.781 616.999 415.781 538.139 c 0xf8
 415.781 457.068 363.281 362.068 248.932 352.998 c 1
 330.781 348.068 387.571 300.639 387.571 203.639 c 0
 387.571 120.139 329.921 -9.21094 174.141 -9.21094 c 0
 96.1406 -9.21094 48.0703 15.8594 6.07031 72.4297 c 1
 12.5703 76.8594 l 1
 54.3506 20.0693 100.351 -1.64062 173.921 -1.64062 c 0
 327.351 -1.64062 379.351 126.569 379.351 204.069 c 0xf0
 379.351 301.569 319.641 348.999 224.78 348.999 c 2
 189.5 348.999 l 1
 191.21 356.359 l 1
 226.93 356.359 l 2
 351.569 356.359 407.569 456.999 407.569 538.359 c 0
 407.569 613.64 358.22 663.71 272.79 663.71 c 0
 215.14 663.71 160.069 643.5 104.64 594.14 c 1
 99.4297 599.43 l 1
 154.43 648.779 211 670.85 273 670.85 c 0
EndSplineSet
Substitution2: "'onum' Oldstyle Figures lookup 22 subtable" three.osf
Substitution2: "'tnum' Tabular Numbers lookup 21 subtable" three.tf
Substitution2: "'frac' Diagonal Fractions lookup 16 subtable" three.numr
Substitution2: "'dnom' Denominators lookup 14 subtable" three.dnom
Substitution2: "'numr' Numerators lookup 13 subtable" three.numr
Substitution2: "'sups' Superscript lookup 12 subtable" threesuperior
Substitution2: "'subs' Subscript lookup 11 subtable" threeinferior
AlternateSubs2: "'aalt' Access All Alternates lookup 1 subtable" threeinferior threesuperior three.numr three.dnom three.tf three.osf
EndChar
StartChar: four
Encoding: 52 52 2021
Width: 496
Flags: MW
HStem: 0 21G<317 325 317 317> 193 8<46 46 55 345 45 46 354 447>
VStem: 45.5 9.5
LayerCount: 2
Back
Fore
SplineSet
448 201 m 1
 447 193 l 1
 353 193 l 1
 325 0 l 1
 317 0 l 1
 345 193 l 1
 45 193 l 1
 46 201 l 1
 319 671 l 1
 326 668 l 1
 55 201 l 1
 346 201 l 1
 377 418 l 1
 384 418 l 1
 354 201 l 1
 448 201 l 1
EndSplineSet
Substitution2: "'onum' Oldstyle Figures lookup 26 subtable" four.osf
Substitution2: "'tnum' Tabular Numbers lookup 25 subtable" four.tf
Substitution2: "'frac' Diagonal Fractions lookup 19 subtable" four.numr
Substitution2: "'dnom' Denominators lookup 17 subtable" four.dnom
Substitution2: "'numr' Numerators lookup 16 subtable" four.numr
Substitution2: "'sups' Superscript lookup 15 subtable" uni2074
Substitution2: "'subs' Subscript lookup 14 subtable" uni2084
AlternateSubs2: "'aalt' Access All Alternates lookup 1 subtable" uni2084 uni2074 four.numr four.dnom four.tf four.osf
EndChar
StartChar: five
Encoding: 53 53 2022
Width: 471
Flags: MW
HStem: -9 7<143 260 143 261> 358 8<105 113> 403 8<220.5 294.5> 653 7<153 437 153 153>
VStem: 392 8<206.5 301>
LayerCount: 2
Back
Fore
SplineSet
439 660 m 1
 437 653 l 1
 153 653 l 1
 113 366 l 1
 150 392 192 411 249 411 c 0
 346 411 400 352 400 254 c 0
 400 151 346 -9 176 -9 c 0
 107 -9 55 18 20 64 c 1
 27 69 l 1
 59 25 110 -2 176 -2 c 0
 344 -2 392 159 392 254 c 0
 392 348 340 403 249 403 c 0
 192 403 155 387 111 358 c 1
 105 358 l 1
 146 660 l 1
 439 660 l 1
EndSplineSet
Substitution2: "'onum' Oldstyle Figures lookup 26 subtable" five.osf
Substitution2: "'tnum' Tabular Numbers lookup 25 subtable" five.tf
Substitution2: "'frac' Diagonal Fractions lookup 19 subtable" five.numr
Substitution2: "'dnom' Denominators lookup 17 subtable" five.dnom
Substitution2: "'numr' Numerators lookup 16 subtable" five.numr
Substitution2: "'sups' Superscript lookup 15 subtable" uni2075
Substitution2: "'subs' Subscript lookup 14 subtable" uni2085
AlternateSubs2: "'aalt' Access All Alternates lookup 1 subtable" uni2085 uni2075 five.numr five.dnom five.tf five.osf
EndChar

StartChar: six
Encoding: 54 54 885
Width: 506
Flags: MW
HStem: -9.22 7.57001 416.71 7.36 663.49 7.37
VStem: 75.71 8.2 432.63 8.22
LayerCount: 2
Fore
SplineSet
356.43 663.5 m 0
 215.33 663.5 121.81 503.819 90.6797 295.55 c 1
 141.489 364.85 209.89 424.069 297.92 424.069 c 0
 385.06 424.069 440.85 372.64 440.85 268.35 c 0
 440.85 164.069 391.63 -9.2207 233.28 -9.2207 c 0
 119.92 -9.2207 75.71 80.4297 75.71 201.64 c 0
 75.71 228.859 77.9199 257.859 81.9199 287.859 c 0
 113.57 511.569 211.92 670.859 356.64 670.859 c 0
 399.35 670.859 430.14 656.64 454.64 634.43 c 1
 449.21 628.93 l 1
 426.14 649.93 396.779 663.5 356.43 663.5 c 0
297.699 416.709 m 0
 211.43 416.709 142.681 356.289 89.3008 283.099 c 1
 85.7109 254.379 83.9111 226.789 83.9111 200.989 c 0
 83.9111 83.1396 125.631 -1.65039 233.271 -1.65039 c 0
 387.99 -1.65039 432.63 171.92 432.63 268.14 c 0
 432.63 367.989 380.85 416.709 297.699 416.709 c 0
EndSplineSet
Substitution2: "'onum' Oldstyle Figures lookup 22 subtable" six.osf
Substitution2: "'tnum' Tabular Numbers lookup 21 subtable" six.tf
Substitution2: "'frac' Diagonal Fractions lookup 16 subtable" six.numr
Substitution2: "'dnom' Denominators lookup 14 subtable" six.dnom
Substitution2: "'numr' Numerators lookup 13 subtable" six.numr
Substitution2: "'sups' Superscript lookup 12 subtable" sixsuperior
Substitution2: "'subs' Subscript lookup 11 subtable" sixinferior
AlternateSubs2: "'aalt' Access All Alternates lookup 1 subtable" sixinferior sixsuperior six.numr six.dnom six.tf six.osf
EndChar
StartChar: seven
Encoding: 55 55 2024
Width: 434
Flags: MW
HStem: -2 21G<60 60> 653 7<99 432 98 442>
VStem: 432 10<653 660>
LayerCount: 2
Back
Fore
SplineSet
442 660 m 1
 442 654 l 1
 68 -5 l 1
 60 -2 l 1
 432 653 l 1
 98 653 l 1
 99 660 l 1
 442 660 l 1
EndSplineSet
Substitution2: "'onum' Oldstyle Figures lookup 26 subtable" seven.osf
Substitution2: "'tnum' Tabular Numbers lookup 25 subtable" seven.tf
Substitution2: "'frac' Diagonal Fractions lookup 19 subtable" seven.numr
Substitution2: "'dnom' Denominators lookup 17 subtable" seven.dnom
Substitution2: "'numr' Numerators lookup 16 subtable" seven.numr
Substitution2: "'sups' Superscript lookup 15 subtable" uni2077
Substitution2: "'subs' Subscript lookup 14 subtable" uni2087
AlternateSubs2: "'aalt' Access All Alternates lookup 1 subtable" uni2087 uni2077 seven.numr seven.dnom seven.tf seven.osf
EndChar
StartChar: eight
Encoding: 56 56 2025
Width: 524
Flags: MW
HStem: -9 8<175 288 175 294> 664 7<273.5 358>
VStem: 54 8<96 178.5 96 182> 132 8<470 550.5 467.5 552.5> 437 8<133.5 223.5 133.5 227.5> 457 9<502 579>
LayerCount: 2
Back
Fore
SplineSet
312 341 m 1
 404 301 445 262 445 185 c 0xf8
 445 82 361 -9 227 -9 c 0
 117 -9 54 50 54 140 c 0
 54 224 92 307 239 364 c 1
 162 397 132 437 132 503 c 0
 132 602 224 671 319 671 c 0
 401 671 466 625 466 538 c 0xfc
 466 463 436 401 312 341 c 1
140 503 m 0
 140 432 174 398 254 365 c 2
 304 344 l 1
 429 404 457 466 457 538 c 0xfc
 457 620 397 664 319 664 c 0
 228 664 140 598 140 503 c 0
227 -1 m 0
 349 -1 437 78 437 186 c 0
 437 269 386 303 285 345 c 2
 247 360 l 1
 93 300 62 218 62 139 c 0
 62 53 123 -1 227 -1 c 0
EndSplineSet
Substitution2: "'onum' Oldstyle Figures lookup 26 subtable" eight.osf
Substitution2: "'tnum' Tabular Numbers lookup 25 subtable" eight.tf
Substitution2: "'frac' Diagonal Fractions lookup 19 subtable" eight.numr
Substitution2: "'dnom' Denominators lookup 17 subtable" eight.dnom
Substitution2: "'numr' Numerators lookup 16 subtable" eight.numr
Substitution2: "'sups' Superscript lookup 15 subtable" uni2078
Substitution2: "'subs' Subscript lookup 14 subtable" uni2088
AlternateSubs2: "'aalt' Access All Alternates lookup 1 subtable" uni2088 uni2078 eight.numr eight.dnom eight.tf eight.osf
EndChar
StartChar: nine
Encoding: 57 57 2026
Width: 502
Flags: MW
HStem: -5 21G<86 86> 259 8<193.5 274.5> 664 7<228.5 354>
VStem: 89 8<374 472 374 474.5> 446 8<468.5 539>
LayerCount: 2
Back
Fore
SplineSet
303 671 m 0
 409 671 454 601 454 483 c 0
 454 295 389 76 88 -12 c 1
 86 -5 l 1
 259 46 403 154 439 380 c 1
 385 300 315 259 234 259 c 0
 148 259 89 321 89 423 c 0
 89 526 150 671 303 671 c 0
235 267 m 0
 316 267 387 310 440 392 c 1
 444 425 446 455 446 482 c 0
 446 596 405 664 303 664 c 0
 154 664 97 521 97 423 c 0
 97 325 152 267 235 267 c 0
EndSplineSet
Substitution2: "'onum' Oldstyle Figures lookup 26 subtable" nine.osf
Substitution2: "'tnum' Tabular Numbers lookup 25 subtable" nine.tf
Substitution2: "'frac' Diagonal Fractions lookup 19 subtable" nine.numr
Substitution2: "'dnom' Denominators lookup 17 subtable" nine.dnom
Substitution2: "'numr' Numerators lookup 16 subtable" nine.numr
Substitution2: "'sups' Superscript lookup 15 subtable" uni2079
Substitution2: "'subs' Subscript lookup 14 subtable" uni2089
AlternateSubs2: "'aalt' Access All Alternates lookup 1 subtable" uni2089 uni2079 nine.numr nine.dnom nine.tf nine.osf
EndChar
StartChar: colon
Encoding: 58 58 2122
Width: 133
Flags: MW
HStem: -5 23<26.5 32.5> 419 24<86.5 92.5>
VStem: 18 24<3.5 9.5> 77 24<428.5 434.5>
LayerCount: 2
Back
Fore
SplineSet
90 443 m 0
 97 443 101 438 101 432 c 0
 101 425 96 419 89 419 c 0
 82 419 77 424 77 431 c 0
 77 438 83 443 90 443 c 0
30 18 m 0
 37 18 42 13 42 7 c 0
 42 0 36 -5 29 -5 c 0
 22 -5 18 0 18 6 c 0
 18 13 23 18 30 18 c 0
EndSplineSet
EndChar

StartChar: semicolon
Encoding: 59 59 995
Width: 133
Flags: MW
HStem: -4.64999 21G 419.42 23.65
VStem: 17.72 23.86 77.29 23.86
LayerCount: 2
Fore
SplineSet
89.6396 443.07 m 0
 96.6396 443.07 101.15 438.141 101.15 431.57 c 0
 101.15 424.57 96 419.42 88.79 419.42 c 0
 82 419.42 77.29 424.35 77.29 430.71 c 0
 77.29 437.92 82.6396 443.07 89.6396 443.07 c 0
30.0801 18.3506 m 0
 37.0801 18.3506 41.5811 13.4307 41.5811 6.86035 c 0
 41.5811 1.93066 39.5107 -2.21973 35.5811 -9.64941 c 2
 -17.4189 -115.43 l 1
 -24.6992 -115.43 l 1
 25.6504 -4.64941 l 1
 20.3701 -2.99902 17.7197 1.28125 17.7197 6.21094 c 0
 17.7197 13.001 23.0801 18.3506 30.0801 18.3506 c 0
EndSplineSet
EndChar
StartChar: less
Encoding: 60 60 2261
Width: 494
GlyphClass: 2
Flags: MW
HStem: 170 322<392 437>
VStem: 97 9<333 333 333 336 333 336>
LayerCount: 2
Back
Fore
SplineSet
437 492 m 1
 440 485 l 1
 106 333 l 1
 396 177 l 1
 392 170 l 1
 97 330 l 1
 97 336 l 1
 437 492 l 1
EndSplineSet
Substitution2: "'onum' Oldstyle Figures lookup 26 subtable" less.osf
Substitution2: "'tnum' Tabular Numbers lookup 25 subtable" less.tf
AlternateSubs2: "'aalt' Access All Alternates lookup 1 subtable" less.tf less.osf
EndChar

StartChar: equal
Encoding: 61 61 1095
Width: 481
Flags: MW
HStem: 250.92 7.78999 403.07 7.78
VStem: 81.42 338.29
LayerCount: 2
Fore
SplineSet
105.28 410.85 m 1
 419.71 410.85 l 1
 418.07 403.069 l 1
 103.641 403.069 l 1
 105.28 410.85 l 1
83.0703 258.71 m 1
 397.5 258.71 l 1
 395.85 250.92 l 1
 81.4199 250.92 l 1
 83.0703 258.71 l 1
EndSplineSet
Substitution2: "'onum' Oldstyle Figures lookup 22 subtable" equal.osf
Substitution2: "'tnum' Tabular Numbers lookup 21 subtable" equal.tf
Substitution2: "'dnom' Denominators lookup 14 subtable" equal.dnom
Substitution2: "'numr' Numerators lookup 13 subtable" equal.numr
Substitution2: "'sups' Superscript lookup 12 subtable" equalsuperior
AlternateSubs2: "'aalt' Access All Alternates lookup 1 subtable" equalsuperior equal.numr equal.dnom equal.tf equal.osf
EndChar
StartChar: greater
Encoding: 62 62 2256
Width: 496
GlyphClass: 2
Flags: MW
HStem: 170 322<78 123>
VStem: 411 8.5
LayerCount: 2
Back
Fore
SplineSet
123 492 m 1
 420 336 l 1
 419 330 l 1
 78 170 l 1
 75 177 l 1
 411 333 l 1
 119 485 l 1
 123 492 l 1
EndSplineSet
Substitution2: "'onum' Oldstyle Figures lookup 26 subtable" greater.osf
Substitution2: "'tnum' Tabular Numbers lookup 25 subtable" greater.tf
AlternateSubs2: "'aalt' Access All Alternates lookup 1 subtable" greater.tf greater.osf
EndChar
StartChar: question
Encoding: 63 63 2130
Width: 446
Flags: MW
HStem: -6 23<184.5 191> 683 7<260.5 333>
VStem: 176 24<2.5 8.5> 187 8<258.5 268> 411 8<492 606.5>
LayerCount: 2
Back
Fore
SplineSet
295 690 m 0xd8
 376 690 419 637 419 580 c 0
 419 400 193 413 195 268 c 0
 195 248 199 229 204 212 c 1
 197 210 l 1
 191 229 187 249 187 268 c 0
 185 418 411 405 411 579 c 0
 411 634 371 683 295 683 c 0
 226 683 179 658 124 606 c 1
 118 611 l 1
 174 664 224 690 295 690 c 0xd8
188 17 m 0xe8
 195 17 200 12 200 6 c 0
 200 -1 195 -6 187 -6 c 0
 181 -6 176 -1 176 5 c 0
 176 12 181 17 188 17 c 0xe8
EndSplineSet
EndChar
StartChar: at
Encoding: 64 64 2378
Width: 1020
GlyphClass: 2
Flags: MW
HStem: -194 8<367.5 504.5 367.5 505.5> 14 7<686 790.5 686 793.5> 16 8<420 491.5> 467 8<473.5 580> 684 7<413.5 696.5>
VStem: 97 8<64 279 64 280> 324 8<127 237.5 127 241> 918 8<289.5 451.5>
LayerCount: 2
Back
Fore
SplineSet
584 691 m 0xdf
 815 691 926 544 926 362 c 0
 926 212 866 14 721 14 c 0xdf
 637 14 621 97 626 154 c 1
 584 65 527 16 456 16 c 0xbf
 380 16 324 71 324 180 c 0
 324 302 387 475 555 475 c 0
 606 475 645 458 672 442 c 1
 635 177 l 2
 622 82 652 21 720 21 c 0
 861 21 918 217 918 362 c 0
 918 541 809 684 584 684 c 0
 243 684 105 381 105 177 c 0
 105 -49 262 -186 473 -186 c 0
 536 -186 605 -174 658 -155 c 1
 659 -162 l 1
 607 -181 538 -194 473 -194 c 0
 258 -194 97 -54 97 176 c 0
 97 384 237 691 584 691 c 0xdf
456 24 m 0xbf
 528 24 586 78 626 168 c 1
 663 438 l 1
 639 452 604 467 556 467 c 0
 391 467 332 296 332 179 c 0
 332 75 384 24 456 24 c 0xbf
EndSplineSet
EndChar

StartChar: A
Encoding: 65 65 1
Width: 556
GlyphClass: 2
Flags: MW
HStem: 0 21G<-3.5791 5.28125 -3.5791 -3.5791 478.921 478.921 478.921 487.351> 210 7.78 671.93 8.5
VStem: -3.58 490.93
AnchorPoint: "Anchor-11" 0 0 basechar 0
AnchorPoint: "Anchor-10" 198 518 basechar 0
AnchorPoint: "Anchor-9" 337 680 basechar 0
AnchorPoint: "Anchor-8" 497 0 basechar 0
LayerCount: 2
Fore
SplineSet
434.19 210 m 1
 108.571 210 l 1
 5.28125 0 l 1
 -3.5791 -0 l 1
 332.351 680.43 l 1
 341.28 680.43 l 1
 487.351 0 l 1
 478.921 0 l 1
 434.19 210 l 1
432.521 217.78 m 1
 335.781 671.931 l 1
 112.401 217.78 l 1
 432.521 217.78 l 1
EndSplineSet
Substitution2: "Single Substitution lookup 30 subtable" ordfeminine
Substitution2: "'c2sc' Capitals to Small Capitals lookup 23 subtable" a.sc
AlternateSubs2: "'aalt' Access All Alternates lookup 1 subtable" ordfeminine a.sc
Position2: "'cpsp' Capital Spacing lookup 0 subtable" dx=5 dy=0 dh=10 dv=0
EndChar
StartChar: B
Encoding: 66 66 36
Width: 583
GlyphClass: 2
Flags: MW
HStem: 0 8<101 255> 356 8<151 332 150 333> 673 7<194 194 194 325 325 326>
VStem: 502 8<160 258.5> 511 8<490 582.5>
AnchorPoint: "Anchor-14" 0 0 basechar 0
AnchorPoint: "Anchor-13" 0 0 basechar 0
AnchorPoint: "Anchor-12" 338 680 basechar 0
AnchorPoint: "Anchor-11" 0 0 basechar 0
AnchorPoint: "Anchor-10" 0 0 basechar 0
LayerCount: 2
Back
Fore
SplineSet
357 360 m 1
 442 355 510 306 510 213 c 0xf0
 510 107 450 0 255 0 c 2
 92 0 l 1
 187 680 l 1
 325 680 l 2
 450 680 519 631 519 540 c 0xe8
 519 440 446 372 357 360 c 1
194 673 m 1
 151 364 l 1
 333 364 l 2
 415 364 511 426 511 539 c 0xe8
 511 626 447 673 326 673 c 2
 194 673 l 1
256 8 m 2xf0
 441 8 502 107 502 213 c 0
 502 304 433 356 332 356 c 2
 150 356 l 1
 101 8 l 1
 256 8 l 2xf0
EndSplineSet
Substitution2: "'c2sc' Capitals to Small Capitals lookup 27 subtable" b.sc
Substitution2: "'aalt' Access All Alternates lookup 0 subtable" b.sc
Position2: "'cpsp' Capital Spacing lookup 0 subtable" dx=5 dy=0 dh=10 dv=0
EndChar
StartChar: D
Encoding: 68 68 50
Width: 615
GlyphClass: 2
Flags: MW
HStem: 0 8<101 207> 673 7<194 295 194 194>
VStem: 543 8<335 534>
AnchorPoint: "Anchor-14" 323 340 basechar 0
AnchorPoint: "Anchor-13" 0 0 basechar 0
AnchorPoint: "Anchor-12" 350 680 basechar 0
AnchorPoint: "Anchor-11" 0 0 basechar 0
AnchorPoint: "Anchor-10" 252 0 basechar 0
LayerCount: 2
Back
Fore
SplineSet
296 680 m 2
 424 680 551 638 551 435 c 0
 551 231 464 0 207 0 c 2
 92 0 l 1
 187 680 l 1
 296 680 l 2
295 673 m 2
 194 673 l 1
 101 8 l 1
 208 8 l 2
 459 8 543 235 543 435 c 0
 543 633 419 673 295 673 c 2
EndSplineSet
Substitution2: "'c2sc' Capitals to Small Capitals lookup 27 subtable" d.sc
Substitution2: "'aalt' Access All Alternates lookup 0 subtable" d.sc
Position2: "'cpsp' Capital Spacing lookup 0 subtable" dx=5 dy=0 dh=10 dv=0
EndChar

StartChar: F
Encoding: 70 70 34
Width: 470
GlyphClass: 2
Flags: MW
HStem: -0.00999451 21G 341.99 7.57001 672.64 7.78
VStem: 91.64 399.93
LayerCount: 2
Fore
SplineSet
489.85 672.64 m 1
 194.209 672.631 l 1
 148.489 349.561 l 1
 404.35 349.561 l 1
 403.489 341.99 l 1
 147.64 341.99 l 1
 99.8496 -0.00976562 l 1
 91.6396 -0.00976562 l 1
 186.85 680.42 l 1
 491.569 680.42 l 1
 489.85 672.64 l 1
EndSplineSet
Substitution2: "'c2sc' Capitals to Small Capitals lookup 23 subtable" f.sc
Substitution2: "'aalt' Access All Alternates lookup 0 subtable" f.sc
Position2: "'cpsp' Capital Spacing lookup 0 subtable" dx=5 dy=0 dh=10 dv=0
EndChar

StartChar: G
Encoding: 71 71 35
Width: 601
GlyphClass: 2
Flags: MW
HStem: -9.22 7.78999 337.86 7.78 682.65 7.78
VStem: 88.64 8.44
AnchorPoint: "Anchor-11" 302 0 basechar 0
AnchorPoint: "Anchor-10" 0 0 basechar 0
AnchorPoint: "Anchor-9" 399 680 basechar 0
AnchorPoint: "Anchor-8" 0 0 basechar 0
LayerCount: 2
Fore
SplineSet
404.43 690.43 m 0
 467.72 690.42 513.429 671.219 558.289 634.148 c 1
 552.999 628.078 l 1
 509.649 664.288 465.649 682.648 404.43 682.648 c 0
 191.859 682.648 97.0791 445.498 97.0791 256.428 c 0
 97.0791 86.7881 180.009 -1.43164 316.789 -1.43164 c 0
 386.509 -1.43164 440.579 20.4287 484.859 43.8584 c 1
 527.01 337.858 l 1
 377.939 337.858 l 1
 377.72 345.639 l 1
 536.08 345.639 l 1
 492.86 39.4287 l 1
 445.221 13.499 385.07 -9.2207 316.79 -9.2207 c 0
 175.14 -9.2207 88.6396 82.5693 88.6396 256.85 c 0
 88.6396 453 189 690.43 404.43 690.43 c 0
EndSplineSet
Substitution2: "'c2sc' Capitals to Small Capitals lookup 23 subtable" g.sc
Substitution2: "'aalt' Access All Alternates lookup 0 subtable" g.sc
Position2: "'cpsp' Capital Spacing lookup 0 subtable" dx=5 dy=0 dh=10 dv=0
EndChar
StartChar: H
Encoding: 72 72 107
Width: 656
GlyphClass: 2
Flags: MW
HStem: 0 21G<92 100 92 92 483 492 483 483> 361 8<151 534 150 535> 660 20G<187 195 195 195 579 587 587 587>
VStem: 92 495
AnchorPoint: "Anchor-14" 338 340 basechar 0
AnchorPoint: "Anchor-13" 0 0 basechar 0
AnchorPoint: "Anchor-12" 386 680 basechar 0
AnchorPoint: "Anchor-11" 0 0 basechar 0
AnchorPoint: "Anchor-10" 301 0 basechar 0
LayerCount: 2
Back
Fore
SplineSet
483 0 m 1
 534 361 l 1
 150 361 l 1
 100 0 l 1
 92 0 l 1
 187 680 l 1
 195 680 l 1
 151 369 l 1
 535 369 l 1
 579 680 l 1
 587 680 l 1
 492 0 l 1
 483 0 l 1
EndSplineSet
Substitution2: "'c2sc' Capitals to Small Capitals lookup 27 subtable" h.sc
Substitution2: "'aalt' Access All Alternates lookup 0 subtable" h.sc
Position2: "'cpsp' Capital Spacing lookup 0 subtable" dx=5 dy=0 dh=10 dv=0
EndChar
StartChar: I
Encoding: 73 73 115
Width: 264
GlyphClass: 2
Flags: MW
HStem: 0 21G<92 100 92 92> 660 20G<187 195 195 195>
VStem: 92 103
AnchorPoint: "Anchor-14" 0 0 basechar 0
AnchorPoint: "Anchor-13" 0 0 basechar 0
AnchorPoint: "Anchor-12" 191 680 basechar 0
AnchorPoint: "Anchor-11" 107 0 basechar 0
AnchorPoint: "Anchor-10" 96 0 basechar 0
LayerCount: 2
Back
Fore
SplineSet
195 680 m 1
 100 0 l 1
 92 0 l 1
 187 680 l 1
 195 680 l 1
EndSplineSet
Substitution2: "'c2sc' Capitals to Small Capitals lookup 27 subtable" i.sc
Substitution2: "'aalt' Access All Alternates lookup 0 subtable" i.sc
Position2: "'cpsp' Capital Spacing lookup 0 subtable" dx=5 dy=0 dh=10 dv=0
EndChar
StartChar: J
Encoding: 74 74 134
Width: 275
GlyphClass: 2
Flags: MW
HStem: 660 20G<204 212 212 212>
VStem: -21 233
AnchorPoint: "Anchor-14" 0 0 basechar 0
AnchorPoint: "Anchor-13" 0 0 basechar 0
AnchorPoint: "Anchor-12" 208 680 basechar 0
AnchorPoint: "Anchor-11" 0 0 basechar 0
AnchorPoint: "Anchor-10" 0 0 basechar 0
LayerCount: 2
Back
Fore
SplineSet
212 680 m 1
 129 86 l 2
 116 -9 90 -51 -19 -94 c 1
 -21 -87 l 1
 82 -46 108 -5 121 87 c 2
 204 680 l 1
 212 680 l 1
EndSplineSet
Substitution2: "'c2sc' Capitals to Small Capitals lookup 27 subtable" j.sc
Substitution2: "'aalt' Access All Alternates lookup 0 subtable" j.sc
Position2: "'cpsp' Capital Spacing lookup 0 subtable" dx=5 dy=0 dh=10 dv=0
EndChar
StartChar: K
Encoding: 75 75 137
Width: 506
GlyphClass: 2
Flags: MW
HStem: 0 21G<448 458 448 448> 660 20G<187 195 195 195 526 537 537 537>
VStem: 92 445
AnchorPoint: "Anchor-14" 0 0 basechar 0
AnchorPoint: "Anchor-13" 0 0 basechar 0
AnchorPoint: "Anchor-12" 344 680 basechar 0
AnchorPoint: "Anchor-11" 0 0 basechar 0
AnchorPoint: "Anchor-10" 251 0 basechar 0
LayerCount: 2
Back
Fore
SplineSet
195 680 m 1
 100 1 l 1
 92 1 l 1
 187 680 l 1
 195 680 l 1
537 680 m 1
 165 366 l 1
 458 0 l 1
 448 0 l 1
 154 366 l 1
 526 680 l 1
 537 680 l 1
EndSplineSet
Substitution2: "'c2sc' Capitals to Small Capitals lookup 27 subtable" k.sc
Substitution2: "'aalt' Access All Alternates lookup 0 subtable" k.sc
Position2: "'cpsp' Capital Spacing lookup 0 subtable" dx=5 dy=0 dh=10 dv=0
EndChar

StartChar: L
Encoding: 76 76 58
Width: 447
GlyphClass: 2
Flags: MW
HStem: 0 8<100.93 386.779> 660.43 20G
VStem: 91.64 297.5
AnchorPoint: "Anchor-11" 240 0 basechar 0
AnchorPoint: "Anchor-10" 0 0 basechar 0
AnchorPoint: "Anchor-9" 191 680 basechar 0
AnchorPoint: "Anchor-8" 0 0 basechar 0
LayerCount: 2
Fore
SplineSet
100.93 8 m 1
 389.14 8 l 1
 386.779 0 l 1
 91.6396 -0 l 1
 186.85 680.43 l 1
 195.069 680.43 l 1
 100.93 8 l 1
EndSplineSet
Substitution2: "'c2sc' Capitals to Small Capitals lookup 23 subtable" l.sc
Substitution2: "'aalt' Access All Alternates lookup 0 subtable" l.sc
Position2: "'cpsp' Capital Spacing lookup 0 subtable" dx=5 dy=0 dh=10 dv=0
EndChar

StartChar: Q
Encoding: 81 81 85
Width: 674
GlyphClass: 2
Flags: MW
HStem: -9.16 7.73 682.85 7.58
VStem: 87.86 8.42999 615.15 8.42
LayerCount: 2
Fore
SplineSet
623.57 428.36 m 0
 623.57 270.051 561.021 24.8994 352.091 -3.62012 c 1
 449.701 -5.12988 520.451 -19.2695 573.721 -69.6396 c 1
 567.221 -75.5693 l 1
 512.021 -24.459 445.681 -8.06934 311.961 -9.15918 c 0
 310.23 -9.19922 308.461 -9.20898 306.651 -9.20898 c 0
 169.001 -9.20898 87.8613 85.791 87.8613 252.721 c 0
 87.8613 420.57 167.711 690.431 403.431 690.431 c 0
 541.641 690.431 623.57 597.07 623.57 428.36 c 0
96.29 253.64 m 0
 96.29 90.5693 174.08 -1.43066 306.65 -1.43066 c 0
 547.431 -1.43066 615.15 266.069 615.15 428.569 c 0
 615.15 592.85 537 682.85 403.22 682.85 c 0
 172.58 682.85 96.29 415 96.29 253.64 c 0
EndSplineSet
Substitution2: "'c2sc' Capitals to Small Capitals lookup 23 subtable" q.sc
Substitution2: "'aalt' Access All Alternates lookup 0 subtable" q.sc
Position2: "'cpsp' Capital Spacing lookup 0 subtable" dx=5 dy=0 dh=10 dv=0
EndChar

StartChar: T
Encoding: 84 84 96
Width: 473
GlyphClass: 2
Flags: MW
HStem: 0 21G<196.22 204.43 196.22 196.22> 672.43 8
VStem: 77.07 437.14
AnchorPoint: "Anchor-11" 200 0 basechar 0
AnchorPoint: "Anchor-10" 0 0 basechar 0
AnchorPoint: "Anchor-9" 283 680 basechar 0
AnchorPoint: "Anchor-8" 0 0 basechar 0
LayerCount: 2
Fore
SplineSet
512.28 672.43 m 1
 298.79 672.43 l 1
 204.43 0 l 1
 196.22 -0 l 1
 290.569 672.43 l 1
 77.0693 672.43 l 1
 77.9297 680.43 l 1
 514.21 680.43 l 1
 512.28 672.43 l 1
EndSplineSet
Substitution2: "'c2sc' Capitals to Small Capitals lookup 23 subtable" t.sc
Substitution2: "'aalt' Access All Alternates lookup 0 subtable" t.sc
Position2: "'cpsp' Capital Spacing lookup 0 subtable" dx=5 dy=0 dh=10 dv=0
EndChar

StartChar: U
Encoding: 85 85 101
Width: 636
GlyphClass: 2
Flags: MW
HStem: -9.22 7.78999 660.42 20G 660.43 20G
VStem: 106.67 8.25
AnchorPoint: "Anchor-11" 0 0 basechar 0
AnchorPoint: "Anchor-10" 0 0 basechar 0
AnchorPoint: "Anchor-9" 382 680 basechar 0
AnchorPoint: "Anchor-8" 363 0 basechar 0
LayerCount: 2
Fore
SplineSet
510.28 206.21 m 1xb0
 493.851 82.3496 425.711 -9.2207 281.281 -9.2207 c 0
 134.421 -9.2207 93.6406 82.7793 110.07 206.64 c 1
 176.851 680.42 l 1
 185.07 680.42 l 1xd0
 118.28 206.85 l 2
 102.28 86.5693 140.931 -1.43066 281.28 -1.43066 c 0
 421.5 -1.43066 486.28 87.6396 502.07 207.279 c 1
 568.851 680.43 l 1
 577.07 680.43 l 1
 510.28 206.21 l 1xb0
EndSplineSet
Substitution2: "'c2sc' Capitals to Small Capitals lookup 23 subtable" u.sc
Substitution2: "'aalt' Access All Alternates lookup 0 subtable" u.sc
Position2: "'cpsp' Capital Spacing lookup 0 subtable" dx=5 dy=0 dh=10 dv=0
EndChar
StartChar: V
Encoding: 86 86 282
Width: 526
GlyphClass: 2
Flags: MW
HStem: 0 8<229 229 229 233 223 229> 660 20G<92 100 100 100 544 552 552 552>
VStem: 92 460<680 680>
LayerCount: 2
Back
Fore
SplineSet
552 680 m 1
 233 0 l 1
 223 0 l 1
 92 680 l 1
 100 680 l 1
 229 8 l 1
 544 680 l 1
 552 680 l 1
EndSplineSet
Substitution2: "'c2sc' Capitals to Small Capitals lookup 27 subtable" v.sc
Substitution2: "'aalt' Access All Alternates lookup 0 subtable" v.sc
Position2: "'cpsp' Capital Spacing lookup 0 subtable" dx=5 dy=0 dh=10 dv=0
EndChar

StartChar: W
Encoding: 87 87 113
Width: 780
GlyphClass: 2
Flags: MW
HStem: 0 9.42999 672.21 8.22
VStem: 101.85 694.58
AnchorPoint: "Anchor-11" 0 0 basechar 0
AnchorPoint: "Anchor-10" 0 0 basechar 0
AnchorPoint: "Anchor-9" 449 680 basechar 0
AnchorPoint: "Anchor-8" 0 0 basechar 0
LayerCount: 2
Fore
SplineSet
541.43 0 m 1
 532.131 -0 l 1
 448.281 672.21 l 1
 175.711 0 l 1
 166.421 -0 l 1
 101.851 680.43 l 1
 110.28 680.43 l 1
 172.351 9.06934 l 1
 444.07 680.43 l 1
 454 680.43 l 1
 537.64 9.42969 l 1
 788 680.43 l 1
 796.43 680.43 l 1
 541.43 0 l 1
EndSplineSet
Substitution2: "'c2sc' Capitals to Small Capitals lookup 23 subtable" w.sc
Substitution2: "'aalt' Access All Alternates lookup 0 subtable" w.sc
Position2: "'cpsp' Capital Spacing lookup 0 subtable" dx=5 dy=0 dh=10 dv=0
EndChar
StartChar: X
Encoding: 88 88 292
Width: 472
GlyphClass: 2
Flags: MW
HStem: 0 21G<-17 -8 -17 -17 409 417 409 409> 660 20G<107 116 116 116 472 481 481 481>
VStem: -17 498
LayerCount: 2
Back
Fore
SplineSet
257 370 m 1
 256 370 l 1
 417 0 l 1
 409 0 l 1
 250 364 l 1
 -8 0 l 1
 -17 0 l 1
 245 370 l 1
 246 370 l 1
 107 680 l 1
 116 680 l 1
 251 376 l 1
 472 680 l 1
 481 680 l 1
 257 370 l 1
EndSplineSet
Substitution2: "'c2sc' Capitals to Small Capitals lookup 27 subtable" x.sc
Substitution2: "'aalt' Access All Alternates lookup 0 subtable" x.sc
Position2: "'cpsp' Capital Spacing lookup 0 subtable" dx=5 dy=0 dh=10 dv=0
EndChar
StartChar: Y
Encoding: 89 89 293
Width: 484
GlyphClass: 2
Flags: MW
HStem: 0 21G<202 210 202 202> 660 20G<83 92 92 92 509 519 519 519>
VStem: 83 436<680 680>
AnchorPoint: "Anchor-14" 0 0 basechar 0
AnchorPoint: "Anchor-13" 0 0 basechar 0
AnchorPoint: "Anchor-12" 300 680 basechar 0
AnchorPoint: "Anchor-11" 0 0 basechar 0
AnchorPoint: "Anchor-10" 206 0 basechar 0
LayerCount: 2
Back
Fore
SplineSet
519 680 m 1
 248 271 l 1
 210 0 l 1
 202 0 l 1
 239 271 l 1
 83 680 l 1
 92 680 l 1
 244 279 l 1
 509 680 l 1
 519 680 l 1
EndSplineSet
Substitution2: "'c2sc' Capitals to Small Capitals lookup 27 subtable" y.sc
Substitution2: "'aalt' Access All Alternates lookup 0 subtable" y.sc
Position2: "'cpsp' Capital Spacing lookup 0 subtable" dx=5 dy=0 dh=10 dv=0
EndChar

StartChar: Z
Encoding: 90 90 124
Width: 506
GlyphClass: 2
Flags: MW
HStem: 0 8 672.64 7.78
VStem: 8.14 11.15 503.14 11.04
AnchorPoint: "Anchor-11" 0 0 basechar 0
AnchorPoint: "Anchor-10" 0 0 basechar 0
AnchorPoint: "Anchor-9" 313 680 basechar 0
AnchorPoint: "Anchor-8" 0 0 basechar 0
LayerCount: 2
Fore
SplineSet
513.86 673.07 m 1
 19.29 7.99902 l 1
 404.43 7.99902 l 1
 402.5 -0.000976562 l 1
 7.71973 -0.000976562 l 1
 8.56934 7.56934 l 1
 503.14 672.64 l 1
 139.29 672.64 l 1
 140.14 680.42 l 1
 514.5 680.42 l 1
 513.86 673.07 l 1
EndSplineSet
Substitution2: "'c2sc' Capitals to Small Capitals lookup 23 subtable" z.sc
Substitution2: "'aalt' Access All Alternates lookup 0 subtable" z.sc
Position2: "'cpsp' Capital Spacing lookup 0 subtable" dx=5 dy=0 dh=10 dv=0
EndChar

StartChar: bracketleft
Encoding: 91 91 1007
Width: 311
Flags: MW
HStem: -101.93 893.86
VStem: 56.64 241.36
LayerCount: 2
Fore
SplineSet
296.57 785.43 m 1
 189 785.43 l 1
 66.21 -95.4307 l 1
 173.78 -95.4307 l 1
 171.57 -101.931 l 1
 56.6406 -101.931 l 1
 183.07 791.93 l 1
 298 791.93 l 1
 296.57 785.43 l 1
EndSplineSet
Substitution2: "'case' Case-Sensitive Forms lookup 25 subtable" bracketleft.case
Substitution2: "'aalt' Access All Alternates lookup 0 subtable" bracketleft.case
EndChar

StartChar: backslash
Encoding: 92 92 981
Width: 520
Flags: MW
HStem: -92.86 887.93
VStem: 215.21 115.36
LayerCount: 2
Fore
SplineSet
330.57 -90.5703 m 1
 323 -92.8613 l 1
 215.21 792.789 l 1
 222.78 795.069 l 1
 330.57 -90.5703 l 1
EndSplineSet
EndChar
StartChar: bracketright
Encoding: 93 93 2149
Width: 310
Flags: MW
HStem: -102 7<37 146 37 152 37 146> 785 7<162 269 162 278>
VStem: 37 241
LayerCount: 2
Back
Fore
SplineSet
278 792 m 1
 152 -102 l 1
 37 -102 l 1
 37 -95 l 1
 146 -95 l 1
 269 785 l 1
 162 785 l 1
 162 792 l 1
 278 792 l 1
EndSplineSet
Substitution2: "'case' Case-Sensitive Forms lookup 29 subtable" bracketright.case
Substitution2: "'aalt' Access All Alternates lookup 0 subtable" bracketright.case
EndChar
StartChar: asciicircum
Encoding: 94 94 2389
Width: 527
GlyphClass: 2
Flags: MW
HStem: 809 10<336 342>
VStem: 123 348<527 527>
LayerCount: 2
Back
Fore
SplineSet
342 819 m 1
 471 527 l 1
 461 527 l 1
 336 809 l 1
 133 527 l 1
 123 527 l 1
 336 819 l 1
 342 819 l 1
EndSplineSet
EndChar
StartChar: underscore
Encoding: 95 95 2137
Width: 520
Flags: MW
HStem: -91 8<1 423 2 422>
VStem: 1 422<-91 -83>
LayerCount: 2
Back
Fore
SplineSet
1 -91 m 1
 2 -83 l 1
 423 -83 l 1
 422 -91 l 1
 1 -91 l 1
EndSplineSet
EndChar

StartChar: grave
Encoding: 96 96 1259
Width: 233
Flags: MW
HStem: 659.64 90.86
VStem: 97.78 161.57
LayerCount: 2
Fore
SplineSet
259.35 664.71 m 1
 255.99 659.641 l 1
 97.7803 742.07 l 1
 102.42 750.5 l 1
 259.35 664.71 l 1
EndSplineSet
Substitution2: "'case' Case-Sensitive Forms lookup 25 subtable" grave.case
Substitution2: "'smcp' Lowercase to Small Capitals lookup 24 subtable" grave.sc
Substitution2: "'c2sc' Capitals to Small Capitals lookup 23 subtable" grave.sc
AlternateSubs2: "'aalt' Access All Alternates lookup 1 subtable" grave.sc grave.case
EndChar

StartChar: b
Encoding: 98 98 146
Width: 563
GlyphClass: 2
Flags: MW
HStem: -9.21001 7.56 520.07 7.57001 711.71 20G
VStem: 483.58 7.99001
LayerCount: 2
Fore
SplineSet
154.43 424.96 m 1
 203.33 483.76 262.221 527.641 343.431 527.641 c 0
 440.721 527.641 491.57 459.86 491.57 339 c 0
 491.57 205.5 428.431 -9.20996 248.86 -9.20996 c 0
 188.5 -9.20996 148.29 1.36035 91.2197 26.1406 c 1
 189.069 730.86 l 1
 197.069 731.71 l 1
 154.43 424.96 l 1
343.44 520.071 m 0
 262.53 520.071 207.591 478.551 153.271 415.001 c 1
 100.091 31.2109 l 1
 151.94 8.57129 190.301 -1.64844 248.65 -1.64844 c 0
 423.37 -1.64844 483.58 210.352 483.58 339.422 c 0
 483.58 455.852 435.87 520.071 343.44 520.071 c 0
EndSplineSet
Substitution2: "'smcp' Lowercase to Small Capitals lookup 24 subtable" b.sc
Substitution2: "'aalt' Access All Alternates lookup 0 subtable" b.sc
EndChar

StartChar: d
Encoding: 100 100 153
Width: 573
GlyphClass: 2
Flags: MW
HStem: -9.22 7.57001 0 21G 520.28 7.36 711.71 20G
VStem: 77.85 8.21001
LayerCount: 2
Fore
SplineSet
516 730.86 m 1
 413.569 -0.000976562 l 1
 406.64 -0.000976562 l 1x78
 425.92 143.209 l 1
 381.07 63.0693 324.19 -9.2207 228.351 -9.2207 c 0
 137.28 -9.2207 77.8506 61.8496 77.8506 184.35 c 0
 77.8506 318 137.501 527.64 317.351 527.64 c 0
 401.91 527.64 446.8 476.77 465.97 429.89 c 1
 508 731.71 l 1
 516 730.86 l 1
317.569 520.279 m 0
 143.64 520.279 86.0586 315.499 86.0586 184.569 c 0
 86.0586 66.0693 141.919 -1.65039 228.559 -1.65039 c 0xb8
 323.729 -1.65039 379.559 71.8496 427.629 157.779 c 1
 464.559 418.93 l 1
 443.709 471.43 399.779 520.279 317.569 520.279 c 0
EndSplineSet
Substitution2: "'smcp' Lowercase to Small Capitals lookup 24 subtable" d.sc
Substitution2: "'aalt' Access All Alternates lookup 0 subtable" d.sc
EndChar

StartChar: e
Encoding: 101 101 157
Width: 527
GlyphClass: 2
Flags: MW
HStem: -9.22 7.58 217.04 7.14 520.28 7.36
VStem: 72.86 8.21001 458.72 8.21001
AnchorPoint: "Anchor-11" 233 0 basechar 0
AnchorPoint: "Anchor-10" 0 0 basechar 0
AnchorPoint: "Anchor-9" 309 518 basechar 0
AnchorPoint: "Anchor-8" 343 9 basechar 0
LayerCount: 2
Fore
SplineSet
466.93 413.14 m 0
 466.93 302.25 344.859 230.338 81.8799 217.038 c 1
 81.3301 208.288 81.0703 199.818 81.0703 191.708 c 0
 81.0703 64.3584 142.07 -1.6416 240.5 -1.6416 c 0
 304.86 -1.6416 348.21 19.1387 399.78 56.499 c 1
 404 50.209 l 1
 352 11.999 305.71 -9.2207 240.5 -9.2207 c 0
 136.14 -9.2207 72.8594 61.209 72.8594 191.499 c 0
 72.8594 317.279 135.359 527.64 324.14 527.64 c 0
 403.21 527.64 466.93 486.71 466.93 413.14 c 0
324.149 520.277 m 0
 156.39 520.277 92 347.417 82.3799 224.177 c 1
 343.71 237.667 458.72 308.497 458.72 412.917 c 0
 458.72 482.067 399.649 520.277 324.149 520.277 c 0
EndSplineSet
Substitution2: "'smcp' Lowercase to Small Capitals lookup 24 subtable" e.sc
Substitution2: "'aalt' Access All Alternates lookup 0 subtable" e.sc
EndChar
StartChar: f
Encoding: 102 102 447
Width: 301
GlyphClass: 2
Flags: MW
HStem: -192 21G<-32 -32> 510 8<70 161 69 162 170 317 70 169> 728 7<275 328>
VStem: -35 453
AnchorPoint: "Anchor-14" 0 0 basechar 0
AnchorPoint: "Anchor-13" 0 0 basechar 0
AnchorPoint: "Anchor-12" 309 729 basechar 0
AnchorPoint: "Anchor-11" 0 0 basechar 0
AnchorPoint: "Anchor-10" 66 -189 basechar 0
LayerCount: 2
Back
Fore
SplineSet
307 728 m 0
 243 728 194 691 184 617 c 2
 170 518 l 1
 319 518 l 1
 317 510 l 1
 169 510 l 1
 97 2 l 2
 80 -120 45 -154 -32 -192 c 1
 -35 -186 l 1
 39 -149 73 -115 90 3 c 2
 161 510 l 1
 69 510 l 1
 70 518 l 1
 162 518 l 1
 176 618 l 2
 187 694 239 735 307 735 c 0
 350 735 385 722 418 698 c 1
 413 692 l 1
 381 715 349 728 307 728 c 0
EndSplineSet
Substitution2: "'smcp' Lowercase to Small Capitals lookup 28 subtable" f.sc
Substitution2: "'locl' Localized Forms in Latin lookup 11 subtable" f.loclEWE
AlternateSubs2: "'aalt' Access All Alternates lookup 1 subtable" f.loclEWE f.sc
EndChar

StartChar: g
Encoding: 103 103 168
Width: 551
GlyphClass: 2
Flags: MW
HStem: -192.72 7.14 0 7.57001 520.5 7.14
VStem: 73.64 8.21001
AnchorPoint: "Anchor-11" 0 0 basechar 0
AnchorPoint: "Anchor-10" 0 0 basechar 0
AnchorPoint: "Anchor-9" 316 518 basechar 0
AnchorPoint: "Anchor-8" 0 0 basechar 0
LayerCount: 2
Fore
SplineSet
334.21 527.64 m 0
 388.92 527.64 429.919 511.001 465.419 487.211 c 1
 392.279 -9.06934 l 2
 371.279 -151.569 298.489 -192.72 210.35 -192.72 c 0
 140.779 -192.72 84.209 -168.93 49.8486 -146.5 c 1
 53.4189 -140.22 l 1
 87.9893 -162.43 141.64 -185.58 210.569 -185.58 c 0
 294.709 -185.58 364.139 -146.08 384.289 -9.92969 c 2
 403.999 124.92 l 1
 358.929 41.5703 293.289 0 227.999 0 c 0
 129.359 -0 73.8594 82.71 73.6396 196.5 c 0
 73.4297 336.71 137.93 527.64 334.21 527.64 c 0
334.419 520.501 m 0
 143.419 520.501 81.6289 333.351 81.8486 196.711 c 0
 82.0586 86.9209 133.988 7.57129 228.208 7.57129 c 0
 297.418 7.57129 360.278 53.501 406.278 139.931 c 1
 457.418 483.431 l 1
 424.068 506.141 383.639 520.501 334.419 520.501 c 0
EndSplineSet
Substitution2: "'smcp' Lowercase to Small Capitals lookup 24 subtable" g.sc
Substitution2: "'aalt' Access All Alternates lookup 0 subtable" g.sc
EndChar

StartChar: h
Encoding: 104 104 173
Width: 580
GlyphClass: 2
Flags: MW
HStem: 0 21G 520.5 7.14 711.93 20G
VStem: 473.17 8.00999
AnchorPoint: "Anchor-11" 250 0 basechar 0
AnchorPoint: "Anchor-10" 0 0 basechar 0
AnchorPoint: "Anchor-9" 330 729 basechar 0
AnchorPoint: "Anchor-8" 0 0 basechar 0
LayerCount: 2
Fore
SplineSet
366.07 527.64 m 0
 459.07 527.64 491.78 467.858 478.351 368.219 c 2
 426.351 -0.000976562 l 1
 418.351 -0.000976562 l 1
 470.351 367.789 l 2
 483.351 464.719 453.351 520.499 365.421 520.499 c 0
 279.421 520.499 208.851 460.929 140.211 324.929 c 1
 94.6406 -0.000976562 l 1
 86.6406 -0.000976562 l 1
 189.07 730.859 l 1
 197.07 731.93 l 1
 142.71 342.069 l 1
 208.28 472.569 281.351 527.64 366.07 527.64 c 0
EndSplineSet
Substitution2: "'smcp' Lowercase to Small Capitals lookup 24 subtable" h.sc
Substitution2: "'aalt' Access All Alternates lookup 0 subtable" h.sc
EndChar

StartChar: i
Encoding: 105 105 176
Width: 254
GlyphClass: 2
Flags: MW
HStem: 0 21G<86.6396 94.6396 86.6396 86.6396> 497.64 20G 691.21 20.14
VStem: 178 20.35
AnchorPoint: "Anchor-11" 0 0 basechar 0
AnchorPoint: "Anchor-10" 0 0 basechar 0
AnchorPoint: "Anchor-9" 163 518 basechar 0
AnchorPoint: "Anchor-8" 105 0 basechar 0
LayerCount: 2
Fore
SplineSet
188.5 711.35 m 0
 195.5 711.35 198.78 706.42 198.351 700.85 c 0
 197.921 695.71 194.421 691.21 187.851 691.21 c 0
 181.07 691.21 177.57 696.14 178 701.71 c 0
 178.43 706.85 182.14 711.35 188.5 711.35 c 0
94.6396 -0 m 1
 86.6396 -0 l 1
 159.069 517.64 l 1
 167.069 517.64 l 1
 94.6396 -0 l 1
EndSplineSet
Substitution2: "'smcp' Lowercase to Small Capitals lookup 24 subtable" i.sc
Substitution2: "'locl' Localized Forms in Latin lookup 10 subtable" i.loclTRK
Substitution2: "'locl' Localized Forms in Latin lookup 8 subtable" i.loclTRK
Substitution2: "'locl' Localized Forms in Latin lookup 6 subtable" i.loclTRK
Substitution2: "'locl' Localized Forms in Latin lookup 3 subtable" i.loclTRK
Substitution2: "'locl' Localized Forms in Latin lookup 2 subtable" i.loclTRK
AlternateSubs2: "'aalt' Access All Alternates lookup 1 subtable" i.loclTRK i.sc
EndChar

StartChar: k
Encoding: 107 107 191
Width: 508
GlyphClass: 2
Flags: MW
HStem: 0 21G<86.6396 94.6396 86.6396 86.6396> 507.64 20G 711.71 20G
VStem: 464.71 8.22
AnchorPoint: "Anchor-11" 231 0 basechar 0
AnchorPoint: "Anchor-10" 0 0 basechar 0
AnchorPoint: "Anchor-9" 0 0 basechar 0
AnchorPoint: "Anchor-8" 0 0 basechar 0
LayerCount: 2
Fore
SplineSet
139.39 319.81 m 1
 201.939 457.069 282.9 527.641 363.851 527.641 c 0
 434.001 527.641 472.931 487.291 472.931 424.001 c 0
 472.931 335.651 400.86 279.722 285.86 242.151 c 1
 411.931 0.000976562 l 1
 403.28 0.000976562 l 1
 275.351 245.721 l 1
 393.78 284.001 464.71 336.721 464.71 423.791 c 0
 464.71 481.791 431.71 520.721 363.43 520.721 c 0
 278.939 520.721 199.68 440.721 136.58 300.69 c 1
 94.6396 0 l 1
 86.6396 0 l 1
 189.069 730.86 l 1
 197.069 731.71 l 1
 139.39 319.81 l 1
EndSplineSet
Substitution2: "'smcp' Lowercase to Small Capitals lookup 24 subtable" k.sc
Substitution2: "'aalt' Access All Alternates lookup 0 subtable" k.sc
EndChar
StartChar: l
Encoding: 108 108 511
Width: 275
GlyphClass: 2
Flags: MW
HStem: -9 7<127 154 127 154> 712 20G<192 192>
VStem: 91 8<67 67>
AnchorPoint: "Anchor-14" 273 375 basechar 0
AnchorPoint: "Anchor-13" 237 729 basechar 0
AnchorPoint: "Anchor-12" 188 731 basechar 0
AnchorPoint: "Anchor-11" 0 0 basechar 0
AnchorPoint: "Anchor-10" 140 0 basechar 0
LayerCount: 2
Back
Fore
SplineSet
192 732 m 1
 99 67 l 2
 93 25 107 -2 147 -2 c 0
 161 -2 176 2 189 6 c 1
 190 -1 l 1
 177 -6 161 -9 147 -9 c 0
 103 -9 85 19 91 67 c 2
 184 731 l 1
 192 732 l 1
EndSplineSet
Substitution2: "'smcp' Lowercase to Small Capitals lookup 28 subtable" l.sc
Substitution2: "'sups' Superscript lookup 15 subtable" uni02E1
AlternateSubs2: "'aalt' Access All Alternates lookup 1 subtable" uni02E1 l.sc
EndChar

StartChar: n
Encoding: 110 110 201
Width: 580
GlyphClass: 2
Flags: MW
HStem: 0 21G<86.6406 94.6406 86.6406 86.6406 418.351 426.351 418.351 418.351> 497.64 20G 520.5 7.14
VStem: 473.17 8.00999
AnchorPoint: "Anchor-11" 254 0 basechar 0
AnchorPoint: "Anchor-10" 0 0 basechar 0
AnchorPoint: "Anchor-9" 328 518 basechar 0
AnchorPoint: "Anchor-8" 0 0 basechar 0
LayerCount: 2
Fore
SplineSet
366.07 527.64 m 0
 459.07 527.64 491.78 467.86 478.351 368.21 c 2
 426.351 0 l 1
 418.351 0 l 1
 470.351 367.78 l 2
 483.351 464.71 453.351 520.5 365.421 520.5 c 0xb0
 279.851 520.5 208.851 460.93 140.211 324.93 c 1
 94.6406 0 l 1
 86.6406 -0 l 1
 159.07 517.64 l 1
 166 517.64 l 1xd0
 142.5 341.859 l 1
 208.28 472.359 281.351 527.64 366.07 527.64 c 0
EndSplineSet
Substitution2: "'smcp' Lowercase to Small Capitals lookup 24 subtable" n.sc
Substitution2: "'aalt' Access All Alternates lookup 0 subtable" n.sc
EndChar

StartChar: q
Encoding: 113 113 222
Width: 551
GlyphClass: 2
Flags: MW
HStem: -191.93 21G -9.22 7.57001 520.5 7.14
VStem: 72.07 8.22
LayerCount: 2
Fore
SplineSet
334.21 527.64 m 0
 388.93 527.64 429.93 511 465.43 487.21 c 1
 366.93 -190.29 l 1
 358.569 -191.93 l 1
 403.069 112 l 1
 357.999 31 292.289 -9.21973 226.999 -9.21973 c 0
 128.359 -9.21973 72.0693 70.5 72.0693 185.14 c 0
 72.0693 327.29 137.93 527.64 334.21 527.64 c 0
334.43 520.5 m 0
 143.43 520.5 80.2881 323.5 80.2881 185.35 c 0
 80.2881 74.71 132.998 -1.65039 227.218 -1.65039 c 0
 292.498 -1.65039 357.568 39 405.139 127.43 c 1
 457.209 483.43 l 1
 423.859 506.14 383.64 520.5 334.43 520.5 c 0
EndSplineSet
Substitution2: "'smcp' Lowercase to Small Capitals lookup 24 subtable" q.sc
Substitution2: "'aalt' Access All Alternates lookup 0 subtable" q.sc
EndChar

StartChar: r
Encoding: 114 114 223
Width: 361
GlyphClass: 2
Flags: MW
HStem: 0 21G 497.64 20G 520.28 7.36
VStem: 86.64 288.71
AnchorPoint: "Anchor-11" 90 0 basechar 0
AnchorPoint: "Anchor-10" 0 0 basechar 0
AnchorPoint: "Anchor-9" 266 518 basechar 0
AnchorPoint: "Anchor-8" 0 0 basechar 0
LayerCount: 2
Fore
SplineSet
328.93 527.64 m 0
 347.35 527.64 363 524.429 375.35 520.639 c 1
 372.85 513.499 l 1
 360.64 517.499 344.42 520.279 328.92 520.279 c 0xb0
 247.29 520.279 192.57 473.209 142.78 341.499 c 1
 94.6406 -0.000976562 l 1
 86.6406 -0.000976562 l 1
 159.07 517.639 l 1
 166.21 517.639 l 1xd0
 144.64 361.289 l 1
 190.5 482.569 246.72 527.64 328.93 527.64 c 0
EndSplineSet
Substitution2: "'smcp' Lowercase to Small Capitals lookup 24 subtable" r.sc
Substitution2: "'aalt' Access All Alternates lookup 0 subtable" r.sc
EndChar

StartChar: s
Encoding: 115 115 227
Width: 458
GlyphClass: 2
Flags: MW
HStem: -9.21001 7.57001 520.07 7.57001
VStem: 94.28 8.22 365.78 8.22
AnchorPoint: "Anchor-11" 193 0 basechar 0
AnchorPoint: "Anchor-10" 0 0 basechar 0
AnchorPoint: "Anchor-9" 269 518 basechar 0
AnchorPoint: "Anchor-8" 0 0 basechar 0
LayerCount: 2
Fore
SplineSet
258.78 527.64 m 0
 322.71 527.64 366.568 509.858 404.068 475.219 c 1
 398.208 469.929 l 1
 361.778 503.499 320.849 520.069 258.778 520.069 c 0
 173.429 520.069 102.499 474.789 102.499 398.999 c 0
 102.499 344.719 131.779 312.719 235.279 279.568 c 0
 337.35 246.568 374 211.219 374 140.999 c 0
 374 49.2891 299.78 -9.21094 193.21 -9.21094 c 0
 111.78 -9.21094 65.2803 18.999 26.6406 56.7891 c 1
 31.4902 62.8594 l 1
 70.3506 25.0693 114.131 -1.64062 192.781 -1.64062 c 0
 288.281 -1.64062 365.781 47.709 365.781 140.779 c 0
 365.781 207.209 331.921 239.859 231.711 272.64 c 0
 126.641 306.64 94.2803 340.569 94.2803 398.999 c 0
 94.2803 477.569 168.641 527.64 258.78 527.64 c 0
EndSplineSet
Substitution2: "'smcp' Lowercase to Small Capitals lookup 24 subtable" s.sc
Substitution2: "'aalt' Access All Alternates lookup 0 subtable" s.sc
EndChar

StartChar: t
Encoding: 116 116 234
Width: 323
GlyphClass: 2
Flags: MW
HStem: -9.22 7.36 510.28 7.36
VStem: 93.38 7.97
AnchorPoint: "Anchor-11" 191 0 basechar 0
AnchorPoint: "Anchor-10" 0 0 basechar 0
AnchorPoint: "Anchor-9" 0 0 basechar 0
AnchorPoint: "Anchor-8" 0 0 basechar 0
LayerCount: 2
Fore
SplineSet
103.5 114.5 m 2
 92.9297 40.4297 121.784 -1.85938 184.924 -1.85938 c 0
 223.644 -1.85938 253.073 10.1406 281.073 25.9307 c 1
 284.423 19.2109 l 1
 256.353 3.57129 225.282 -9.21875 184.282 -9.21875 c 0
 118.433 -9.21875 84.2822 34.3516 95.502 114.071 c 2
 150.672 510.281 l 1
 64.0723 510.281 l 1
 64.9219 517.642 l 1
 151.731 517.642 l 1
 172.001 650.781 l 1
 178.501 651.421 l 1
 159.811 517.641 l 1
 304.851 517.641 l 1
 303.141 510.28 l 1
 158.78 510.28 l 1
 103.5 114.5 l 2
EndSplineSet
Substitution2: "'smcp' Lowercase to Small Capitals lookup 24 subtable" t.sc
Substitution2: "'aalt' Access All Alternates lookup 0 subtable" t.sc
EndChar

StartChar: u
Encoding: 117 117 239
Width: 575
GlyphClass: 2
Flags: MW
HStem: -9.22 7.57001 -0.00999451 21G 497.64 20G
VStem: 100.29 8.00999
AnchorPoint: "Anchor-11" 0 0 basechar 0
AnchorPoint: "Anchor-10" 0 0 basechar 0
AnchorPoint: "Anchor-9" 324 518 basechar 0
AnchorPoint: "Anchor-8" 426 0 basechar 0
LayerCount: 2
Fore
SplineSet
416.36 0 m 1
 409.851 -0.0107422 l 1x70
 432.95 166.079 l 1
 384.601 54.6094 308.99 -9.2207 221.641 -9.2207 c 0
 134.641 -9.2207 88.6406 46.209 102.851 149.989 c 2
 154.07 517.64 l 1
 162.07 517.64 l 1
 110.851 149.989 l 2
 97.0703 50.1396 140.141 -1.65039 222.28 -1.65039 c 0xb0
 309.59 -1.65039 383.83 65.0801 433.99 181.04 c 1
 480.78 517.64 l 1
 488.78 517.64 l 1
 416.36 0 l 1
EndSplineSet
Substitution2: "'smcp' Lowercase to Small Capitals lookup 24 subtable" u.sc
Substitution2: "'aalt' Access All Alternates lookup 0 subtable" u.sc
EndChar
StartChar: v
Encoding: 118 118 686
Width: 439
GlyphClass: 2
Flags: MW
HStem: 0 7<189 189 189 193 183 189> 498 20G<64 73 73 73 438 447 447 447>
VStem: 64 383<518 518>
AnchorPoint: "Anchor-14" 0 0 basechar 0
AnchorPoint: "Anchor-13" 0 0 basechar 0
AnchorPoint: "Anchor-12" 256 518 basechar 0
AnchorPoint: "Anchor-11" 0 0 basechar 0
AnchorPoint: "Anchor-10" 188 0 basechar 0
LayerCount: 2
Back
Fore
SplineSet
447 518 m 1
 193 0 l 1
 183 0 l 1
 64 518 l 1
 73 518 l 1
 189 7 l 1
 438 518 l 1
 447 518 l 1
EndSplineSet
Substitution2: "'smcp' Lowercase to Small Capitals lookup 28 subtable" v.sc
Substitution2: "'aalt' Access All Alternates lookup 0 subtable" v.sc
EndChar

StartChar: w
Encoding: 119 119 251
Width: 674
GlyphClass: 2
Flags: MW
HStem: 0 7.78999 508.85 8.78999
VStem: 74.06 598.65
AnchorPoint: "Anchor-11" 0 0 basechar 0
AnchorPoint: "Anchor-10" 0 0 basechar 0
AnchorPoint: "Anchor-9" 374 518 basechar 0
AnchorPoint: "Anchor-8" 0 0 basechar 0
LayerCount: 2
Fore
SplineSet
460.78 0 m 1
 450.851 -0 l 1
 372.851 508.85 l 1
 152.351 0 l 1
 141.99 -0 l 1
 74.0605 517.64 l 1
 82.0605 517.64 l 1
 148.131 7.79004 l 1
 368.851 517.64 l 1
 378.561 517.64 l 1
 456.561 7.56934 l 1
 664.49 517.64 l 1
 672.71 517.64 l 1
 460.78 0 l 1
EndSplineSet
Substitution2: "'smcp' Lowercase to Small Capitals lookup 24 subtable" w.sc
Substitution2: "'aalt' Access All Alternates lookup 0 subtable" w.sc
EndChar

StartChar: x
Encoding: 120 120 256
Width: 427
GlyphClass: 2
Flags: MW
HStem: -0.00999451 21G 497.64 20G
VStem: -13.35 426.92
LayerCount: 2
Fore
SplineSet
219.36 277.78 m 1
 367.71 -0.00878906 l 1
 358.86 -0.00878906 l 1
 213.86 272.921 l 1
 -4.2793 -0.00878906 l 1
 -13.3496 -0.00878906 l 1
 209.86 278.421 l 1
 85.6504 517.641 l 1
 94.29 517.641 l 1
 215.15 283.28 l 1
 404.5 517.641 l 1
 413.57 517.641 l 1
 219.36 277.78 l 1
EndSplineSet
Substitution2: "'smcp' Lowercase to Small Capitals lookup 24 subtable" x.sc
Substitution2: "'aalt' Access All Alternates lookup 0 subtable" x.sc
EndChar

StartChar: z
Encoding: 122 122 262
Width: 410
GlyphClass: 2
Flags: MW
HStem: 0 7.57001 510.07 7.57001
VStem: -1.97 11.47 395.71 11.14
AnchorPoint: "Anchor-11" 0 0 basechar 0
AnchorPoint: "Anchor-10" 0 0 basechar 0
AnchorPoint: "Anchor-9" 251 518 basechar 0
AnchorPoint: "Anchor-8" 0 0 basechar 0
LayerCount: 2
Fore
SplineSet
406.43 510.71 m 1
 9.5 7.57031 l 1
 325.78 7.57031 l 1
 324.28 0 l 1
 -2.5 -0 l 1
 -1.42969 6.92969 l 1
 395.71 510.069 l 1
 99 510.069 l 1
 99.8496 517.64 l 1
 407.279 517.64 l 1
 406.43 510.71 l 1
EndSplineSet
Substitution2: "'smcp' Lowercase to Small Capitals lookup 24 subtable" z.sc
Substitution2: "'aalt' Access All Alternates lookup 0 subtable" z.sc
EndChar
StartChar: braceleft
Encoding: 123 123 2146
Width: 327
Flags: MW
HStem: 345 8<85 106>
VStem: 84 9 110 7<-16 -15> 150 7<267 270>
LayerCount: 2
Back
Fore
SplineSet
312 811 m 1
 312 805 l 1
 261 805 229 778 220 712 c 2
 181 431 l 2
 173 378 143 351 93 349 c 1xf0
 141 347 164 320 157 267 c 2
 117 -15 l 2
 108 -80 132 -107 183 -107 c 1
 183 -113 l 1
 131 -113 101 -86 110 -16 c 2xb0
 150 270 l 2
 158 322 129 345 83 345 c 1
 85 353 l 1
 130 353 165 377 173 429 c 2xf0
 213 715 l 2
 222 784 259 811 312 811 c 1
EndSplineSet
Substitution2: "'case' Case-Sensitive Forms lookup 29 subtable" braceleft.case
Substitution2: "'aalt' Access All Alternates lookup 0 subtable" braceleft.case
EndChar
StartChar: bar
Encoding: 124 124 2376
Width: 418
GlyphClass: 2
Flags: MW
HStem: -97 897<156 289 156 289>
VStem: 156 133
LayerCount: 2
Back
Fore
SplineSet
289 800 m 1
 164 -97 l 1
 156 -97 l 1
 281 800 l 1
 289 800 l 1
EndSplineSet
EndChar

StartChar: braceright
Encoding: 125 125 1006
Width: 326
Flags: MW
HStem: 345.21 7.57001
VStem: 234.43 7.36 258.21 9.36
LayerCount: 2
Fore
SplineSet
39.7803 -106.5 m 1
 91.1299 -106.5 122.639 -79.6504 131.639 -14.3604 c 2
 170.999 267.14 l 2
 178.429 319.779 209.139 346.85 258.209 349 c 1
 210.999 351.14 187.209 378.21 194.859 431.28 c 2xe0
 234.43 712.78 l 2
 243.21 778.07 220.14 804.5 168.79 804.5 c 1
 169 811 l 1
 220.79 811 251 783.5 241.79 714.21 c 2
 201.79 428.28 l 2xc0
 194 376.07 222.43 352.78 268.29 352.78 c 1
 266.86 345.21 l 1
 221.431 345.21 186.57 321.5 178.57 269.28 c 2xe0
 138.79 -16.6494 l 2
 129.36 -85.9297 92.21 -113 39.5703 -113 c 1
 39.7803 -106.5 l 1
EndSplineSet
Substitution2: "'case' Case-Sensitive Forms lookup 25 subtable" braceright.case
Substitution2: "'aalt' Access All Alternates lookup 0 subtable" braceright.case
EndChar
StartChar: asciitilde
Encoding: 126 126 2247
Width: 455
GlyphClass: 2
Flags: MW
HStem: 288 8<282 321.5 282 322.5> 343 8<151.5 192>
VStem: 88 297<303 335>
LayerCount: 2
Back
Fore
SplineSet
305 288 m 0
 256 288 216 343 168 343 c 0
 135 343 112 322 93 299 c 1
 88 303 l 1
 107 328 133 351 168 351 c 0
 220 351 259 296 305 296 c 0
 338 296 360 316 379 339 c 1
 385 335 l 1
 366 310 340 288 305 288 c 0
EndSplineSet
Substitution2: "'onum' Oldstyle Figures lookup 26 subtable" asciitilde.osf
Substitution2: "'tnum' Tabular Numbers lookup 25 subtable" asciitilde.tf
AlternateSubs2: "'aalt' Access All Alternates lookup 1 subtable" asciitilde.tf asciitilde.osf
EndChar
StartChar: exclamdown
Encoding: 161 161 2127
Width: 235
Flags: MW
HStem: -189 21G<52 60 52 52> 419 23<140.5 146.5>
VStem: 132 24<427.5 433.5>
LayerCount: 2
Back
Fore
SplineSet
144 442 m 0
 151 442 156 437 156 431 c 0
 156 424 150 419 143 419 c 0
 136 419 132 424 132 430 c 0
 132 437 137 442 144 442 c 0
123 253 m 1
 60 -189 l 1
 52 -189 l 1
 115 253 l 1
 123 253 l 1
EndSplineSet
Substitution2: "'case' Case-Sensitive Forms lookup 29 subtable" exclamdown.case
Substitution2: "'aalt' Access All Alternates lookup 0 subtable" exclamdown.case
EndChar

StartChar: cent
Encoding: 162 162 1062
Width: 467
Flags: MW
HStem: -9.21001 7.57001 -8.73 7.09 520.29 7.36
VStem: 74.02 8.13
LayerCount: 2
Fore
SplineSet
319.21 527.64 m 0xb0
 372.64 527.64 411.49 510.858 443.351 477.648 c 1
 437.7 472.578 l 1
 407.351 504.508 369.99 520.288 319.42 520.288 c 0
 186.21 520.288 103.28 401.508 85.21 243.578 c 0
 66.3496 85.8584 135.21 -1.6416 244.06 -1.6416 c 0
 301.779 -1.6416 343.989 18.9287 382.779 49.2891 c 1
 386.989 43.7891 l 1
 348.14 12.3594 304.42 -9.21094 244.49 -9.21094 c 0
 242.16 -9.21094 239.851 -9.18066 237.561 -9.10059 c 1xb0
 218.561 -144.641 l 1
 211.211 -144.641 l 1
 230.081 -8.73047 l 1x70
 123.781 -1.40039 58.9414 87.9795 77.001 243.569 c 0
 95.4209 402.14 176.311 522.04 309.74 527.45 c 1
 329.78 673.07 l 1
 336.931 673.07 l 1
 316.911 527.63 l 2
 317.671 527.63 318.44 527.64 319.21 527.64 c 0xb0
EndSplineSet
Substitution2: "'onum' Oldstyle Figures lookup 22 subtable" cent.osf
Substitution2: "'tnum' Tabular Numbers lookup 21 subtable" cent.tf
AlternateSubs2: "'aalt' Access All Alternates lookup 1 subtable" cent.tf cent.osf
EndChar

StartChar: sterling
Encoding: 163 163 1067
Width: 495
Flags: MW
HStem: 0 7.78 350.78 7.57001 663.27 7.58
VStem: 31.96 14.11
LayerCount: 2
Fore
SplineSet
353.28 670.85 m 0
 412.78 670.85 452.207 648.421 480.707 607.921 c 1
 474.427 603.491 l 1
 447.776 641.701 411.066 663.271 353.276 663.271 c 0
 258.427 663.271 203.497 594.201 190.707 505.352 c 2
 170.157 358.352 l 1
 381.277 358.352 l 1
 380.428 350.781 l 1
 169.328 350.781 l 1
 137.568 123.352 l 2
 128.358 57.1318 100.998 29.4219 46.0684 7.77148 c 1
 391.068 7.77148 l 1
 389.139 -0.00878906 l 1
 31.6387 -0.00878906 l 1
 32.2891 7.56152 l 1
 91.5693 30.4912 120.569 57.6309 129.569 123.351 c 2
 161.399 350.78 l 1
 102.569 350.78 l 1
 103.43 358.351 l 1
 162.239 358.351 l 1
 182.93 505.99 l 2
 195.93 598.21 253 670.85 353.28 670.85 c 0
EndSplineSet
Substitution2: "'onum' Oldstyle Figures lookup 22 subtable" sterling.osf
Substitution2: "'tnum' Tabular Numbers lookup 21 subtable" sterling.tf
AlternateSubs2: "'aalt' Access All Alternates lookup 1 subtable" sterling.tf sterling.osf
EndChar

StartChar: currency
Encoding: 164 164 1063
Width: 560
Flags: MW
HStem: 167.21 7.36 505.64 7.35001
VStem: 112.07 7.98 438.77 8.00999
LayerCount: 2
Fore
SplineSet
469.28 130.28 m 1
 390.14 207.697 l 1
 361.149 182.178 322.81 167.208 279.42 167.208 c 0
 236.4 167.208 198.29 181.988 169.35 207.208 c 1
 90.71 130.278 l 1
 84.8496 135.349 l 1
 163.64 212.429 l 1
 131.479 243.329 112.069 287.909 112.069 339.419 c 0
 112.069 388.859 129.97 432.64 160.21 463.87 c 1
 84.8496 541.28 l 1
 90.71 546.351 l 1
 165.729 469.291 l 1
 194.89 496.631 234.229 512.991 279.42 512.991 c 0
 325.63 512.991 365.1 496.571 394.09 469.131 c 1
 469.28 546.351 l 1
 475.141 541.28 l 1
 399.57 463.681 l 1
 429.46 432.471 446.78 388.761 446.78 339.431 c 0
 446.78 288.211 427.641 243.831 395.841 212.961 c 1
 475.141 135.351 l 1
 469.28 130.28 l 1
279.409 174.567 m 0
 371.339 174.567 438.769 242.348 438.769 339.208 c 0
 438.769 433.348 376.059 505.638 279.408 505.638 c 0
 184.769 505.638 120.049 434.138 120.049 339.208 c 0
 120.049 242.138 188.699 174.567 279.409 174.567 c 0
EndSplineSet
Substitution2: "'onum' Oldstyle Figures lookup 22 subtable" currency.osf
Substitution2: "'tnum' Tabular Numbers lookup 21 subtable" currency.tf
AlternateSubs2: "'aalt' Access All Alternates lookup 1 subtable" currency.tf currency.osf
EndChar
StartChar: yen
Encoding: 165 165 2214
Width: 474
GlyphClass: 2
Flags: MW
HStem: 0 21G<197 206 197 197> 179 8<94 222 93 223 232 362 94 230> 314 8<113 239 113 241 112 239 253 382>
VStem: 80 426<660 660>
LayerCount: 2
Back
Fore
SplineSet
506 660 m 1
 253 322 l 1
 382 322 l 1
 382 314 l 1
 249 314 l 1
 232 187 l 1
 363 187 l 1
 362 179 l 1
 230 179 l 1
 206 0 l 1
 197 0 l 1
 222 179 l 1
 93 179 l 1
 94 187 l 1
 223 187 l 1
 241 314 l 1
 112 314 l 1
 113 322 l 1
 239 322 l 1
 80 660 l 1
 90 660 l 1
 246 324 l 1
 496 660 l 1
 506 660 l 1
EndSplineSet
Substitution2: "'onum' Oldstyle Figures lookup 26 subtable" yen.osf
Substitution2: "'tnum' Tabular Numbers lookup 25 subtable" yen.tf
AlternateSubs2: "'aalt' Access All Alternates lookup 1 subtable" yen.tf yen.osf
EndChar

StartChar: brokenbar
Encoding: 166 166 1219
Width: 419
Flags: MW
HStem: -97.43 897.86
VStem: 156.5 133.21
LayerCount: 2
Fore
SplineSet
238.93 443 m 1
 230.93 443 l 1
 281.71 800.43 l 1
 289.71 800.43 l 1
 238.93 443 l 1
164.5 -97.4297 m 1
 156.5 -97.4297 l 1
 205.71 262 l 1
 213.71 262 l 1
 164.5 -97.4297 l 1
EndSplineSet
EndChar

StartChar: section
Encoding: 167 167 1225
Width: 531
Flags: MW
HStem: -60.51 7.57001 663.28 7.36
VStem: 113.78 8.21001 171.99 8.00999 366.21 8.21001 421.42 8
LayerCount: 2
Fore
SplineSet
328.36 663.28 m 0
 226.79 663.28 180.001 600.212 180.001 543.562 c 0
 180.001 496.781 210.351 462.062 305.501 427.281 c 0
 394.571 395.281 429.421 356.631 429.421 297.201 c 0
 429.421 238.741 401.551 196.131 324.621 154.841 c 1
 360.641 130.721 374.421 102.23 374.421 66.4209 c 0
 374.421 6.71094 326.281 -60.5088 217.491 -60.5088 c 0
 157.991 -60.5088 111.852 -46.6484 72.1318 -18.6484 c 1
 76.7822 -11.9385 l 1
 113.632 -39.9385 160.562 -52.9385 217.491 -52.9385 c 0
 328.711 -52.9385 366.211 16.4912 366.211 66.4209 c 0
 366.211 117.351 336.641 152.421 244.57 183.851 c 0
 154.5 215.28 113.78 251.351 113.78 310.211 c 0
 113.78 363.821 138.86 404.231 227.601 455.281 c 1
 186.87 481.091 171.99 509.491 171.99 543.781 c 0
 171.99 608.711 229.351 670.641 328.561 670.641 c 0
 385.921 670.641 424.141 656.351 464.141 629.57 c 1
 459.28 623.07 l 1
 420.28 650.07 382.931 663.28 328.36 663.28 c 0
421.422 297.212 m 0
 421.422 351.352 389.992 388.344 302.992 420.344 c 0
 274.802 430.443 252.032 440.724 233.893 451.424 c 1
 144.572 399.834 121.992 362.084 121.992 310.204 c 0
 121.992 256.424 158.853 221.634 248.492 189.563 c 0
 277.372 180.033 300.402 169.883 318.442 158.803 c 1
 399.702 202.103 421.422 245.442 421.422 297.212 c 0
EndSplineSet
Substitution2: "'onum' Oldstyle Figures lookup 22 subtable" section.osf
Substitution2: "'tnum' Tabular Numbers lookup 21 subtable" section.tf
AlternateSubs2: "'aalt' Access All Alternates lookup 1 subtable" section.tf section.osf
EndChar

StartChar: dieresis
Encoding: 168 168 1257
Width: 235
Flags: MW
HStem: 677.07 20.14
VStem: 90.21 20.35 244.14 20.36
AnchorPoint: "Anchor-12" 169 614 basemark 0
LayerCount: 2
Fore
SplineSet
100.71 697.21 m 0
 107.49 697.21 110.991 692.28 110.562 686.71 c 0
 110.132 681.57 106.422 677.07 100.062 677.07 c 0
 93.4912 677.07 89.7812 682 90.2109 687.57 c 0
 90.6406 692.71 94.5703 697.21 100.71 697.21 c 0
254.851 697.21 m 0
 261.421 697.21 264.931 692.28 264.501 686.71 c 0
 264.071 681.57 260.352 677.07 254.212 677.07 c 0
 247.422 677.07 243.712 682 244.142 687.57 c 0
 244.571 692.71 248.501 697.21 254.851 697.21 c 0
EndSplineSet
Substitution2: "'case' Case-Sensitive Forms lookup 25 subtable" dieresis.case
Substitution2: "'smcp' Lowercase to Small Capitals lookup 24 subtable" dieresis.sc
Substitution2: "'c2sc' Capitals to Small Capitals lookup 23 subtable" dieresis.sc
AlternateSubs2: "'aalt' Access All Alternates lookup 1 subtable" dieresis.sc dieresis.case
EndChar

StartChar: copyright
Encoding: 169 169 1223
Width: 810
Flags: MW
HStem: 155.78 7.57001 269.06 7.58 595.7 7.57001 706.64 7.57001
VStem: 134.57 8.21001 275.5 8.21001 667.21 8.22
LayerCount: 2
Fore
SplineSet
405 714.21 m 0
 560.71 714.21 675.43 599.931 675.43 435.001 c 0
 675.43 272.851 560.71 155.78 405 155.78 c 0
 249.28 155.78 134.57 270.07 134.57 435 c 0
 134.57 597.14 249.28 714.21 405 714.21 c 0
405.21 706.641 m 0
 252.71 706.641 142.78 593.921 142.78 434.991 c 0
 142.78 273.062 252.71 163.352 405.21 163.352 c 0
 557.28 163.352 667.21 276.062 667.21 434.991 c 0
 667.21 596.921 557.28 706.641 405.21 706.641 c 0
406 603.28 m 0
 440.86 603.28 464.49 591.48 483.21 576.41 c 1
 479.21 570.34 l 1
 461.35 584.56 440 595.699 406 595.699 c 0
 353.57 595.699 283.71 551.35 283.71 436.989 c 0
 283.71 334.64 336.78 276.64 406.21 276.64 c 0
 446 276.64 470.57 290.42 490 306.21 c 1
 493.78 299.92 l 1
 474.71 283.49 446.64 269.061 406 269.061 c 0
 332.28 269.061 275.5 333.351 275.5 436.99 c 0
 275.5 554.641 349.5 603.28 406 603.28 c 0
EndSplineSet
EndChar

StartChar: ordfeminine
Encoding: 170 170 415
Width: 500
GlyphClass: 2
Flags: MW
HStem: 0 7.78 277.57 7.56 506.49 7.58 672.85 7.57001
VStem: 113.5 8.21001 368.86 8.78 398.64 8
LayerCount: 2
Fore
SplineSet
303.35 680.43 m 0
 377.5 680.43 406.638 648.631 406.638 592.351 c 0
 406.638 583.351 405.638 573.561 404.638 563.561 c 2xfa
 377.638 367.78 l 2
 371.857 327.71 366.138 295.85 406.138 283.64 c 1
 403.638 277.569 l 1
 362.638 289.14 364.928 321.779 368.857 358.499 c 1xfe
 332.638 305.849 286.638 277.568 221.208 277.568 c 0
 151.358 277.568 113.498 317.849 113.498 374.919 c 0
 113.498 463.069 185.568 514.069 292.358 514.069 c 2
 389.858 514.069 l 1
 396.639 563.35 l 2
 397.639 573.35 398.639 582.14 398.639 591.71 c 0
 398.639 642.42 374.858 672.85 303.358 672.85 c 0
 267.139 672.85 228.358 664.64 183.429 648.279 c 1
 181.929 655.43 l 1
 226.499 672 265.279 680.43 303.35 680.43 c 0
293.208 506.491 m 2
 184.208 506.491 121.709 455.421 121.709 374.921 c 0
 121.709 321.851 156.849 285.131 221.209 285.131 c 0
 290.059 285.131 333.919 316.921 370.059 370.991 c 1
 388.988 506.491 l 1
 293.208 506.491 l 2
56.9189 7.77148 m 1
 371.349 7.77148 l 1
 369.709 -0.00878906 l 1
 55.2793 -0.00878906 l 1
 56.9189 7.77148 l 1
EndSplineSet
EndChar
StartChar: guillemotleft
Encoding: 171 171 2177
Width: 523
Flags: MW
HStem: 80 417<260 317 317 354>
VStem: 142.5 9.5 237 9<288 288 288 291 288 291>
LayerCount: 2
Back
Fore
SplineSet
317 497 m 1
 323 493 l 1
 152 288 l 1
 266 84 l 1
 260 80 l 1
 142 285 l 1
 143 291 l 1
 317 497 l 1
411 497 m 1
 417 493 l 1
 246 288 l 1
 361 84 l 1
 354 80 l 1
 237 285 l 1
 237 291 l 1
 411 497 l 1
EndSplineSet
Substitution2: "'case' Case-Sensitive Forms lookup 29 subtable" guillemotleft.case
Substitution2: "'aalt' Access All Alternates lookup 0 subtable" guillemotleft.case
EndChar
StartChar: logicalnot
Encoding: 172 172 2263
Width: 490
GlyphClass: 2
Flags: MW
HStem: 317 7<93 407 91 417>
VStem: 91 326<317 324>
LayerCount: 2
Back
Fore
SplineSet
417 324 m 1
 401 210 l 1
 392 210 l 1
 407 317 l 1
 91 317 l 1
 93 324 l 1
 417 324 l 1
EndSplineSet
Substitution2: "'onum' Oldstyle Figures lookup 26 subtable" logicalnot.osf
Substitution2: "'tnum' Tabular Numbers lookup 25 subtable" logicalnot.tf
AlternateSubs2: "'aalt' Access All Alternates lookup 1 subtable" logicalnot.tf logicalnot.osf
EndChar

StartChar: softhyphen
Encoding: 173 173 1028
Width: 400
Flags: MW
HStem: 308.43 7.57001
VStem: 90.21 234.93
LayerCount: 2
Fore
SplineSet
91.0703 316 m 1
 325.141 316 l 1
 324.28 308.43 l 1
 90.21 308.43 l 1
 91.0703 316 l 1
EndSplineSet
Substitution2: "'case' Case-Sensitive Forms lookup 25 subtable" softhyphen.case
Substitution2: "'aalt' Access All Alternates lookup 0 subtable" softhyphen.case
EndChar
StartChar: uni00AD
Encoding: 173 173 2169
Width: 400
Flags: MW
HStem: 308 8<90 325 91 324>
VStem: 90 235<308 316>
LayerCount: 2
Back
Fore
SplineSet
90 308 m 1
 91 316 l 1
 325 316 l 1
 324 308 l 1
 90 308 l 1
EndSplineSet
Substitution2: "'case' Case-Sensitive Forms lookup 29 subtable" uni00AD.case
Substitution2: "'aalt' Access All Alternates lookup 0 subtable" uni00AD.case
EndChar
StartChar: registered
Encoding: 174 174 2382
Width: 635
GlyphClass: 2
Flags: MW
HStem: 289 7<256 382.5 256 384.5> 493 7<257 323 323 327 257 323 335 335> 631 8<257 306 306 307 257 257> 706 7<252 379>
VStem: 106 7<442 555.5 442 557.5> 249 8<371 493 500 631> 392 8<542 587.5> 522 7<446.5 560>
LayerCount: 2
Back
Fore
SplineSet
317 713 m 0
 444 713 529 622 529 503 c 0
 529 386 452 289 317 289 c 0
 191 289 106 380 106 499 c 0
 106 616 183 713 317 713 c 0
317 296 m 0
 448 296 522 390 522 503 c 0
 522 617 441 706 317 706 c 0
 187 706 113 612 113 499 c 0
 113 385 195 296 317 296 c 0
400 564 m 0
 400 519 370 498 335 493 c 1
 410 370 l 1
 400 370 l 1
 327 493 l 1
 257 493 l 1
 257 371 l 1
 249 371 l 1
 249 639 l 1
 306 639 l 2
 365 639 400 615 400 564 c 0
257 500 m 1
 323 500 l 2
 362 500 392 520 392 564 c 0
 392 611 361 631 307 631 c 2
 257 631 l 1
 257 500 l 1
EndSplineSet
EndChar
StartChar: macron
Encoding: 175 175 2526
Width: 255
Flags: MW
HStem: 688 8<91 285 90 286>
VStem: 90 196<688 696>
LayerCount: 2
Back
Fore
SplineSet
285 688 m 1
 90 688 l 1
 91 696 l 1
 286 696 l 1
 285 688 l 1
EndSplineSet
Substitution2: "'case' Case-Sensitive Forms lookup 29 subtable" macron.case
Substitution2: "'smcp' Lowercase to Small Capitals lookup 28 subtable" macron.sc
Substitution2: "'c2sc' Capitals to Small Capitals lookup 27 subtable" macron.sc
AlternateSubs2: "'aalt' Access All Alternates lookup 1 subtable" macron.sc macron.case
EndChar
StartChar: degree
Encoding: 176 176 2385
Width: 521
GlyphClass: 2
Flags: MW
HStem: 418 8<208.5 281 208.5 282.5> 683 7<245 317.5>
VStem: 133 8<555 555>
LayerCount: 2
Back
Fore
SplineSet
243 418 m 0
 170 418 122 473 133 555 c 0
 144 633 206 690 280 690 c 0
 359 690 401 633 390 553 c 0
 379 473 322 418 243 418 c 0
243 426 m 0
 319 426 372 478 382 554 c 0
 392 629 355 683 280 683 c 0
 210 683 152 629 141 554 c 0
 131 478 174 426 243 426 c 0
EndSplineSet
Substitution2: "'onum' Oldstyle Figures lookup 26 subtable" degree.osf
Substitution2: "'tnum' Tabular Numbers lookup 25 subtable" degree.tf
AlternateSubs2: "'aalt' Access All Alternates lookup 1 subtable" degree.tf degree.osf
EndChar
StartChar: plusminus
Encoding: 177 177 2275
Width: 482
GlyphClass: 2
Flags: MW
HStem: 0 8<47 363 49 361> 327 8<96 247 94 249 257 408 96 255>
VStem: 47 363<0 335>
LayerCount: 2
Back
Fore
SplineSet
278 490 m 1
 257 335 l 1
 410 335 l 1
 408 327 l 1
 255 327 l 1
 233 171 l 1
 225 171 l 1
 247 327 l 1
 94 327 l 1
 96 335 l 1
 249 335 l 1
 270 490 l 1
 278 490 l 1
47 0 m 1
 49 8 l 1
 363 8 l 1
 361 0 l 1
 47 0 l 1
EndSplineSet
Substitution2: "'onum' Oldstyle Figures lookup 26 subtable" plusminus.osf
Substitution2: "'tnum' Tabular Numbers lookup 25 subtable" plusminus.tf
AlternateSubs2: "'aalt' Access All Alternates lookup 1 subtable" plusminus.tf plusminus.osf
EndChar

StartChar: twosuperior
Encoding: 178 178 972
Width: 400
Flags: MW
HStem: 319.06 7.47 660.64 20G 727.71 7.35001
VStem: 59.04 11.04 311.36 8.22
LayerCount: 2
Fore
SplineSet
229.14 735.07 m 0
 297.43 735.07 327.579 688.561 319.579 631.271 c 0
 307.579 546.271 257.509 502.7 70.0791 326.42 c 1
 287.649 326.63 l 1
 285.499 319.06 l 1
 58.7188 319.06 l 1
 59.3584 326.63 l 1
 252.429 508.13 299.789 550.06 311.359 631.71 c 0
 319.14 685.85 291.71 727.71 228.93 727.71 c 0
 181.779 727.71 147.569 708.49 115.279 675.99 c 1
 108.999 680.641 l 1
 144.709 716.141 181.359 735.07 229.14 735.07 c 0
EndSplineSet
EndChar
StartChar: uni00B2
Encoding: 178 178 2110
Width: 400
Flags: MW
HStem: 319 7.5 661 20G<109 109> 728 7<205.5 260.5>
VStem: 59 11<326 326 326 327 326 327> 311 8<632 632>
LayerCount: 2
Back
Fore
SplineSet
229 735 m 0
 297 735 327 689 319 631 c 0
 307 546 257 503 70 326 c 1
 287 327 l 1
 285 319 l 1
 59 319 l 1
 59 327 l 1
 252 508 300 550 311 632 c 0
 319 686 292 728 229 728 c 0
 182 728 147 708 115 676 c 1
 109 681 l 1
 145 716 181 735 229 735 c 0
EndSplineSet
EndChar

StartChar: threesuperior
Encoding: 179 179 973
Width: 400
Flags: MW
HStem: 312.85 7.35001 534.06 7.14999 671.5 20G<117.211 117.211> 728.35 7.36
VStem: 299.35 7.78 315.78 7.99001
LayerCount: 2
Fore
SplineSet
231.57 735.71 m 0
 297.641 735.71 331.772 694.279 323.772 636.209 c 0xfc
 314.992 573.569 267.342 542.709 218.492 538.069 c 1
 274.992 535.279 317.132 502.209 307.132 430.499 c 0
 297.922 361.069 241.492 312.85 168.132 312.85 c 0
 117.922 312.85 86.0615 328.92 59.6318 364.49 c 1
 65.7021 368.28 l 1
 92.1318 333.13 122.132 320.2 167.922 320.2 c 0
 243.852 320.2 291.352 371.99 299.352 431.13 c 0
 308.352 499.85 270.562 534.06 200.562 534.06 c 2xf8
 177.281 534.06 l 1
 178.991 541.21 l 1
 201.711 541.21 l 2
 251.991 541.21 306.781 570.92 315.781 636.85 c 0
 323.562 691.14 292.562 728.35 231.562 728.35 c 0
 191.781 728.35 157.281 716 121.421 685.64 c 1
 117.211 691.5 l 1
 153.641 722.07 187.641 735.71 231.57 735.71 c 0
EndSplineSet
EndChar
StartChar: uni00B3
Encoding: 179 179 2111
Width: 400
Flags: MW
HStem: 313 7<145 204.5> 534 7<179 200 177 202> 671 20G<117 117> 728 8<211.5 261.5>
VStem: 299 8<431 431> 316 8<637 637>
LayerCount: 2
Back
Fore
SplineSet
231 736 m 0
 297 736 332 694 324 636 c 0xfc
 315 574 267 543 218 538 c 1
 275 535 317 502 307 430 c 0
 298 361 241 313 168 313 c 0
 118 313 86 329 59 364 c 1
 66 368 l 1
 92 333 122 320 168 320 c 0
 244 320 291 372 299 431 c 0
 308 500 270 534 200 534 c 2xf8
 177 534 l 1
 179 541 l 1
 202 541 l 2
 252 541 307 571 316 637 c 0
 323 691 292 728 231 728 c 0
 192 728 157 716 121 686 c 1
 117 691 l 1
 153 722 187 736 231 736 c 0
EndSplineSet
EndChar

StartChar: acute
Encoding: 180 180 1252
Width: 234
Flags: MW
HStem: 659.64 90.86
VStem: 87.21 183.93
LayerCount: 2
Fore
SplineSet
271.14 742.07 m 1
 88.9199 659.64 l 1
 87.21 665.71 l 1
 268.21 750.5 l 1
 271.14 742.07 l 1
EndSplineSet
Substitution2: "'case' Case-Sensitive Forms lookup 25 subtable" acute.case
Substitution2: "'smcp' Lowercase to Small Capitals lookup 24 subtable" acute.sc
Substitution2: "'c2sc' Capitals to Small Capitals lookup 23 subtable" acute.sc
Substitution2: "'locl' Localized Forms in Latin lookup 7 subtable" acute.loclPLK
AlternateSubs2: "'aalt' Access All Alternates lookup 1 subtable" acute.loclPLK acute.sc acute.case
EndChar
StartChar: uni00B5
Encoding: 181 181 2264
Width: 581
GlyphClass: 2
Flags: MW
HStem: -191 21G<60 68 60 60> -9 7<185 263 185 264> 0 21G<442 442> 498 20G<159 167 167 167 479 487 487 487>
VStem: 425.29 7.58
LayerCount: 2
Back
Fore
SplineSet
438 163 m 2
 428 97 433 47 442 0 c 1
 435 -1 l 1xb8
 426 43 422 86 428 141 c 1
 380 54 309 -9 219 -9 c 0
 148 -9 110 25 107 89 c 1
 98 28 93 -14 86 -59 c 2
 68 -191 l 1
 60 -191 l 1
 159 518 l 1
 167 518 l 1
 114 136 l 2
 99 34 151 -2 219 -2 c 0
 307 -2 379 63 428 153 c 1
 479 518 l 1
 487 518 l 1
 438 163 l 2
EndSplineSet
EndChar
StartChar: paragraph
Encoding: 182 182 2380
Width: 684
GlyphClass: 2
Flags: MW
HStem: -192 21G<275 275 429 429> 673.5 7.5
VStem: 156.56 402.44
LayerCount: 2
Back
Fore
SplineSet
398 680 m 2
 559 681 l 1
 437 -191 l 1
 429 -192 l 1
 550 674 l 1
 404 673 l 1
 283 -191 l 1
 275 -192 l 1
 345 310 l 1
 189 312 145 398 159 496 c 0
 175 613 270 680 398 680 c 2
EndSplineSet
EndChar

StartChar: periodcentered
Encoding: 183 183 982
Width: 133
Flags: MW
HStem: 316.42 23.65
VStem: 63.07 23.86
LayerCount: 2
Fore
SplineSet
75.4297 340.07 m 0
 82.4297 340.07 86.9287 335.141 86.9287 328.57 c 0
 86.9287 321.57 81.7891 316.42 74.5693 316.42 c 0
 67.7891 316.42 63.0693 321.35 63.0693 327.71 c 0
 63.0693 334.92 68.4297 340.07 75.4297 340.07 c 0
EndSplineSet
EndChar
StartChar: cedilla
Encoding: 184 184 2520
Width: 196
Flags: MW
HStem: -205 7<15.5 54.5 15.5 55.5> -87 7
VStem: 102 9<-153 -139>
LayerCount: 2
Back
Fore
SplineSet
43 -2 m 1
 28 -80 l 1
 82 -82 111 -98 111 -138 c 0
 111 -174 82 -205 29 -205 c 0
 -1 -205 -18 -198 -33 -188 c 1
 -29 -182 l 1
 -15 -192 2 -198 29 -198 c 0
 80 -198 102 -167 102 -139 c 0
 103 -102 76 -88 19 -87 c 1
 36 -2 l 1
 43 -2 l 1
EndSplineSet
Substitution2: "'case' Case-Sensitive Forms lookup 29 subtable" cedilla.case
Substitution2: "'smcp' Lowercase to Small Capitals lookup 28 subtable" cedilla.sc
Substitution2: "'c2sc' Capitals to Small Capitals lookup 27 subtable" cedilla.sc
AlternateSubs2: "'aalt' Access All Alternates lookup 1 subtable" cedilla.sc cedilla.case
EndChar

StartChar: onesuperior
Encoding: 185 185 971
Width: 400
Flags: MW
HStem: 719.42 9.08
VStem: 148.57 137.43
LayerCount: 2
Fore
SplineSet
228.78 319.07 m 1
 220.99 319.069 l 1
 277.141 719.419 l 1
 152.141 649.569 l 1
 148.57 655.85 l 1
 279.5 728.5 l 1
 286 728.5 l 1
 228.78 319.07 l 1
EndSplineSet
EndChar
StartChar: uni00B9
Encoding: 185 185 2109
Width: 400
Flags: MW
HStem: 719 9<277 286>
VStem: 149 137<656 728>
LayerCount: 2
Back
Fore
SplineSet
286 728 m 1
 229 319 l 1
 221 319 l 1
 277 719 l 1
 152 650 l 1
 149 656 l 1
 280 728 l 1
 286 728 l 1
EndSplineSet
EndChar
StartChar: ordmasculine
Encoding: 186 186 1057
Width: 500
GlyphClass: 2
Flags: MW
HStem: 0 8<56 372 58 371> 278 7<210.5 324 210.5 326> 673 7<239 350>
VStem: 114 9<385 480.5 385 482.5> 439 8<482.5 575>
LayerCount: 2
Back
Fore
SplineSet
309 680 m 0
 396 680 447 626 447 528 c 0
 447 431 400 278 252 278 c 0
 164 278 114 334 114 432 c 0
 114 533 164 680 309 680 c 0
309 673 m 0
 169 673 123 529 123 432 c 0
 123 338 169 285 252 285 c 0
 396 285 439 436 439 529 c 0
 439 621 391 673 309 673 c 0
56 0 m 1
 58 8 l 1
 372 8 l 1
 371 0 l 1
 56 0 l 1
EndSplineSet
EndChar
StartChar: guillemotright
Encoding: 187 187 2178
Width: 515
Flags: MW
HStem: 80 417<77 136 136 248>
VStem: 243 9<288 288> 414 9<288 288>
LayerCount: 2
Back
Fore
SplineSet
307 497 m 1
 423 291 l 1
 423 285 l 1
 248 80 l 1
 243 84 l 1
 414 288 l 1
 301 493 l 1
 307 497 l 1
136 497 m 1
 252 291 l 1
 252 285 l 1
 77 80 l 1
 72 84 l 1
 243 288 l 1
 130 493 l 1
 136 497 l 1
EndSplineSet
Substitution2: "'case' Case-Sensitive Forms lookup 29 subtable" guillemotright.case
Substitution2: "'aalt' Access All Alternates lookup 0 subtable" guillemotright.case
EndChar
StartChar: onequarter
Encoding: 188 188 2066
Width: 878
Flags: MW
HStem: 0 21G<705 712 705 705> 118 8<536 721 527 527 730 790> 671 9<246 255> 713 20G<712 712> 716 20G<705 705>
VStem: 527 9<118 126 126 126>
LayerCount: 2
Back
Fore
SplineSet
705 736 m 1xec
 712 733 l 1xf4
 195 -67 l 1
 188 -64 l 1
 705 736 l 1xec
190 271 m 1
 246 671 l 1
 121 602 l 1
 118 608 l 1
 249 680 l 1
 255 680 l 1
 198 271 l 1
 190 271 l 1
790 126 m 1
 790 118 l 1
 729 118 l 1
 712 0 l 1
 705 0 l 1
 721 118 l 1
 527 118 l 1
 527 126 l 1
 704 417 l 1
 711 414 l 1
 536 126 l 1
 722 126 l 1
 742 259 l 1
 749 259 l 1
 730 126 l 1
 790 126 l 1
EndSplineSet
EndChar
StartChar: onehalf
Encoding: 189 189 2063
Width: 878
Flags: MW
HStem: 0 7.5 409 7<675.5 730.5> 671 9<246 255> 713 20G<712 712> 716 20G<705 705>
VStem: 529 11<7 7 7 8 7 8> 781 8<313 313>
LayerCount: 2
Back
Fore
SplineSet
705 736 m 1xea
 712 733 l 1xf6
 195 -67 l 1
 188 -64 l 1
 705 736 l 1xea
255 680 m 1
 198 271 l 1
 190 271 l 1
 246 671 l 1
 121 602 l 1
 118 608 l 1
 249 680 l 1
 255 680 l 1
699 416 m 0
 767 416 797 370 789 312 c 0
 777 227 727 184 540 7 c 1
 757 8 l 1
 755 0 l 1
 529 0 l 1
 529 8 l 1
 722 189 770 231 781 313 c 0
 789 367 762 409 699 409 c 0
 652 409 617 389 585 357 c 1
 579 362 l 1
 615 397 651 416 699 416 c 0
EndSplineSet
EndChar

StartChar: threequarters
Encoding: 190 190 929
Width: 878
Flags: MW
HStem: 0 21G 118.43 7.35001 264.78 7.35001 485.99 7.14999 680.28 7.36 713 20G<711.78 711.78> 715.57 20G
VStem: 292.35 7.78999 308.78 8 526.94 8.75999
LayerCount: 2
Fore
SplineSet
711.78 733 m 1xfd80
 194.71 -66.5703 l 1
 188.21 -64 l 1
 705.28 735.57 l 1
 711.78 733 l 1xfd80
300.14 382.43 m 0
 290.93 313 234.492 264.779 161.132 264.779 c 0
 110.922 264.779 79.0615 280.85 52.6318 316.42 c 1
 58.7021 320.21 l 1
 85.1318 285.06 115.132 272.13 160.922 272.13 c 0
 236.852 272.13 284.352 323.92 292.352 383.06 c 0
 301.352 451.779 263.562 485.989 193.562 485.989 c 2xfb80
 170.281 485.989 l 1
 171.991 493.14 l 1
 194.711 493.14 l 2
 244.991 493.14 299.781 522.85 308.781 588.779 c 0
 316.562 643.069 285.562 680.279 224.562 680.279 c 0
 184.781 680.279 150.281 667.93 114.421 637.569 c 1
 110.211 643.43 l 1
 146.641 674 180.641 687.64 224.57 687.64 c 0
 290.641 687.64 324.78 646.21 316.78 588.14 c 0xfa80
 308 525.5 260.35 494.64 211.5 490 c 1
 268 487.21 310.14 454.14 300.14 382.43 c 0
789.492 118.429 m 1xfac0
 728.892 118.428 l 1
 712.332 -0.00195312 l 1
 704.552 -0.00195312 l 1
 721.262 118.428 l 1
 526.622 118.428 l 1
 527.272 125.708 l 1
 703.772 416.638 l 1
 710.482 413.708 l 1
 535.702 125.778 l 1
 722.312 125.778 l 1
 741.622 258.998 l 1
 748.552 258.998 l 1
 729.932 125.778 l 1
 790.342 125.778 l 1
 789.492 118.429 l 1xfac0
EndSplineSet
EndChar
StartChar: questiondown
Encoding: 191 191 2131
Width: 446
Flags: MW
HStem: -195 7<108.5 181 108.5 181.5> 478 12
VStem: 22 8<-111.5 3.5 -111.5 5.5> 241 24<486.5 493.5> 247 8<227 236.5 227 237>
LayerCount: 2
Back
Fore
SplineSet
253 478 m 0xf0
 246 478 241 483 241 490 c 0
 241 497 247 502 254 502 c 0
 261 502 265 497 265 490 c 0
 265 483 260 478 253 478 c 0xf0
146 -195 m 0
 65 -195 22 -142 22 -84 c 0
 22 95 248 82 247 227 c 0
 247 247 243 266 237 284 c 1
 245 285 l 1
 251 266 255 246 255 227 c 0xe8
 256 78 30 91 30 -84 c 0
 30 -139 71 -188 146 -188 c 0
 216 -188 262 -163 317 -111 c 1
 323 -115 l 1
 267 -169 217 -195 146 -195 c 0
EndSplineSet
Substitution2: "'case' Case-Sensitive Forms lookup 29 subtable" questiondown.case
Substitution2: "'aalt' Access All Alternates lookup 0 subtable" questiondown.case
EndChar

StartChar: Agrave
Encoding: 192 192 6
Width: 556
GlyphClass: 2
Flags: MW
HStem: 0 21G 210 7.78 671.93 8.5
VStem: -3.58 490.93
AnchorPoint: "Anchor-11" 0 0 basechar 0
AnchorPoint: "Anchor-10" 198 518 basechar 0
AnchorPoint: "Anchor-9" 337 680 basechar 0
AnchorPoint: "Anchor-8" 497 0 basechar 0
LayerCount: 2
Fore
SplineSet
433.85 768.85 m 1
 273.42 839.351 l 1
 278.71 847.78 l 1
 437.21 774.92 l 1
 433.85 768.85 l 1
434.189 210.001 m 1
 108.57 210.001 l 1
 5.28027 0.000976562 l 1
 -3.58008 0.000976562 l 1
 332.35 680.431 l 1
 341.279 680.431 l 1
 487.35 0.000976562 l 1
 478.92 0.000976562 l 1
 434.189 210.001 l 1
432.521 217.781 m 1
 335.78 671.932 l 1
 112.4 217.781 l 1
 432.521 217.781 l 1
EndSplineSet
Substitution2: "'c2sc' Capitals to Small Capitals lookup 23 subtable" agrave.sc
Substitution2: "'aalt' Access All Alternates lookup 0 subtable" agrave.sc
Position2: "'cpsp' Capital Spacing lookup 0 subtable" dx=5 dy=0 dh=10 dv=0
EndChar
StartChar: Aacute
Encoding: 193 193 3
Width: 556
GlyphClass: 2
Flags: MW
HStem: 0 21G<-3 5 -3 -3 479 487 479 479> 210 8<112 433 112 434 108 433> 672 8<336 336>
VStem: -3 490<0 0>
AnchorPoint: "Anchor-14" 0 0 basechar 0
AnchorPoint: "Anchor-13" 0 0 basechar 0
AnchorPoint: "Anchor-12" 357 848 basechar 0
AnchorPoint: "Anchor-11" 497 0 basechar 0
AnchorPoint: "Anchor-10" 242 0 basechar 0
LayerCount: 2
Back
Fore
SplineSet
446 839 m 1
 266 769 l 1
 264 775 l 1
 442 848 l 1
 446 839 l 1
479 0 m 1
 434 210 l 1
 108 210 l 1
 5 0 l 1
 -3 0 l 1
 332 680 l 1
 341 680 l 1
 487 0 l 1
 479 0 l 1
112 218 m 1
 433 218 l 1
 336 672 l 1
 112 218 l 1
EndSplineSet
Substitution2: "'c2sc' Capitals to Small Capitals lookup 27 subtable" aacute.sc
Substitution2: "'aalt' Access All Alternates lookup 0 subtable" aacute.sc
Position2: "'cpsp' Capital Spacing lookup 0 subtable" dx=5 dy=0 dh=10 dv=0
EndChar
StartChar: Acircumflex
Encoding: 194 194 11
Width: 556
GlyphClass: 2
Flags: MW
HStem: 0 21G<-3 5 -3 -3 479 487 479 479> 210 8<112 433 112 434 108 433> 672 8<336 336> 847 9<357 357>
VStem: -3 490<0 0>
AnchorPoint: "Anchor-14" 0 0 basechar 0
AnchorPoint: "Anchor-13" 417 706 basechar 0
AnchorPoint: "Anchor-12" 358 856 basechar 0
AnchorPoint: "Anchor-11" 497 0 basechar 0
AnchorPoint: "Anchor-10" 242 0 basechar 0
LayerCount: 2
Back
Fore
SplineSet
357 847 m 1
 238 769 l 1
 233 774 l 1
 356 856 l 1
 361 856 l 1
 462 774 l 1
 457 769 l 1
 357 847 l 1
479 0 m 1
 434 210 l 1
 108 210 l 1
 5 0 l 1
 -3 0 l 1
 332 680 l 1
 341 680 l 1
 487 0 l 1
 479 0 l 1
112 218 m 1
 433 218 l 1
 336 672 l 1
 112 218 l 1
EndSplineSet
Substitution2: "'c2sc' Capitals to Small Capitals lookup 27 subtable" acircumflex.sc
Substitution2: "'aalt' Access All Alternates lookup 0 subtable" acircumflex.sc
Position2: "'cpsp' Capital Spacing lookup 0 subtable" dx=5 dy=0 dh=10 dv=0
EndChar

StartChar: Atilde
Encoding: 195 195 10
Width: 556
GlyphClass: 2
Flags: MW
HStem: 0 21G<-3.58887 5.27148 -3.58887 -3.58887 478.911 478.911 478.911 487.341> 210 7.78 671.93 8.5 811.21 48
VStem: -3.59 490.93
AnchorPoint: "Anchor-11" 0 0 basechar 0
AnchorPoint: "Anchor-10" 198 518 basechar 0
AnchorPoint: "Anchor-9" 337 680 basechar 0
AnchorPoint: "Anchor-8" 497 0 basechar 0
LayerCount: 2
Fore
SplineSet
304 855 m 0
 277.71 854.78 262.2 844 235.851 819 c 1
 233.561 821 l 1
 258.78 846.71 278.061 859.21 303.99 859.21 c 0
 341.641 859.21 370.07 815.43 413.851 815.43 c 0
 439.57 815.43 456.78 826.64 481.78 854.71 c 1
 484.07 852.71 l 1
 459.21 823.07 440.07 811.21 414.5 811.21 c 0
 368.5 811.21 341.78 855.21 304 855 c 0
434.181 210 m 1
 108.562 210 l 1
 5.27148 0 l 1
 -3.58887 -0 l 1
 332.341 680.43 l 1
 341.271 680.43 l 1
 487.341 0 l 1
 478.911 0 l 1
 434.181 210 l 1
432.512 217.78 m 1
 335.771 671.931 l 1
 112.392 217.78 l 1
 432.512 217.78 l 1
EndSplineSet
Substitution2: "'c2sc' Capitals to Small Capitals lookup 23 subtable" atilde.sc
Substitution2: "'aalt' Access All Alternates lookup 0 subtable" atilde.sc
Position2: "'cpsp' Capital Spacing lookup 0 subtable" dx=5 dy=0 dh=10 dv=0
EndChar

StartChar: Adieresis
Encoding: 196 196 5
Width: 556
GlyphClass: 2
Flags: MW
HStem: 0 21G<-3.58008 5.28027 -3.58008 -3.58008 478.92 478.92 478.92 487.35> 210 7.78 671.93 8.5 803.07 20.14
VStem: 268.78 20.36 422.71 20.36
AnchorPoint: "Anchor-11" 0 0 basechar 0
AnchorPoint: "Anchor-10" 198 518 basechar 0
AnchorPoint: "Anchor-9" 348 740 basechar 0
AnchorPoint: "Anchor-8" 497 0 basechar 0
LayerCount: 2
Fore
SplineSet
278.64 803.07 m 0
 272.069 803.07 268.35 808 268.779 813.57 c 0
 269.209 818.71 273.139 823.21 279.278 823.21 c 0
 286.068 823.21 289.568 818.28 289.139 812.71 c 0
 288.709 807.57 284.989 803.07 278.64 803.07 c 0
432.78 803.07 m 0
 426 803.07 422.279 808 422.709 813.57 c 0
 423.139 818.71 427.068 823.21 433.429 823.21 c 0
 439.999 823.21 443.499 818.28 443.069 812.71 c 0
 442.64 807.57 438.92 803.07 432.78 803.07 c 0
434.189 210 m 1
 108.57 210 l 1
 5.28027 0 l 1
 -3.58008 -0 l 1
 332.35 680.43 l 1
 341.279 680.43 l 1
 487.35 0 l 1
 478.92 0 l 1
 434.189 210 l 1
432.521 217.78 m 1
 335.78 671.931 l 1
 112.4 217.78 l 1
 432.521 217.78 l 1
EndSplineSet
Substitution2: "'c2sc' Capitals to Small Capitals lookup 23 subtable" adieresis.sc
Substitution2: "'aalt' Access All Alternates lookup 0 subtable" adieresis.sc
Position2: "'cpsp' Capital Spacing lookup 0 subtable" dx=5 dy=0 dh=10 dv=0
EndChar
StartChar: Aring
Encoding: 197 197 29
Width: 556
GlyphClass: 2
Flags: MW
HStem: 0 21G<-3 5 -3 -3 479 487 479 479> 210 8<112 433 112 434 108 433> 672 8<336 336> 778 7<333.5 371.5 333.5 373> 907 7<349.5 388>
VStem: 292 8<843 843> 421 7<848 848>
AnchorPoint: "Anchor-14" 0 0 basechar 0
AnchorPoint: "Anchor-13" 0 0 basechar 0
AnchorPoint: "Anchor-12" 369 914 basechar 0
AnchorPoint: "Anchor-11" 497 0 basechar 0
AnchorPoint: "Anchor-10" 242 0 basechar 0
LayerCount: 2
Back
Fore
SplineSet
352 778 m 0
 309 778 288 805 292 843 c 0
 296 885 327 914 369 914 c 0
 412 914 432 887 428 849 c 0
 424 806 394 778 352 778 c 0
300 843 m 0
 296 807 315 785 352 785 c 0
 391 785 417 812 421 848 c 0
 424 884 407 907 369 907 c 0
 330 907 304 880 300 843 c 0
479 0 m 1
 434 210 l 1
 108 210 l 1
 5 0 l 1
 -3 0 l 1
 332 680 l 1
 341 680 l 1
 487 0 l 1
 479 0 l 1
112 218 m 1
 433 218 l 1
 336 672 l 1
 112 218 l 1
EndSplineSet
Substitution2: "'c2sc' Capitals to Small Capitals lookup 27 subtable" aring.sc
Substitution2: "'aalt' Access All Alternates lookup 0 subtable" aring.sc
Position2: "'cpsp' Capital Spacing lookup 0 subtable" dx=5 dy=0 dh=10 dv=0
EndChar

StartChar: AE
Encoding: 198 198 11
Width: 751
GlyphClass: 2
Flags: MW
HStem: 0 7.78999 202.42 7.57001 356.78 7.57001 672.64 7.78
VStem: -17.79 725.86
AnchorPoint: "Anchor-11" 0 0 basechar 0
AnchorPoint: "Anchor-10" 0 0 basechar 0
AnchorPoint: "Anchor-9" 513 680 basechar 0
AnchorPoint: "Anchor-8" 0 0 basechar 0
LayerCount: 2
Fore
SplineSet
352.85 672.64 m 1
 390.739 364.351 l 1
 654.919 364.351 l 1
 654.069 356.78 l 1
 391.669 356.78 l 1
 434.569 7.78027 l 1
 668.499 7.78027 l 1
 667.429 -0.00976562 l 1
 427.209 -0.00976562 l 1
 402.519 202.42 l 1
 97.3184 202.42 l 1
 -9.15137 -0.00976562 l 1
 -17.791 -0.00976562 l 1
 340.419 680.42 l 1
 708.069 680.42 l 1
 706.35 672.64 l 1
 352.85 672.64 l 1
345.069 673.49 m 1
 101.3 209.99 l 1
 401.6 209.99 l 1
 345.069 673.49 l 1
EndSplineSet
Substitution2: "'c2sc' Capitals to Small Capitals lookup 23 subtable" ae.sc
Substitution2: "'aalt' Access All Alternates lookup 0 subtable" ae.sc
Position2: "'cpsp' Capital Spacing lookup 0 subtable" dx=5 dy=0 dh=10 dv=0
EndChar
StartChar: Ccedilla
Encoding: 199 199 45
Width: 532
GlyphClass: 2
Flags: MW
HStem: -205 7<280.5 319.5 280.5 320.5> -87 7 -9 8<300 300 307 345 242 347> 683 7<287 439>
VStem: 89 8<171 339.5 171 342.5> 367 9<-153 -139>
AnchorPoint: "Anchor-14" 0 0 basechar 0
AnchorPoint: "Anchor-13" 0 0 basechar 0
AnchorPoint: "Anchor-12" 402 680 basechar 0
AnchorPoint: "Anchor-11" 0 0 basechar 0
AnchorPoint: "Anchor-10" 306 -205 basechar 0
LayerCount: 2
Back
Fore
SplineSet
403 683 m 0
 171 683 97 424 97 255 c 0
 97 87 179 -1 305 -1 c 0
 385 -1 435 29 473 58 c 1
 478 51 l 1
 439 22 387 -9 307 -9 c 1
 293 -80 l 1
 347 -82 376 -98 376 -138 c 0
 376 -174 347 -205 294 -205 c 0
 264 -205 247 -198 232 -188 c 1
 236 -182 l 1
 250 -192 267 -198 294 -198 c 0
 345 -198 367 -167 367 -139 c 0
 368 -102 341 -88 284 -87 c 1
 300 -9 l 1
 171 -7 89 85 89 254 c 0
 89 431 166 690 403 690 c 0
 477 690 518 665 550 633 c 1
 545 627 l 1
 511 660 475 683 403 683 c 0
EndSplineSet
Substitution2: "'c2sc' Capitals to Small Capitals lookup 27 subtable" ccedilla.sc
Substitution2: "'aalt' Access All Alternates lookup 0 subtable" ccedilla.sc
Position2: "'cpsp' Capital Spacing lookup 0 subtable" dx=5 dy=0 dh=10 dv=0
EndChar
StartChar: Eacute
Encoding: 201 201 66
Width: 495
GlyphClass: 2
Flags: MW
HStem: 0 8<101 411> 357 7<151 409 150 410> 673 7<194 495 194 194>
VStem: 92 405
AnchorPoint: "Anchor-14" 0 0 basechar 0
AnchorPoint: "Anchor-13" 0 0 basechar 0
AnchorPoint: "Anchor-12" 364 848 basechar 0
AnchorPoint: "Anchor-11" 392 0 basechar 0
AnchorPoint: "Anchor-10" 248 0 basechar 0
LayerCount: 2
Back
Fore
SplineSet
449 848 m 1
 453 839 l 1
 273 769 l 1
 271 775 l 1
 449 848 l 1
497 680 m 1
 495 673 l 1
 194 673 l 1
 151 364 l 1
 410 364 l 1
 409 357 l 1
 150 357 l 1
 101 8 l 1
 412 8 l 1
 411 0 l 1
 92 0 l 1
 187 680 l 1
 497 680 l 1
EndSplineSet
Substitution2: "'c2sc' Capitals to Small Capitals lookup 27 subtable" eacute.sc
Substitution2: "'aalt' Access All Alternates lookup 0 subtable" eacute.sc
Position2: "'cpsp' Capital Spacing lookup 0 subtable" dx=5 dy=0 dh=10 dv=0
EndChar

StartChar: Ecircumflex
Encoding: 202 202 28
Width: 495
GlyphClass: 2
Flags: MW
HStem: 0 7.78 356.78 7.57001 672.64 7.78999 847.14 8.64999
VStem: 91.64 404.93
AnchorPoint: "Anchor-11" 248 0 basechar 0
AnchorPoint: "Anchor-10" 88 518 basechar 0
AnchorPoint: "Anchor-9" 344 680 basechar 0
AnchorPoint: "Anchor-8" 392 0 basechar 0
LayerCount: 2
Fore
SplineSet
372.07 847.14 m 1
 252.71 768.93 l 1
 248.14 773.569 l 1
 370.43 855.789 l 1
 375.43 855.789 l 1
 476.21 773.569 l 1
 471.21 768.93 l 1
 372.07 847.14 l 1
494.86 672.64 m 1
 194.21 672.641 l 1
 151.28 364.351 l 1
 409.561 364.351 l 1
 408.711 356.78 l 1
 150.421 356.78 l 1
 100.921 7.78027 l 1
 411.571 7.78027 l 1
 410.501 0 l 1
 91.6406 -0 l 1
 186.86 680.43 l 1
 496.57 680.43 l 1
 494.86 672.64 l 1
EndSplineSet
Substitution2: "'c2sc' Capitals to Small Capitals lookup 23 subtable" ecircumflex.sc
Substitution2: "'aalt' Access All Alternates lookup 0 subtable" ecircumflex.sc
Position2: "'cpsp' Capital Spacing lookup 0 subtable" dx=5 dy=0 dh=10 dv=0
EndChar
StartChar: Igrave
Encoding: 204 204 126
Width: 264
GlyphClass: 2
Flags: MW
HStem: 0 21G<92 100 92 92> 660 20G<187 195 195 195>
VStem: 92 199
AnchorPoint: "Anchor-14" 0 0 basechar 0
AnchorPoint: "Anchor-13" 0 0 basechar 0
AnchorPoint: "Anchor-12" 211 848 basechar 0
AnchorPoint: "Anchor-11" 107 0 basechar 0
AnchorPoint: "Anchor-10" 96 0 basechar 0
LayerCount: 2
Back
Fore
SplineSet
132 848 m 1
 291 775 l 1
 287 769 l 1
 127 839 l 1
 132 848 l 1
195 680 m 1
 100 0 l 1
 92 0 l 1
 187 680 l 1
 195 680 l 1
EndSplineSet
Substitution2: "'c2sc' Capitals to Small Capitals lookup 27 subtable" igrave.sc
Substitution2: "'aalt' Access All Alternates lookup 0 subtable" igrave.sc
Position2: "'cpsp' Capital Spacing lookup 0 subtable" dx=5 dy=0 dh=10 dv=0
EndChar
StartChar: Iacute
Encoding: 205 205 117
Width: 264
GlyphClass: 2
Flags: MW
HStem: 0 21G<92 100 92 92> 660 20G<187 195 195 195>
VStem: 92 208
AnchorPoint: "Anchor-14" 0 0 basechar 0
AnchorPoint: "Anchor-13" 0 0 basechar 0
AnchorPoint: "Anchor-12" 211 848 basechar 0
AnchorPoint: "Anchor-11" 107 0 basechar 0
AnchorPoint: "Anchor-10" 96 0 basechar 0
LayerCount: 2
Back
Fore
SplineSet
296 848 m 1
 300 839 l 1
 120 769 l 1
 118 775 l 1
 296 848 l 1
195 680 m 1
 100 0 l 1
 92 0 l 1
 187 680 l 1
 195 680 l 1
EndSplineSet
Substitution2: "'c2sc' Capitals to Small Capitals lookup 27 subtable" iacute.sc
Substitution2: "'aalt' Access All Alternates lookup 0 subtable" iacute.sc
Position2: "'cpsp' Capital Spacing lookup 0 subtable" dx=5 dy=0 dh=10 dv=0
EndChar
StartChar: Icircumflex
Encoding: 206 206 120
Width: 264
GlyphClass: 2
Flags: MW
HStem: 0 21G<92 100 92 92> 660 20G<187 195 195 195> 847 9<211 211>
VStem: 87 229<774 774>
AnchorPoint: "Anchor-14" 0 0 basechar 0
AnchorPoint: "Anchor-13" 271 706 basechar 0
AnchorPoint: "Anchor-12" 212 856 basechar 0
AnchorPoint: "Anchor-11" 107 0 basechar 0
AnchorPoint: "Anchor-10" 96 0 basechar 0
LayerCount: 2
Back
Fore
SplineSet
311 769 m 1
 211 847 l 1
 92 769 l 1
 87 774 l 1
 210 856 l 1
 215 856 l 1
 316 774 l 1
 311 769 l 1
195 680 m 1
 100 0 l 1
 92 0 l 1
 187 680 l 1
 195 680 l 1
EndSplineSet
Substitution2: "'c2sc' Capitals to Small Capitals lookup 27 subtable" icircumflex.sc
Substitution2: "'aalt' Access All Alternates lookup 0 subtable" icircumflex.sc
Position2: "'cpsp' Capital Spacing lookup 0 subtable" dx=5 dy=0 dh=10 dv=0
EndChar
StartChar: Eth
Encoding: 208 208 54
Width: 607
GlyphClass: 2
Flags: MW
HStem: 0 8<93 199> 349 8<42 132 42 133 142 338> 673 7<186 287 186 186>
VStem: 534 9<335 534>
AnchorPoint: "Anchor-14" 314 340 basechar 0
AnchorPoint: "Anchor-13" 0 0 basechar 0
AnchorPoint: "Anchor-12" 342 680 basechar 0
AnchorPoint: "Anchor-11" 0 0 basechar 0
AnchorPoint: "Anchor-10" 244 0 basechar 0
LayerCount: 2
Back
Fore
SplineSet
288 680 m 2
 416 680 543 638 543 435 c 0
 543 231 456 0 199 0 c 2
 83 0 l 1
 132 349 l 1
 42 349 l 1
 42 357 l 1
 133 357 l 1
 179 680 l 1
 288 680 l 2
200 8 m 2
 450 8 534 235 534 435 c 0
 534 633 411 673 287 673 c 2
 186 673 l 1
 142 357 l 1
 339 357 l 1
 338 349 l 1
 141 349 l 1
 93 8 l 1
 200 8 l 2
EndSplineSet
Substitution2: "'c2sc' Capitals to Small Capitals lookup 27 subtable" eth.sc
Substitution2: "'aalt' Access All Alternates lookup 0 subtable" eth.sc
Position2: "'cpsp' Capital Spacing lookup 0 subtable" dx=5 dy=0 dh=10 dv=0
EndChar
StartChar: Ntilde
Encoding: 209 209 169
Width: 656
GlyphClass: 2
Flags: MW
HStem: 0 10<486 486 486 492 482 486> 671 9<193 193> 811 48
VStem: 92 495
AnchorPoint: "Anchor-14" 0 0 basechar 0
AnchorPoint: "Anchor-13" 0 0 basechar 0
AnchorPoint: "Anchor-12" 416 861 basechar 0
AnchorPoint: "Anchor-11" 0 0 basechar 0
AnchorPoint: "Anchor-10" 287 0 basechar 0
LayerCount: 2
Back
Fore
SplineSet
470 811 m 0
 424 811 397 855 359 855 c 0
 333 855 317 844 291 819 c 1
 289 821 l 1
 314 847 333 859 359 859 c 0
 397 859 425 815 469 815 c 0
 495 815 512 827 537 855 c 1
 539 853 l 1
 514 823 495 811 470 811 c 0
587 680 m 1
 492 0 l 1
 482 0 l 1
 193 671 l 1
 189 641 185 608 176 543 c 2
 100 0 l 1
 92 0 l 1
 187 680 l 1
 198 680 l 1
 486 10 l 1
 506 157 l 1
 579 680 l 1
 587 680 l 1
EndSplineSet
Substitution2: "'c2sc' Capitals to Small Capitals lookup 27 subtable" ntilde.sc
Substitution2: "'aalt' Access All Alternates lookup 0 subtable" ntilde.sc
Position2: "'cpsp' Capital Spacing lookup 0 subtable" dx=5 dy=0 dh=10 dv=0
EndChar

StartChar: Ograve
Encoding: 210 210 76
Width: 688
GlyphClass: 2
Flags: MW
HStem: -9.21001 7.78 682.86 7.57001
VStem: 87.86 8.42999 615.15 8.42999
AnchorPoint: "Anchor-11" 0 0 basechar 0
AnchorPoint: "Anchor-10" 102 518 basechar 0
AnchorPoint: "Anchor-9" 398 680 basechar 0
AnchorPoint: "Anchor-8" 0 0 basechar 0
LayerCount: 2
Fore
SplineSet
498.43 774.92 m 1
 495.069 768.851 l 1
 334.64 839.351 l 1
 339.93 847.78 l 1
 498.43 774.92 l 1
403.43 690.431 m 0
 541.649 690.431 623.58 597.07 623.58 428.36 c 0
 623.58 258.641 551.65 -9.20898 306.65 -9.20898 c 0
 169 -9.20898 87.8604 85.791 87.8604 252.721 c 0
 87.8604 420.57 167.71 690.431 403.43 690.431 c 0
403.221 682.86 m 0
 172.581 682.86 96.291 415.001 96.291 253.641 c 0
 96.291 90.5703 174.081 -1.42969 306.651 -1.42969 c 0
 547.432 -1.42969 615.151 266.07 615.151 428.57 c 0
 615.151 592.86 537.001 682.86 403.221 682.86 c 0
EndSplineSet
Substitution2: "'c2sc' Capitals to Small Capitals lookup 23 subtable" ograve.sc
Substitution2: "'aalt' Access All Alternates lookup 0 subtable" ograve.sc
Position2: "'cpsp' Capital Spacing lookup 0 subtable" dx=5 dy=0 dh=10 dv=0
EndChar
StartChar: Oacute
Encoding: 211 211 172
Width: 688
GlyphClass: 2
Flags: MW
HStem: -9 8<240.5 427 240.5 429.5> 683 7<288 470>
VStem: 88 8<171.5 335 171.5 337> 615 9<346 510.5>
AnchorPoint: "Anchor-14" 0 0 basechar 0
AnchorPoint: "Anchor-13" 581 680 basechar 0
AnchorPoint: "Anchor-12" 422 848 basechar 0
AnchorPoint: "Anchor-11" 0 0 basechar 0
AnchorPoint: "Anchor-10" 307 0 basechar 0
LayerCount: 2
Back
Fore
SplineSet
507 848 m 1
 511 839 l 1
 331 769 l 1
 329 775 l 1
 507 848 l 1
403 690 m 0
 542 690 624 597 624 428 c 0
 624 259 552 -9 307 -9 c 0
 169 -9 88 86 88 253 c 0
 88 421 168 690 403 690 c 0
403 683 m 0
 173 683 96 417 96 253 c 0
 96 90 174 -1 307 -1 c 0
 547 -1 615 264 615 428 c 0
 615 593 537 683 403 683 c 0
EndSplineSet
Substitution2: "'c2sc' Capitals to Small Capitals lookup 27 subtable" oacute.sc
Substitution2: "'locl' Localized Forms in Latin lookup 7 subtable" Oacute.loclPLK
AlternateSubs2: "'aalt' Access All Alternates lookup 1 subtable" Oacute.loclPLK oacute.sc
Position2: "'cpsp' Capital Spacing lookup 0 subtable" dx=5 dy=0 dh=10 dv=0
EndChar

StartChar: Ocircumflex
Encoding: 212 212 74
Width: 688
GlyphClass: 2
Flags: MW
HStem: -9.22 7.78999 682.85 7.57001 847.14 8.64
VStem: 87.86 8.42999 615.15 8.42999
AnchorPoint: "Anchor-11" 0 0 basechar 0
AnchorPoint: "Anchor-10" 102 518 basechar 0
AnchorPoint: "Anchor-9" 398 680 basechar 0
AnchorPoint: "Anchor-8" 0 0 basechar 0
LayerCount: 2
Fore
SplineSet
426.64 847.14 m 1
 307.29 768.92 l 1
 302.72 773.57 l 1
 425 855.78 l 1
 430 855.78 l 1
 530.79 773.57 l 1
 525.79 768.92 l 1
 426.64 847.14 l 1
403.43 690.42 m 0
 541.649 690.42 623.58 597.07 623.58 428.351 c 0
 623.58 258.641 551.65 -9.21973 306.65 -9.21973 c 0
 169 -9.21973 87.8604 85.7803 87.8604 252.71 c 0
 87.8604 420.57 167.71 690.42 403.43 690.42 c 0
403.221 682.85 m 0
 172.581 682.85 96.291 414.989 96.291 253.64 c 0
 96.291 90.5693 174.081 -1.43066 306.651 -1.43066 c 0
 547.432 -1.43066 615.151 266.069 615.151 428.569 c 0
 615.151 592.85 537.001 682.85 403.221 682.85 c 0
EndSplineSet
Substitution2: "'c2sc' Capitals to Small Capitals lookup 23 subtable" ocircumflex.sc
Substitution2: "'aalt' Access All Alternates lookup 0 subtable" ocircumflex.sc
Position2: "'cpsp' Capital Spacing lookup 0 subtable" dx=5 dy=0 dh=10 dv=0
EndChar
StartChar: Otilde
Encoding: 213 213 207
Width: 688
GlyphClass: 2
Flags: MW
HStem: -9 8<240.5 427 240.5 429.5> 683 7<288 470> 811 48
VStem: 88 8<171.5 335 171.5 337> 615 9<346 510.5>
AnchorPoint: "Anchor-14" 0 0 basechar 0
AnchorPoint: "Anchor-13" 581 680 basechar 0
AnchorPoint: "Anchor-12" 425 861 basechar 0
AnchorPoint: "Anchor-11" 0 0 basechar 0
AnchorPoint: "Anchor-10" 307 0 basechar 0
LayerCount: 2
Back
Fore
SplineSet
479 811 m 0
 433 811 406 855 368 855 c 0
 342 855 326 844 300 819 c 1
 298 821 l 1
 323 847 342 859 368 859 c 0
 406 859 434 815 478 815 c 0
 504 815 521 827 546 855 c 1
 548 853 l 1
 523 823 504 811 479 811 c 0
403 690 m 0
 542 690 624 597 624 428 c 0
 624 259 552 -9 307 -9 c 0
 169 -9 88 86 88 253 c 0
 88 421 168 690 403 690 c 0
403 683 m 0
 173 683 96 417 96 253 c 0
 96 90 174 -1 307 -1 c 0
 547 -1 615 264 615 428 c 0
 615 593 537 683 403 683 c 0
EndSplineSet
Substitution2: "'c2sc' Capitals to Small Capitals lookup 27 subtable" otilde.sc
Substitution2: "'aalt' Access All Alternates lookup 0 subtable" otilde.sc
Position2: "'cpsp' Capital Spacing lookup 0 subtable" dx=5 dy=0 dh=10 dv=0
EndChar
StartChar: Odieresis
Encoding: 214 214 183
Width: 688
GlyphClass: 2
Flags: MW
HStem: -9 8<240.5 427 240.5 429.5> 683 7<288 470> 803 20<341 346 495 500>
VStem: 88 8<171.5 335 171.5 337> 333 21<813 814> 487 21<813 814> 615 9<346 510.5>
AnchorPoint: "Anchor-14" 0 0 basechar 0
AnchorPoint: "Anchor-13" 581 680 basechar 0
AnchorPoint: "Anchor-12" 423 823 basechar 0
AnchorPoint: "Anchor-11" 0 0 basechar 0
AnchorPoint: "Anchor-10" 307 0 basechar 0
LayerCount: 2
Back
Fore
SplineSet
344 823 m 0
 351 823 354 818 354 813 c 0
 353 808 349 803 343 803 c 0
 337 803 333 808 333 814 c 0
 334 819 338 823 344 823 c 0
498 823 m 0
 504 823 508 818 508 813 c 0
 507 808 503 803 497 803 c 0
 490 803 487 808 487 814 c 0
 488 819 492 823 498 823 c 0
403 690 m 0
 542 690 624 597 624 428 c 0
 624 259 552 -9 307 -9 c 0
 169 -9 88 86 88 253 c 0
 88 421 168 690 403 690 c 0
403 683 m 0
 173 683 96 417 96 253 c 0
 96 90 174 -1 307 -1 c 0
 547 -1 615 264 615 428 c 0
 615 593 537 683 403 683 c 0
EndSplineSet
Substitution2: "'c2sc' Capitals to Small Capitals lookup 27 subtable" odieresis.sc
Substitution2: "'aalt' Access All Alternates lookup 0 subtable" odieresis.sc
Position2: "'cpsp' Capital Spacing lookup 0 subtable" dx=5 dy=0 dh=10 dv=0
EndChar

StartChar: multiply
Encoding: 215 215 1110
Width: 480
Flags: MW
HStem: 167.79 279.42
VStem: 90.86 311.42
LayerCount: 2
Fore
SplineSet
402.28 442.14 m 1
 252.719 307.79 l 1
 365.289 172.86 l 1
 358.569 167.79 l 1
 246.43 301.93 l 1
 96.71 167.79 l 1
 90.8604 172.86 l 1
 241 307.79 l 1
 127.86 442.14 l 1
 134.57 447.21 l 1
 247.07 312.86 l 1
 396.431 447.21 l 1
 402.28 442.14 l 1
EndSplineSet
Substitution2: "'onum' Oldstyle Figures lookup 22 subtable" multiply.osf
Substitution2: "'tnum' Tabular Numbers lookup 21 subtable" multiply.tf
AlternateSubs2: "'aalt' Access All Alternates lookup 1 subtable" multiply.tf multiply.osf
EndChar

StartChar: Oslash
Encoding: 216 216 79
Width: 688
GlyphClass: 2
Flags: MW
HStem: -9.22 7.78 682.85 7.58
VStem: 87.86 8.42 615.13 8.44
AnchorPoint: "Anchor-11" 0 0 basechar 0
AnchorPoint: "Anchor-10" 0 0 basechar 0
AnchorPoint: "Anchor-9" 402 683 basechar 0
AnchorPoint: "Anchor-8" 0 0 basechar 0
LayerCount: 2
Fore
SplineSet
501.22 670.98 m 1
 579.399 635.48 623.569 552.23 623.569 428.351 c 0
 623.569 258.641 551.64 -9.21973 306.64 -9.21973 c 0
 272.689 -9.21973 242.17 -3.43945 215.47 7.78027 c 1
 165.71 -105.359 l 1
 158.35 -102.64 l 1
 208.689 10.7803 l 1
 131.359 46.8301 87.8594 130.49 87.8594 252.721 c 0
 87.8594 420.57 167.709 690.431 403.429 690.431 c 0
 437.329 690.431 467.839 684.811 494.589 673.841 c 1
 545.499 790.431 l 1
 552.279 787.711 l 1
 501.22 670.98 l 1
96.2793 253.641 m 0
 96.2793 134.301 137.938 53.0205 212.238 18.0107 c 1
 491.729 666.65 l 1
 465.839 677.37 436.219 682.851 403.209 682.851 c 0
 172.569 682.851 96.2793 414.99 96.2793 253.641 c 0
306.628 -1.44043 m 0
 547.418 -1.44043 615.129 266.06 615.129 428.56 c 0
 615.129 549.13 573.039 629.689 497.759 664.029 c 1
 218.339 15.2695 l 1
 244.148 4.23926 273.698 -1.44043 306.628 -1.44043 c 0
EndSplineSet
Substitution2: "'c2sc' Capitals to Small Capitals lookup 23 subtable" oslash.sc
Substitution2: "'aalt' Access All Alternates lookup 0 subtable" oslash.sc
Position2: "'cpsp' Capital Spacing lookup 0 subtable" dx=5 dy=0 dh=10 dv=0
EndChar

StartChar: Ugrave
Encoding: 217 217 106
Width: 636
GlyphClass: 2
Flags: MW
HStem: -9.22 7.78999 660.42 20G 660.43 20G
VStem: 106.67 8.25999
AnchorPoint: "Anchor-11" 0 0 basechar 0
AnchorPoint: "Anchor-10" 0 0 basechar 0
AnchorPoint: "Anchor-9" 382 680 basechar 0
AnchorPoint: "Anchor-8" 363 0 basechar 0
LayerCount: 2
Fore
SplineSet
481.64 774.92 m 1xb0
 478.289 768.851 l 1
 317.859 839.351 l 1
 323.14 847.78 l 1
 481.64 774.92 l 1xb0
510.289 206.211 m 1
 493.859 82.3506 425.709 -9.21973 281.279 -9.21973 c 0
 134.43 -9.21973 93.6396 82.7803 110.069 206.641 c 1
 176.859 680.421 l 1
 185.069 680.421 l 1xd0
 118.289 206.851 l 2
 102.289 86.5703 140.929 -1.42969 281.289 -1.42969 c 0
 421.499 -1.42969 486.289 87.6406 502.069 207.28 c 1
 568.859 680.431 l 1
 577.069 680.431 l 1
 510.289 206.211 l 1
EndSplineSet
Substitution2: "'c2sc' Capitals to Small Capitals lookup 23 subtable" ugrave.sc
Substitution2: "'aalt' Access All Alternates lookup 0 subtable" ugrave.sc
Position2: "'cpsp' Capital Spacing lookup 0 subtable" dx=5 dy=0 dh=10 dv=0
EndChar

StartChar: Uacute
Encoding: 218 218 102
Width: 636
GlyphClass: 2
Flags: MW
HStem: -9.22 7.78999 660.42 20G 660.43 20G
VStem: 106.67 8.25
AnchorPoint: "Anchor-11" 0 0 basechar 0
AnchorPoint: "Anchor-10" 0 0 basechar 0
AnchorPoint: "Anchor-9" 382 680 basechar 0
AnchorPoint: "Anchor-8" 363 0 basechar 0
LayerCount: 2
Fore
SplineSet
490.43 839.35 m 1xb0
 311.14 768.859 l 1
 309.069 774.93 l 1
 487.279 847.779 l 1
 490.43 839.35 l 1xb0
510.279 206.209 m 1
 493.85 82.3486 425.71 -9.22168 281.28 -9.22168 c 0
 134.42 -9.22168 93.6396 82.7783 110.069 206.639 c 1
 176.85 680.419 l 1
 185.069 680.419 l 1xd0
 118.279 206.849 l 2
 102.279 86.5684 140.93 -1.43164 281.279 -1.43164 c 0
 421.499 -1.43164 486.279 87.6387 502.069 207.278 c 1
 568.85 680.429 l 1
 577.069 680.429 l 1
 510.279 206.209 l 1
EndSplineSet
Substitution2: "'c2sc' Capitals to Small Capitals lookup 23 subtable" uacute.sc
Substitution2: "'aalt' Access All Alternates lookup 0 subtable" uacute.sc
Position2: "'cpsp' Capital Spacing lookup 0 subtable" dx=5 dy=0 dh=10 dv=0
EndChar

StartChar: Ucircumflex
Encoding: 219 219 104
Width: 636
GlyphClass: 2
Flags: MW
HStem: -9.22 7.78 660.42 20G 847.14 8.64
VStem: 106.67 8.25
AnchorPoint: "Anchor-11" 0 0 basechar 0
AnchorPoint: "Anchor-10" 0 0 basechar 0
AnchorPoint: "Anchor-9" 382 680 basechar 0
AnchorPoint: "Anchor-8" 363 0 basechar 0
LayerCount: 2
Fore
SplineSet
409.85 847.14 m 1
 290.5 768.92 l 1
 285.93 773.57 l 1
 408.21 855.78 l 1
 413.21 855.78 l 1
 514 773.57 l 1
 509 768.92 l 1
 409.85 847.14 l 1
510.28 206.21 m 1
 493.851 82.3604 425.711 -9.21973 281.281 -9.21973 c 0
 134.421 -9.21973 93.6406 82.7803 110.07 206.63 c 1
 176.851 680.42 l 1
 185.07 680.42 l 1
 118.28 206.85 l 2
 102.28 86.5596 140.931 -1.44043 281.28 -1.44043 c 0
 421.5 -1.44043 486.28 87.6299 502.07 207.28 c 1
 568.851 680.42 l 1
 577.07 680.42 l 1
 510.28 206.21 l 1
EndSplineSet
Substitution2: "'c2sc' Capitals to Small Capitals lookup 23 subtable" ucircumflex.sc
Substitution2: "'aalt' Access All Alternates lookup 0 subtable" ucircumflex.sc
Position2: "'cpsp' Capital Spacing lookup 0 subtable" dx=5 dy=0 dh=10 dv=0
EndChar

StartChar: Udieresis
Encoding: 220 220 105
Width: 636
GlyphClass: 2
Flags: MW
HStem: -9.22 7.78999 660.42 20G 660.43 20G 803.07 20.14
VStem: 106.67 8.25999 313.21 20.35 467.14 20.36
AnchorPoint: "Anchor-11" 0 0 basechar 0
AnchorPoint: "Anchor-10" 0 0 basechar 0
AnchorPoint: "Anchor-9" 392 740 basechar 0
AnchorPoint: "Anchor-8" 363 0 basechar 0
LayerCount: 2
Fore
SplineSet
323.71 823.21 m 0xbe
 330.49 823.21 333.991 818.28 333.562 812.71 c 0
 333.132 807.57 329.422 803.07 323.062 803.07 c 0
 316.491 803.07 312.781 808 313.211 813.57 c 0
 313.641 818.71 317.57 823.21 323.71 823.21 c 0xbe
477.851 823.21 m 0
 484.421 823.21 487.931 818.28 487.501 812.71 c 0
 487.071 807.57 483.352 803.07 477.212 803.07 c 0
 470.422 803.07 466.712 808 467.142 813.57 c 0
 467.571 818.71 471.501 823.21 477.851 823.21 c 0
510.29 206.21 m 1
 493.86 82.3496 425.71 -9.2207 281.28 -9.2207 c 0
 134.431 -9.2207 93.6406 82.7793 110.07 206.64 c 1
 176.86 680.42 l 1
 185.07 680.42 l 1xde
 118.29 206.85 l 2
 102.29 86.5693 140.93 -1.43066 281.29 -1.43066 c 0
 421.5 -1.43066 486.29 87.6396 502.07 207.279 c 1
 568.86 680.43 l 1
 577.07 680.43 l 1
 510.29 206.21 l 1
EndSplineSet
Substitution2: "'c2sc' Capitals to Small Capitals lookup 23 subtable" udieresis.sc
Substitution2: "'aalt' Access All Alternates lookup 0 subtable" udieresis.sc
Position2: "'cpsp' Capital Spacing lookup 0 subtable" dx=5 dy=0 dh=10 dv=0
EndChar
StartChar: Yacute
Encoding: 221 221 294
Width: 484
GlyphClass: 2
Flags: MW
HStem: 0 21G<202 210 202 202> 660 20G<83 92 92 92 509 519 519 519>
VStem: 83 436<680 680>
AnchorPoint: "Anchor-14" 0 0 basechar 0
AnchorPoint: "Anchor-13" 0 0 basechar 0
AnchorPoint: "Anchor-12" 321 848 basechar 0
AnchorPoint: "Anchor-11" 0 0 basechar 0
AnchorPoint: "Anchor-10" 206 0 basechar 0
LayerCount: 2
Back
Fore
SplineSet
406 848 m 1
 410 839 l 1
 230 769 l 1
 228 775 l 1
 406 848 l 1
519 680 m 1
 248 271 l 1
 210 0 l 1
 202 0 l 1
 239 271 l 1
 83 680 l 1
 92 680 l 1
 244 279 l 1
 509 680 l 1
 519 680 l 1
EndSplineSet
Substitution2: "'c2sc' Capitals to Small Capitals lookup 27 subtable" yacute.sc
Substitution2: "'aalt' Access All Alternates lookup 0 subtable" yacute.sc
Position2: "'cpsp' Capital Spacing lookup 0 subtable" dx=5 dy=0 dh=10 dv=0
EndChar

StartChar: Thorn
Encoding: 222 222 84
Width: 555
GlyphClass: 2
Flags: MW
HStem: -0.00999451 21G 151.85 7.78999 543.49 7.78999 660.42 20G
VStem: 498.86 8.21001
LayerCount: 2
Fore
SplineSet
295.57 551.28 m 2
 435.92 551.28 507.07 505.641 507.07 383.421 c 0
 507.07 272.211 448.851 151.851 236.141 151.851 c 2
 121.101 151.851 l 1
 99.8506 -0.00976562 l 1
 91.6406 -0.00976562 l 1
 186.851 680.42 l 1
 195.07 680.42 l 1
 177 551.28 l 1
 295.57 551.28 l 2
237.21 159.641 m 2
 444.43 159.641 498.86 276.851 498.86 383.211 c 0
 498.86 500.641 431.07 543.49 294.36 543.49 c 2
 175.91 543.49 l 1
 122.19 159.641 l 1
 237.21 159.641 l 2
EndSplineSet
Substitution2: "'c2sc' Capitals to Small Capitals lookup 23 subtable" thorn.sc
Substitution2: "'aalt' Access All Alternates lookup 0 subtable" thorn.sc
Position2: "'cpsp' Capital Spacing lookup 0 subtable" dx=5 dy=0 dh=10 dv=0
EndChar
StartChar: germandbls
Encoding: 223 223 629
Width: 571
GlyphClass: 2
Flags: MW
HStem: -192 21G<-34 -34> -10 8<311 389 311 391.5> 727 7<312 396>
VStem: 326 8<371.5 452.5 371.5 455> 474 8<566 658> 486 8<123.5 153 121.5 231>
LayerCount: 2
Back
Fore
SplineSet
334 411 m 0
 334 332 495 312 494 153 c 0
 494 90 451 -10 332 -10 c 0
 288 -10 246 5 225 18 c 1
 229 24 l 1
 252 10 290 -2 332 -2 c 0
 446 -2 486 94 486 153 c 0xf4
 486 309 326 327 326 411 c 0
 326 499 474 502 474 630 c 0
 474 686 433 727 359 727 c 0
 265 727 187 661 171 540 c 2
 95 2 l 2
 78 -120 43 -154 -34 -192 c 1
 -37 -186 l 1
 37 -149 71 -115 88 3 c 2
 163 541 l 2
 181 665 261 734 359 734 c 0
 436 734 482 690 482 630 c 0
 482 500 334 494 334 411 c 0
EndSplineSet
Substitution2: "'smcp' Lowercase to Small Capitals lookup 28 subtable" germandbls.sc
Substitution2: "'aalt' Access All Alternates lookup 0 subtable" germandbls.sc
EndChar
StartChar: agrave
Encoding: 224 224 356
Width: 542
GlyphClass: 2
Flags: MW
HStem: -9 7<180 259.5 180 259.5> 521 7<238.5 358.5>
VStem: 72 8<130 254.5 130 256> 397.41 7.59
AnchorPoint: "Anchor-14" 0 0 basechar 0
AnchorPoint: "Anchor-13" 0 0 basechar 0
AnchorPoint: "Anchor-12" 375 751 basechar 0
AnchorPoint: "Anchor-11" 452 -9 basechar 0
AnchorPoint: "Anchor-10" 259 0 basechar 0
LayerCount: 2
Back
Fore
SplineSet
296 751 m 1
 453 665 l 1
 450 660 l 1
 292 742 l 1
 296 751 l 1
334 528 m 0
 389 528 430 511 465 487 c 1
 409 118 l 2
 406 98 405 81 405 66 c 0
 405 29 417 8 445 -3 c 1
 442 -9 l 1
 392 10 395 60 400 110 c 1
 356 31 292 -9 227 -9 c 0
 128 -9 72 71 72 185 c 0
 72 327 138 528 334 528 c 0
334 521 m 0
 143 521 80 324 80 185 c 0
 80 75 133 -2 227 -2 c 0
 292 -2 356 40 403 125 c 1
 457 483 l 1
 424 506 383 521 334 521 c 0
EndSplineSet
Substitution2: "'smcp' Lowercase to Small Capitals lookup 28 subtable" agrave.sc
Substitution2: "'aalt' Access All Alternates lookup 0 subtable" agrave.sc
EndChar

StartChar: aacute
Encoding: 225 225 135
Width: 541
GlyphClass: 2
Flags: MW
HStem: -9.21001 7.58 520.51 7.14
VStem: 72.07 8.21001 398.12 44.09
AnchorPoint: "Anchor-11" 0 0 basechar 0
AnchorPoint: "Anchor-10" 0 0 basechar 0
AnchorPoint: "Anchor-9" 336 518 basechar 0
AnchorPoint: "Anchor-8" 452 -9 basechar 0
LayerCount: 2
Fore
SplineSet
448.21 742.07 m 1
 266 659.649 l 1
 264.28 665.72 l 1
 445.28 750.5 l 1
 448.21 742.07 l 1
334.21 527.649 m 0
 388.93 527.649 429.93 510.999 465.43 487.219 c 1
 409.43 118.429 l 2
 406.64 97.7188 404.859 80.7891 404.859 65.8594 c 0
 404.859 29.2891 416.859 7.85938 444.93 -2.71094 c 1
 442.21 -9.21094 l 1
 392.07 9.63867 395.21 60.2891 401.43 111.999 c 1
 356.359 30.999 292.289 -9.21094 226.999 -9.21094 c 0
 128.359 -9.21094 72.0693 70.499 72.0693 185.149 c 0
 72.0693 327.289 137.93 527.649 334.21 527.649 c 0
334.43 520.51 m 0
 143.43 520.51 80.2793 323.509 80.2793 185.369 c 0
 80.2793 74.7188 132.999 -1.63086 227.209 -1.63086 c 0
 292.499 -1.63086 355.929 39.7988 402.709 125.079 c 1
 457.209 483.439 l 1
 423.859 506.149 383.64 520.51 334.43 520.51 c 0
EndSplineSet
Substitution2: "'smcp' Lowercase to Small Capitals lookup 24 subtable" aacute.sc
Substitution2: "'aalt' Access All Alternates lookup 0 subtable" aacute.sc
EndChar

StartChar: acircumflex
Encoding: 226 226 137
Width: 541
GlyphClass: 2
Flags: MW
HStem: -9.22 7.58 520.51 7.13 741.5 8.64
VStem: 72.07 8.21001 398.12 44.09
AnchorPoint: "Anchor-11" 0 0 basechar 0
AnchorPoint: "Anchor-10" 0 0 basechar 0
AnchorPoint: "Anchor-9" 336 518 basechar 0
AnchorPoint: "Anchor-8" 452 -9 basechar 0
LayerCount: 2
Fore
SplineSet
245.21 662.71 m 1
 370.07 750.14 l 1
 375.07 750.14 l 1
 473.28 662.71 l 1
 468.5 658.07 l 1
 371.71 741.5 l 1
 250 658.07 l 1
 245.21 662.71 l 1
334.21 527.64 m 0
 388.93 527.64 429.93 511 465.43 487.21 c 1
 409.43 118.43 l 2
 406.64 97.71 404.859 80.7803 404.859 65.8506 c 0
 404.859 29.2803 416.859 7.85059 444.93 -2.71973 c 1
 442.21 -9.21973 l 1
 392.07 9.64062 395.21 60.2803 401.43 112 c 1
 356.359 31 292.289 -9.21973 226.999 -9.21973 c 0
 128.359 -9.21973 72.0693 70.5 72.0693 185.14 c 0
 72.0693 327.29 137.93 527.64 334.21 527.64 c 0
334.43 520.5 m 0
 143.43 520.5 80.2793 323.512 80.2793 185.361 c 0
 80.2793 74.7217 132.999 -1.63867 227.209 -1.63867 c 0
 292.499 -1.63867 355.929 39.791 402.709 125.081 c 1
 457.209 483.431 l 1
 423.859 506.15 383.64 520.5 334.43 520.5 c 0
EndSplineSet
Substitution2: "'smcp' Lowercase to Small Capitals lookup 24 subtable" acircumflex.sc
Substitution2: "'aalt' Access All Alternates lookup 0 subtable" acircumflex.sc
EndChar

StartChar: atilde
Encoding: 227 227 143
Width: 541
GlyphClass: 2
Flags: MW
HStem: -9.22 7.58 520.51 7.13 669.43 20G 708.71 20G 713.21 20G
VStem: 72.06 8.21001 398.11 44.09
AnchorPoint: "Anchor-11" 0 0 basechar 0
AnchorPoint: "Anchor-10" 0 0 basechar 0
AnchorPoint: "Anchor-9" 336 518 basechar 0
AnchorPoint: "Anchor-8" 452 -9 basechar 0
LayerCount: 2
Fore
SplineSet
420.57 685.21 m 0xf4
 374.57 685.21 347.841 729.21 310.061 729 c 0xf4
 283.771 728.78 268.271 718 241.921 693 c 1
 239.631 695 l 1
 264.851 720.71 284.131 733.21 310.061 733.21 c 0xec
 347.711 733.21 376.141 689.43 419.921 689.43 c 0
 445.641 689.43 462.851 700.64 487.851 728.71 c 1
 490.141 726.71 l 1
 465.28 697.07 446.141 685.21 420.57 685.21 c 0xf4
334.2 527.64 m 0xee
 388.92 527.64 429.92 511 465.42 487.21 c 1
 409.42 118.43 l 2
 406.63 97.71 404.85 80.7803 404.85 65.8506 c 0
 404.85 29.2803 416.85 7.85059 444.92 -2.71973 c 1
 442.2 -9.21973 l 1
 392.061 9.64062 395.2 60.2803 401.42 112 c 1
 356.35 31 292.279 -9.21973 226.989 -9.21973 c 0
 128.35 -9.21973 72.0596 70.5 72.0596 185.14 c 0
 72.0596 327.29 137.92 527.64 334.2 527.64 c 0xee
334.42 520.5 m 0
 143.42 520.5 80.2695 323.512 80.2695 185.361 c 0
 80.2695 74.7217 132.989 -1.63867 227.199 -1.63867 c 0
 292.489 -1.63867 355.919 39.791 402.699 125.081 c 1
 457.199 483.431 l 1
 423.85 506.15 383.63 520.5 334.42 520.5 c 0
EndSplineSet
Substitution2: "'smcp' Lowercase to Small Capitals lookup 24 subtable" atilde.sc
Substitution2: "'aalt' Access All Alternates lookup 0 subtable" atilde.sc
EndChar
StartChar: adieresis
Encoding: 228 228 351
Width: 542
GlyphClass: 2
Flags: MW
HStem: -9 7<180 259.5 180 259.5> 521 7<238.5 358.5> 677 20<281 286 435 440>
VStem: 72 8<130 254.5 130 256> 273 21<687 688> 397.41 7.59 427 21<687 688>
AnchorPoint: "Anchor-14" 0 0 basechar 0
AnchorPoint: "Anchor-13" 0 0 basechar 0
AnchorPoint: "Anchor-12" 363 697 basechar 0
AnchorPoint: "Anchor-11" 452 -9 basechar 0
AnchorPoint: "Anchor-10" 259 0 basechar 0
LayerCount: 2
Back
Fore
SplineSet
284 697 m 0
 291 697 294 692 294 687 c 0
 293 682 289 677 283 677 c 0
 277 677 273 682 273 688 c 0
 274 693 278 697 284 697 c 0
438 697 m 0xfe
 444 697 448 692 448 687 c 0
 447 682 443 677 437 677 c 0
 430 677 427 682 427 688 c 0
 428 693 432 697 438 697 c 0xfe
334 528 m 0
 389 528 430 511 465 487 c 1
 409 118 l 2
 406 98 405 81 405 66 c 0
 405 29 417 8 445 -3 c 1
 442 -9 l 1
 392 10 395 60 400 110 c 1xfc
 356 31 292 -9 227 -9 c 0
 128 -9 72 71 72 185 c 0
 72 327 138 528 334 528 c 0
334 521 m 0
 143 521 80 324 80 185 c 0
 80 75 133 -2 227 -2 c 0
 292 -2 356 40 403 125 c 1
 457 483 l 1
 424 506 383 521 334 521 c 0
EndSplineSet
Substitution2: "'smcp' Lowercase to Small Capitals lookup 28 subtable" adieresis.sc
Substitution2: "'aalt' Access All Alternates lookup 0 subtable" adieresis.sc
EndChar
StartChar: aring
Encoding: 229 229 363
Width: 542
GlyphClass: 2
Flags: MW
HStem: -9 7<180 259.5 180 259.5> 521 7<238.5 358.5> 652 7<337.5 375.5 337.5 377> 781 7<353.5 392>
VStem: 72 8<130 254.5 130 256> 296 8<717 717> 397.41 7.59 425 7<722 722>
AnchorPoint: "Anchor-14" 0 0 basechar 0
AnchorPoint: "Anchor-13" 0 0 basechar 0
AnchorPoint: "Anchor-12" 376 788 basechar 0
AnchorPoint: "Anchor-11" 452 -9 basechar 0
AnchorPoint: "Anchor-10" 259 0 basechar 0
LayerCount: 2
Back
Fore
SplineSet
373 788 m 0
 416 788 436 761 432 723 c 0
 428 680 398 652 356 652 c 0
 313 652 292 679 296 717 c 0
 300 759 331 788 373 788 c 0
373 781 m 0
 334 781 308 754 304 717 c 0
 300 681 319 659 356 659 c 0
 395 659 421 686 425 722 c 0
 428 758 411 781 373 781 c 0
334 528 m 0
 389 528 430 511 465 487 c 1
 409 118 l 2
 406 98 405 81 405 66 c 0
 405 29 417 8 445 -3 c 1
 442 -9 l 1
 392 10 395 60 400 110 c 1xfe
 356 31 292 -9 227 -9 c 0
 128 -9 72 71 72 185 c 0
 72 327 138 528 334 528 c 0
334 521 m 0
 143 521 80 324 80 185 c 0
 80 75 133 -2 227 -2 c 0
 292 -2 356 40 403 125 c 1
 457 483 l 1
 424 506 383 521 334 521 c 0
EndSplineSet
Substitution2: "'smcp' Lowercase to Small Capitals lookup 28 subtable" aring.sc
Substitution2: "'aalt' Access All Alternates lookup 0 subtable" aring.sc
EndChar

StartChar: ae
Encoding: 230 230 144
Width: 849
GlyphClass: 2
Flags: MW
HStem: -9.22 7.58 217.02 7.13 288.93 7.13 520.28 7.36 520.29 7.36
VStem: 60.07 8.22 394.79 9.53 780.73 8.21001
AnchorPoint: "Anchor-11" 433 0 basechar 0
AnchorPoint: "Anchor-10" 0 0 basechar 0
AnchorPoint: "Anchor-9" 464 518 basechar 0
AnchorPoint: "Anchor-8" 523 8 basechar 0
LayerCount: 2
Fore
SplineSet
300.35 527.64 m 0xef
 374.479 527.64 437.66 482.72 441.37 388.649 c 1
 456.3 420.579 512.93 527.649 647.229 527.649 c 0xef
 725.229 527.649 788.939 486.72 788.939 412.93 c 0
 788.939 302.199 666.779 230.199 403.93 217.02 c 1
 399.149 118.069 431.869 -1.64062 562.509 -1.64062 c 0
 626.869 -1.64062 670.219 19.1396 721.789 56.5 c 1
 726.009 50.21 l 1
 674.009 12 627.719 -9.21973 562.509 -9.21973 c 0
 478.669 -9.21973 424.419 36.8701 404.089 118.84 c 1
 336.129 28.71 276.188 -9.21973 193.858 -9.21973 c 0
 106.219 -9.21973 60.0684 44.7803 60.0684 120.061 c 0
 60.0684 213.561 122.429 296.061 285.139 296.061 c 2
 407.679 296.061 l 1
 416.108 330.351 423.568 352.49 435.068 378.641 c 1
 433.639 475.78 372.139 520.28 300.358 520.28 c 0xf7
 254.139 520.28 207.139 509.07 149.639 486.71 c 1
 147.709 493.64 l 1
 205.069 516.21 253.279 527.64 300.35 527.64 c 0xef
647.23 520.289 m 0
 459.5 520.289 412.511 314.38 404.32 224.149 c 1
 665.53 237.499 780.73 308.399 780.73 412.72 c 0
 780.73 482.069 721.66 520.289 647.23 520.289 c 0
286.012 288.93 m 2
 126.861 288.93 68.292 209.141 68.292 120.07 c 0
 68.292 48.5703 111.722 -1.63965 193.872 -1.63965 c 0
 277.872 -1.63965 335.512 39.79 401.872 126.93 c 1
 392.082 171.29 391.512 220.72 405.781 288.93 c 1
 286.012 288.93 l 2
EndSplineSet
Substitution2: "'smcp' Lowercase to Small Capitals lookup 24 subtable" ae.sc
Substitution2: "'aalt' Access All Alternates lookup 0 subtable" ae.sc
EndChar

StartChar: ccedilla
Encoding: 231 231 150
Width: 467
GlyphClass: 2
Flags: MW
HStem: -205.79 7.36 -9.21001 7.57001 -9.08 7.44 520.29 7.35001
VStem: 74.04 8.11 304.43 8.42999
AnchorPoint: "Anchor-11" 248 -1 basechar 0
AnchorPoint: "Anchor-10" 0 0 basechar 0
AnchorPoint: "Anchor-9" 309 518 basechar 0
AnchorPoint: "Anchor-8" 0 0 basechar 0
LayerCount: 2
Fore
SplineSet
319.21 527.64 m 0xbc
 372.64 527.64 411.497 510.858 443.347 477.648 c 1
 437.707 472.578 l 1
 407.347 504.508 369.997 520.288 319.427 520.288 c 0
 186.207 520.288 103.277 401.508 85.207 243.578 c 0
 66.3574 85.8584 135.207 -1.6416 244.067 -1.6416 c 0xbc
 301.777 -1.6416 343.997 18.9287 382.777 49.2891 c 1
 386.997 43.7891 l 1
 348.137 12.3594 304.427 -9.21094 244.497 -9.21094 c 2
 243.228 -9.21094 l 1
 229.638 -81.2109 l 1xdc
 282.708 -82.8613 312.858 -97.9316 312.858 -136.361 c 0
 312.858 -173.571 283.288 -205.791 230.928 -205.791 c 0
 201.078 -205.791 184.008 -199.141 168.788 -189.141 c 1
 172.788 -182.641 l 1
 187.148 -193.001 204.358 -198.431 230.929 -198.431 c 0
 281.219 -198.431 304.219 -167.28 304.429 -137.21 c 0
 304.648 -103.07 278.929 -87.71 221.648 -86.71 c 1
 236.918 -9.08008 l 1
 126.578 -5.16992 58.5586 84.6797 76.999 243.569 c 0
 95.8594 405.859 180.14 527.64 319.21 527.64 c 0xbc
EndSplineSet
Substitution2: "'smcp' Lowercase to Small Capitals lookup 24 subtable" ccedilla.sc
Substitution2: "'aalt' Access All Alternates lookup 0 subtable" ccedilla.sc
EndChar

StartChar: eacute
Encoding: 233 233 158
Width: 526
GlyphClass: 2
Flags: MW
HStem: -9.21001 7.57001 217.04 7.14 520.29 7.35001
VStem: 72.85 8.22 458.71 8.22
AnchorPoint: "Anchor-11" 233 0 basechar 0
AnchorPoint: "Anchor-10" 0 0 basechar 0
AnchorPoint: "Anchor-9" 309 518 basechar 0
AnchorPoint: "Anchor-8" 343 9 basechar 0
LayerCount: 2
Fore
SplineSet
238.5 659.64 m 1
 236.78 665.709 l 1
 417.78 750.499 l 1
 420.71 742.069 l 1
 238.5 659.64 l 1
466.92 413.139 m 0
 466.92 302.249 344.85 230.349 81.8691 217.039 c 1
 81.3291 208.289 81.0693 199.819 81.0693 191.72 c 0
 81.0693 64.3594 142.069 -1.64062 240.499 -1.64062 c 0
 304.849 -1.64062 348.209 19.1494 399.779 56.499 c 1
 403.989 50.2188 l 1
 351.989 11.999 305.709 -9.21094 240.489 -9.21094 c 0
 136.14 -9.21094 72.8496 61.2188 72.8496 191.499 c 0
 72.8496 317.289 135.35 527.639 324.14 527.639 c 0
 403.21 527.639 466.92 486.709 466.92 413.139 c 0
324.14 520.289 m 0
 156.37 520.289 92 347.43 82.3701 224.18 c 1
 343.7 237.68 458.71 308.5 458.71 412.93 c 0
 458.71 482.069 399.64 520.289 324.14 520.289 c 0
EndSplineSet
Substitution2: "'smcp' Lowercase to Small Capitals lookup 24 subtable" eacute.sc
Substitution2: "'aalt' Access All Alternates lookup 0 subtable" eacute.sc
EndChar

StartChar: ecircumflex
Encoding: 234 234 161
Width: 526
GlyphClass: 2
Flags: MW
HStem: -9.21001 7.57001 217.04 7.14 520.29 7.35001 741.5 8.64
VStem: 72.86 8.21001 458.72 8.21001
AnchorPoint: "Anchor-11" 233 0 basechar 0
AnchorPoint: "Anchor-10" 0 0 basechar 0
AnchorPoint: "Anchor-9" 309 518 basechar 0
AnchorPoint: "Anchor-8" 343 9 basechar 0
LayerCount: 2
Fore
SplineSet
222.5 658.07 m 1
 217.71 662.71 l 1
 342.57 750.14 l 1
 347.57 750.14 l 1
 445.78 662.71 l 1
 441 658.07 l 1
 344.21 741.5 l 1
 222.5 658.07 l 1
466.93 413.14 m 0
 466.93 302.25 344.859 230.35 81.8799 217.04 c 1
 81.3301 208.29 81.0703 199.82 81.0703 191.721 c 0
 81.0703 64.3604 142.07 -1.63965 240.5 -1.63965 c 0
 304.86 -1.63965 348.21 19.1504 399.78 56.5 c 1
 404 50.2197 l 1
 352 12 305.71 -9.20996 240.5 -9.20996 c 0
 136.14 -9.20996 72.8594 61.2197 72.8594 191.5 c 0
 72.8594 317.29 135.359 527.64 324.14 527.64 c 0
 403.21 527.64 466.93 486.71 466.93 413.14 c 0
324.149 520.29 m 0
 156.39 520.29 92 347.431 82.3799 224.181 c 1
 343.71 237.681 458.72 308.501 458.72 412.931 c 0
 458.72 482.07 399.649 520.29 324.149 520.29 c 0
EndSplineSet
Substitution2: "'smcp' Lowercase to Small Capitals lookup 24 subtable" ecircumflex.sc
Substitution2: "'aalt' Access All Alternates lookup 0 subtable" ecircumflex.sc
EndChar

StartChar: edieresis
Encoding: 235 235 162
Width: 526
GlyphClass: 2
Flags: MW
HStem: -9.22 7.58 217.04 7.14 520.28 7.36 677.07 20.14
VStem: 72.86 8.21001 235.64 20.36 389.57 20.36 458.72 8.21001
AnchorPoint: "Anchor-11" 233 0 basechar 0
AnchorPoint: "Anchor-10" 0 0 basechar 0
AnchorPoint: "Anchor-9" 315 614 basechar 0
AnchorPoint: "Anchor-8" 343 9 basechar 0
LayerCount: 2
Fore
SplineSet
245.5 677.07 m 0
 238.93 677.07 235.21 682 235.64 687.57 c 0
 236.069 692.71 239.999 697.21 246.139 697.21 c 0
 252.929 697.21 256.429 692.28 255.999 686.71 c 0
 255.569 681.57 251.85 677.07 245.5 677.07 c 0
399.641 677.07 m 0
 392.86 677.07 389.14 682 389.569 687.57 c 0
 389.999 692.71 393.929 697.21 400.289 697.21 c 0
 406.859 697.21 410.359 692.28 409.93 686.71 c 0
 409.5 681.57 405.78 677.07 399.641 677.07 c 0
466.93 413.141 m 0
 466.93 302.251 344.859 230.339 81.8799 217.039 c 1
 81.3301 208.289 81.0703 199.819 81.0703 191.709 c 0
 81.0703 64.3594 142.07 -1.64062 240.5 -1.64062 c 0
 304.86 -1.64062 348.21 19.1396 399.78 56.5 c 1
 404 50.21 l 1
 352 12 305.71 -9.21973 240.5 -9.21973 c 0
 136.14 -9.21973 72.8594 61.21 72.8594 191.5 c 0
 72.8594 317.28 135.359 527.641 324.14 527.641 c 0
 403.21 527.641 466.93 486.711 466.93 413.141 c 0
324.149 520.278 m 0
 156.39 520.278 92 347.418 82.3799 224.178 c 1
 343.71 237.668 458.72 308.498 458.72 412.918 c 0
 458.72 482.068 399.649 520.278 324.149 520.278 c 0
EndSplineSet
Substitution2: "'smcp' Lowercase to Small Capitals lookup 24 subtable" edieresis.sc
Substitution2: "'aalt' Access All Alternates lookup 0 subtable" edieresis.sc
EndChar

StartChar: igrave
Encoding: 236 236 183
Width: 254
GlyphClass: 2
Flags: MW
HStem: 0 21G 497.64 20G
VStem: 86.63 187.79
AnchorPoint: "Anchor-11" 0 0 basechar 0
AnchorPoint: "Anchor-10" 0 0 basechar 0
AnchorPoint: "Anchor-9" 163 518 basechar 0
AnchorPoint: "Anchor-8" 105 0 basechar 0
LayerCount: 2
Fore
SplineSet
274.42 664.71 m 1
 271.061 659.641 l 1
 112.851 742.07 l 1
 117.49 750.5 l 1
 274.42 664.71 l 1
94.6309 0.000976562 m 1
 86.6309 0.000976562 l 1
 159.061 517.641 l 1
 167.061 517.641 l 1
 94.6309 0.000976562 l 1
EndSplineSet
Substitution2: "'smcp' Lowercase to Small Capitals lookup 24 subtable" igrave.sc
Substitution2: "'aalt' Access All Alternates lookup 0 subtable" igrave.sc
EndChar
StartChar: iacute
Encoding: 237 237 479
Width: 254
GlyphClass: 2
Flags: MW
HStem: 0 21G<87 95 87 87> 498 20G<159 167 167 167>
VStem: 87 194
AnchorPoint: "Anchor-14" 0 0 basechar 0
AnchorPoint: "Anchor-13" 0 0 basechar 0
AnchorPoint: "Anchor-12" 192 751 basechar 0
AnchorPoint: "Anchor-11" 103 0 basechar 0
AnchorPoint: "Anchor-10" 91 0 basechar 0
LayerCount: 2
Back
Fore
SplineSet
278 751 m 1
 281 742 l 1
 99 660 l 1
 97 666 l 1
 278 751 l 1
167 518 m 1
 95 0 l 1
 87 0 l 1
 159 518 l 1
 167 518 l 1
EndSplineSet
Substitution2: "'smcp' Lowercase to Small Capitals lookup 28 subtable" iacute.sc
Substitution2: "'aalt' Access All Alternates lookup 0 subtable" iacute.sc
EndChar
StartChar: icircumflex
Encoding: 238 238 482
Width: 254
GlyphClass: 2
Flags: MW
HStem: 0 21G<87 95 87 87> 498 20G<159 167 167 167> 742 8<195 195>
VStem: 68 228<663 663>
AnchorPoint: "Anchor-14" 0 0 basechar 0
AnchorPoint: "Anchor-13" 0 0 basechar 0
AnchorPoint: "Anchor-12" 196 750 basechar 0
AnchorPoint: "Anchor-11" 103 0 basechar 0
AnchorPoint: "Anchor-10" 91 0 basechar 0
LayerCount: 2
Back
Fore
SplineSet
73 658 m 1
 68 663 l 1
 193 750 l 1
 198 750 l 1
 296 663 l 1
 292 658 l 1
 195 742 l 1
 73 658 l 1
167 518 m 1
 95 0 l 1
 87 0 l 1
 159 518 l 1
 167 518 l 1
EndSplineSet
Substitution2: "'smcp' Lowercase to Small Capitals lookup 28 subtable" icircumflex.sc
Substitution2: "'aalt' Access All Alternates lookup 0 subtable" icircumflex.sc
EndChar

StartChar: idieresis
Encoding: 239 239 181
Width: 254
GlyphClass: 2
Flags: MW
HStem: 0 21G<86.6396 94.6396 86.6396 86.6396> 497.64 20G 677.07 20.14
VStem: 90.06 20.36 243.99 20.36
AnchorPoint: "Anchor-11" 0 0 basechar 0
AnchorPoint: "Anchor-10" 0 0 basechar 0
AnchorPoint: "Anchor-9" 169 614 basechar 0
AnchorPoint: "Anchor-8" 105 0 basechar 0
LayerCount: 2
Fore
SplineSet
100.57 697.21 m 0
 107.36 697.21 110.85 692.28 110.42 686.71 c 0
 109.99 681.57 106.271 677.07 99.9209 677.07 c 0
 93.3506 677.07 89.6309 682 90.0605 687.57 c 0
 90.4902 692.71 94.4199 697.21 100.57 697.21 c 0
254.71 697.21 m 0
 261.28 697.21 264.78 692.28 264.351 686.71 c 0
 263.921 681.57 260.211 677.07 254.061 677.07 c 0
 247.28 677.07 243.561 682 243.99 687.57 c 0
 244.42 692.71 248.35 697.21 254.71 697.21 c 0
94.6396 -0 m 1
 86.6396 -0 l 1
 159.069 517.64 l 1
 167.069 517.64 l 1
 94.6396 -0 l 1
EndSplineSet
Substitution2: "'smcp' Lowercase to Small Capitals lookup 24 subtable" idieresis.sc
Substitution2: "'aalt' Access All Alternates lookup 0 subtable" idieresis.sc
EndChar

StartChar: eth
Encoding: 240 240 154
Width: 543
GlyphClass: 2
Flags: MW
HStem: -9.22 7.57001 450.71 7.57001 715.07 20G 715.35 20G 719.78 20G
VStem: 69.85 8.22 461.3 11.05
LayerCount: 2
Fore
SplineSet
358.35 668.53 m 1xd6
 432.159 609.91 472.349 525.572 472.349 405.132 c 0
 472.349 377.282 470.139 347.212 465.919 315.142 c 0
 434.569 90.8516 350.999 -9.21875 228.279 -9.21875 c 0
 125.499 -9.21875 69.8486 63.001 69.8486 174.641 c 0
 69.8486 285.211 128.499 458.281 287.779 458.281 c 0
 368.35 458.281 423.8 412.361 461.3 344.671 c 1
 470.85 461.711 456.35 581.501 352.27 663.851 c 1
 253.21 573.211 l 1
 246.71 575.931 l 1
 346.64 667.86 l 1
 310.04 695.301 262.48 716.591 215.421 727.921 c 1
 217.921 735.071 l 1
 265.491 723.591 313.051 702.631 352.57 672.601 c 1xe6
 426 739.78 l 1
 431.43 735.351 l 1
 358.35 668.53 l 1xd6
228.278 -1.64746 m 0xce
 347.278 -1.64746 419.357 96.8525 451.647 279.062 c 0
 456.218 304.353 458.788 323.492 459.778 334.893 c 1
 421.878 404.433 368.098 450.713 288.208 450.713 c 0
 133.998 450.713 78.0684 282.283 78.0684 174.633 c 0
 78.0684 66.5625 130.998 -1.64746 228.278 -1.64746 c 0xce
EndSplineSet
Substitution2: "'smcp' Lowercase to Small Capitals lookup 24 subtable" eth.sc
Substitution2: "'aalt' Access All Alternates lookup 0 subtable" eth.sc
EndChar

StartChar: ntilde
Encoding: 241 241 207
Width: 580
GlyphClass: 2
Flags: MW
HStem: 0 21G<86.6299 94.6299 86.6299 86.6299 418.34 426.34 418.34 418.34> 497.64 20G 520.5 7.14 669.43 20G 708.71 20G 713.21 20G
VStem: 473.16 8.00999
AnchorPoint: "Anchor-11" 254 0 basechar 0
AnchorPoint: "Anchor-10" 0 0 basechar 0
AnchorPoint: "Anchor-9" 328 518 basechar 0
AnchorPoint: "Anchor-8" 0 0 basechar 0
LayerCount: 2
Fore
SplineSet
412.14 685.21 m 0xba
 366.14 685.21 339.41 729.21 301.63 729 c 0xba
 275.34 728.78 259.84 718 233.49 693 c 1
 231.2 695 l 1
 256.42 720.71 275.7 733.21 301.63 733.21 c 0xb6
 339.28 733.21 367.71 689.43 411.49 689.43 c 0
 437.21 689.43 454.42 700.64 479.42 728.71 c 1
 481.71 726.71 l 1
 456.85 697.07 437.71 685.21 412.14 685.21 c 0xba
366.06 527.64 m 0xb6
 459.06 527.64 491.77 467.86 478.34 368.21 c 2
 426.34 0 l 1
 418.34 0 l 1
 470.34 367.78 l 2
 483.34 464.71 453.34 520.5 365.41 520.5 c 0xb6
 279.84 520.5 208.84 460.93 140.2 324.93 c 1
 94.6299 0 l 1
 86.6299 -0 l 1
 159.06 517.64 l 1
 165.989 517.64 l 1xd6
 142.489 341.859 l 1
 208.27 472.359 281.34 527.64 366.06 527.64 c 0xb6
EndSplineSet
Substitution2: "'smcp' Lowercase to Small Capitals lookup 24 subtable" ntilde.sc
Substitution2: "'aalt' Access All Alternates lookup 0 subtable" ntilde.sc
EndChar

StartChar: ograve
Encoding: 242 242 213
Width: 559
GlyphClass: 2
Flags: MW
HStem: -9.22 7.57001 520.28 7.36
VStem: 72.85 8.22 478.35 8.22
AnchorPoint: "Anchor-11" 0 0 basechar 0
AnchorPoint: "Anchor-10" 0 0 basechar 0
AnchorPoint: "Anchor-9" 316 518 basechar 0
AnchorPoint: "Anchor-8" 0 0 basechar 0
LayerCount: 2
Fore
SplineSet
427.78 664.71 m 1
 424.421 659.641 l 1
 266.211 742.07 l 1
 270.851 750.5 l 1
 427.78 664.71 l 1
317.781 527.641 m 0
 424.281 527.641 486.571 455.851 486.571 327.78 c 0
 486.571 197.57 428.142 -9.21973 242.422 -9.21973 c 0
 134.922 -9.21973 72.8516 65.21 72.8516 193.07 c 0
 72.8516 326.28 134.281 527.641 317.781 527.641 c 0
317.781 520.28 m 0
 139.142 520.28 81.0713 321.421 81.0713 192.851 c 0
 81.0713 69.2109 139.781 -1.64941 242.432 -1.64941 c 0
 422.002 -1.64941 478.352 200.07 478.352 327.57 c 0
 478.352 451.21 419.852 520.28 317.781 520.28 c 0
EndSplineSet
Substitution2: "'smcp' Lowercase to Small Capitals lookup 24 subtable" ograve.sc
Substitution2: "'aalt' Access All Alternates lookup 0 subtable" ograve.sc
EndChar
StartChar: oacute
Encoding: 243 243 552
Width: 559
GlyphClass: 2
Flags: MW
HStem: -9 7<191 332 191 335> 520 8<228.5 369>
VStem: 73 8<131 257 131 259.5> 478 9<264 389.5>
AnchorPoint: "Anchor-14" 0 0 basechar 0
AnchorPoint: "Anchor-13" 472 518 basechar 0
AnchorPoint: "Anchor-12" 346 751 basechar 0
AnchorPoint: "Anchor-11" 0 0 basechar 0
AnchorPoint: "Anchor-10" 242 0 basechar 0
LayerCount: 2
Back
Fore
SplineSet
432 751 m 1
 435 742 l 1
 253 660 l 1
 251 666 l 1
 432 751 l 1
318 528 m 0
 424 528 487 456 487 328 c 0
 487 198 428 -9 242 -9 c 0
 135 -9 73 65 73 193 c 0
 73 326 134 528 318 528 c 0
318 520 m 0
 139 520 81 321 81 193 c 0
 81 69 140 -2 242 -2 c 0
 422 -2 478 200 478 328 c 0
 478 451 420 520 318 520 c 0
EndSplineSet
Substitution2: "'smcp' Lowercase to Small Capitals lookup 28 subtable" oacute.sc
Substitution2: "'locl' Localized Forms in Latin lookup 7 subtable" oacute.loclPLK
AlternateSubs2: "'aalt' Access All Alternates lookup 1 subtable" oacute.loclPLK oacute.sc
EndChar

StartChar: ocircumflex
Encoding: 244 244 211
Width: 559
GlyphClass: 2
Flags: MW
HStem: -9.21001 7.57001 520.28 7.36 741.5 8.64
VStem: 72.85 8.22 478.35 8.22
AnchorPoint: "Anchor-11" 0 0 basechar 0
AnchorPoint: "Anchor-10" 0 0 basechar 0
AnchorPoint: "Anchor-9" 316 518 basechar 0
AnchorPoint: "Anchor-8" 0 0 basechar 0
LayerCount: 2
Fore
SplineSet
225.5 662.71 m 1
 350.351 750.14 l 1
 355.351 750.14 l 1
 453.57 662.71 l 1
 448.78 658.07 l 1
 352 741.5 l 1
 230.28 658.07 l 1
 225.5 662.71 l 1
317.78 527.64 m 0
 424.28 527.64 486.57 455.861 486.57 327.791 c 0
 486.57 197.571 428.141 -9.20898 242.421 -9.20898 c 0
 134.921 -9.20898 72.8506 65.2207 72.8506 193.07 c 0
 72.8506 326.29 134.28 527.64 317.78 527.64 c 0
317.78 520.292 m 0
 139.141 520.292 81.0703 321.432 81.0703 192.861 c 0
 81.0703 69.2109 139.78 -1.63867 242.431 -1.63867 c 0
 422.001 -1.63867 478.351 200.071 478.351 327.571 c 0
 478.351 451.222 419.851 520.292 317.78 520.292 c 0
EndSplineSet
Substitution2: "'smcp' Lowercase to Small Capitals lookup 24 subtable" ocircumflex.sc
Substitution2: "'aalt' Access All Alternates lookup 0 subtable" ocircumflex.sc
EndChar

StartChar: otilde
Encoding: 245 245 218
Width: 559
GlyphClass: 2
Flags: MW
HStem: -9.21001 7.57001 520.28 7.36 669.43 20G 708.71 20G<468.14 468.14> 713.21 20G<277.386 309.17>
VStem: 72.84 8.22 478.34 8.22
AnchorPoint: "Anchor-11" 0 0 basechar 0
AnchorPoint: "Anchor-10" 0 0 basechar 0
AnchorPoint: "Anchor-9" 316 518 basechar 0
AnchorPoint: "Anchor-8" 0 0 basechar 0
LayerCount: 2
Fore
SplineSet
400.85 685.21 m 0xf6
 354.85 685.21 328.132 729.21 290.342 729 c 0xf6
 264.062 728.78 248.562 718 222.201 693 c 1
 219.921 695 l 1
 245.131 720.71 264.421 733.21 290.351 733.21 c 0xee
 327.99 733.21 356.42 689.43 400.21 689.43 c 0
 425.92 689.43 443.14 700.64 468.14 728.71 c 1
 470.42 726.71 l 1
 445.57 697.07 426.42 685.21 400.85 685.21 c 0xf6
317.771 527.64 m 0xee
 424.271 527.64 486.562 455.861 486.562 327.791 c 0
 486.562 197.571 428.132 -9.20898 242.412 -9.20898 c 0
 134.912 -9.20898 72.8418 65.2207 72.8418 193.07 c 0
 72.8418 326.29 134.271 527.64 317.771 527.64 c 0xee
317.771 520.292 m 0
 139.132 520.292 81.0615 321.432 81.0615 192.861 c 0
 81.0615 69.2109 139.771 -1.63867 242.422 -1.63867 c 0
 421.992 -1.63867 478.342 200.071 478.342 327.571 c 0
 478.342 451.222 419.842 520.292 317.771 520.292 c 0
EndSplineSet
Substitution2: "'smcp' Lowercase to Small Capitals lookup 24 subtable" otilde.sc
Substitution2: "'aalt' Access All Alternates lookup 0 subtable" otilde.sc
EndChar

StartChar: odieresis
Encoding: 246 246 212
Width: 559
GlyphClass: 2
Flags: MW
HStem: -9.21001 7.57001 520.28 7.36 677.07 20.14
VStem: 72.86 8.21001 243.42 20.36 397.35 20.36 478.36 8.21001
AnchorPoint: "Anchor-11" 0 0 basechar 0
AnchorPoint: "Anchor-10" 0 0 basechar 0
AnchorPoint: "Anchor-9" 322 614 basechar 0
AnchorPoint: "Anchor-8" 0 0 basechar 0
LayerCount: 2
Fore
SplineSet
253.93 697.21 m 0
 260.72 697.21 264.209 692.28 263.779 686.71 c 0
 263.35 681.57 259.63 677.07 253.28 677.07 c 0
 246.71 677.07 242.99 682 243.42 687.57 c 0
 243.85 692.71 247.779 697.21 253.93 697.21 c 0
408.069 697.21 m 0
 414.64 697.21 418.14 692.28 417.71 686.71 c 0
 417.28 681.57 413.57 677.07 407.42 677.07 c 0
 400.64 677.07 396.92 682 397.35 687.57 c 0
 397.779 692.71 401.709 697.21 408.069 697.21 c 0
317.789 527.64 m 0
 424.289 527.64 486.569 455.861 486.569 327.791 c 0
 486.569 197.571 428.14 -9.20898 242.43 -9.20898 c 0
 134.93 -9.20898 72.8594 65.2207 72.8594 193.07 c 0
 72.8594 326.29 134.289 527.64 317.789 527.64 c 0
317.789 520.292 m 0
 139.139 520.292 81.0693 321.432 81.0693 192.861 c 0
 81.0693 69.2109 139.789 -1.63867 242.429 -1.63867 c 0
 421.999 -1.63867 478.359 200.071 478.359 327.571 c 0
 478.359 451.222 419.859 520.292 317.789 520.292 c 0
EndSplineSet
Substitution2: "'smcp' Lowercase to Small Capitals lookup 24 subtable" odieresis.sc
Substitution2: "'aalt' Access All Alternates lookup 0 subtable" odieresis.sc
EndChar
StartChar: oslash
Encoding: 248 248 586
Width: 559
GlyphClass: 2
Flags: MW
HStem: -9 7<228 332 228 335> 520 8<228.5 331.5>
VStem: 73 8<150 257 150 259.5> 478 9<264 371>
AnchorPoint: "Anchor-14" 0 0 basechar 0
AnchorPoint: "Anchor-13" 0 0 basechar 0
AnchorPoint: "Anchor-12" 316 518 basechar 0
AnchorPoint: "Anchor-11" 0 0 basechar 0
AnchorPoint: "Anchor-10" 241 0 basechar 0
LayerCount: 2
Back
Fore
SplineSet
108 -114 m 1
 101 -112 l 1
 158 10 l 1
 104 40 73 103 73 193 c 0
 73 326 134 528 318 528 c 0
 346 528 373 522 395 513 c 1
 451 633 l 1
 458 631 l 1
 402 509 l 1
 457 480 487 417 487 328 c 0
 487 198 428 -9 242 -9 c 0
 213 -9 188 -4 165 7 c 1
 108 -114 l 1
162 17 m 1
 391 505 l 1
 370 515 345 520 318 520 c 0
 139 520 81 321 81 193 c 0
 81 107 110 46 162 17 c 1
242 -2 m 0
 422 -2 478 200 478 328 c 0
 478 414 450 474 398 502 c 1
 168 14 l 1
 190 4 214 -2 242 -2 c 0
EndSplineSet
Substitution2: "'smcp' Lowercase to Small Capitals lookup 28 subtable" oslash.sc
Substitution2: "'aalt' Access All Alternates lookup 0 subtable" oslash.sc
EndChar

StartChar: ugrave
Encoding: 249 249 244
Width: 575
GlyphClass: 2
Flags: MW
HStem: -9.22 7.57001 -0.00999451 21G 497.64 20G
VStem: 100.29 8.00999
AnchorPoint: "Anchor-11" 0 0 basechar 0
AnchorPoint: "Anchor-10" 0 0 basechar 0
AnchorPoint: "Anchor-9" 324 518 basechar 0
AnchorPoint: "Anchor-8" 426 0 basechar 0
LayerCount: 2
Fore
SplineSet
435.14 664.71 m 1
 431.78 659.641 l 1
 273.57 742.07 l 1
 278.21 750.5 l 1
 435.14 664.71 l 1
416.351 0.000976562 m 1x70
 409.85 -0.00976562 l 1x70
 432.939 166.08 l 1
 384.59 54.6104 308.979 -9.21973 221.63 -9.21973 c 0
 134.63 -9.21973 88.6299 46.21 102.85 149.99 c 2
 154.06 517.641 l 1
 162.06 517.641 l 1
 110.85 149.99 l 2
 97.0596 50.1406 140.13 -1.64941 222.28 -1.64941 c 0xb0
 309.59 -1.64941 383.82 65.0811 433.99 181.041 c 1
 480.78 517.641 l 1
 488.78 517.641 l 1
 416.351 0.000976562 l 1x70
EndSplineSet
Substitution2: "'smcp' Lowercase to Small Capitals lookup 24 subtable" ugrave.sc
Substitution2: "'aalt' Access All Alternates lookup 0 subtable" ugrave.sc
EndChar
StartChar: uacute
Encoding: 250 250 658
Width: 575
GlyphClass: 2
Flags: MW
HStem: -9 7<180.5 264.5> 0 21G<409 416 409 409> 498 20G<153 161 161 161 480 488 488 488>
VStem: 99.52 7.86
AnchorPoint: "Anchor-14" 0 0 basechar 0
AnchorPoint: "Anchor-13" 498 518 basechar 0
AnchorPoint: "Anchor-12" 350 751 basechar 0
AnchorPoint: "Anchor-11" 426 0 basechar 0
AnchorPoint: "Anchor-10" 250 0 basechar 0
LayerCount: 2
Back
Fore
SplineSet
436 751 m 1
 439 742 l 1
 257 660 l 1
 255 666 l 1
 436 751 l 1
488 518 m 1
 416 0 l 1
 409 0 l 1x70
 432 166 l 1
 384 55 308 -9 221 -9 c 0
 134 -9 88 46 102 150 c 2
 153 518 l 1
 161 518 l 1
 110 150 l 2
 96 50 139 -2 222 -2 c 0
 309 -2 383 65 433 181 c 1
 480 518 l 1
 488 518 l 1
EndSplineSet
Substitution2: "'smcp' Lowercase to Small Capitals lookup 28 subtable" uacute.sc
Substitution2: "'aalt' Access All Alternates lookup 0 subtable" uacute.sc
EndChar
StartChar: ucircumflex
Encoding: 251 251 662
Width: 575
GlyphClass: 2
Flags: MW
HStem: -9 7<180.5 264.5> 0 21G<409 416 409 409> 498 20G<153 161 161 161 480 488 488 488> 742 8<353 353>
VStem: 99.52 7.86
AnchorPoint: "Anchor-14" 0 0 basechar 0
AnchorPoint: "Anchor-13" 498 518 basechar 0
AnchorPoint: "Anchor-12" 354 750 basechar 0
AnchorPoint: "Anchor-11" 426 0 basechar 0
AnchorPoint: "Anchor-10" 250 0 basechar 0
LayerCount: 2
Back
Fore
SplineSet
231 658 m 1
 226 663 l 1
 351 750 l 1
 356 750 l 1
 454 663 l 1
 450 658 l 1
 353 742 l 1
 231 658 l 1
488 518 m 1
 416 0 l 1
 409 0 l 1x78
 432 166 l 1
 384 55 308 -9 221 -9 c 0
 134 -9 88 46 102 150 c 2
 153 518 l 1
 161 518 l 1
 110 150 l 2
 96 50 139 -2 222 -2 c 0
 309 -2 383 65 433 181 c 1
 480 518 l 1
 488 518 l 1
EndSplineSet
Substitution2: "'smcp' Lowercase to Small Capitals lookup 28 subtable" ucircumflex.sc
Substitution2: "'aalt' Access All Alternates lookup 0 subtable" ucircumflex.sc
EndChar

StartChar: udieresis
Encoding: 252 252 243
Width: 575
GlyphClass: 2
Flags: MW
HStem: -9.22 7.57001 -0.00999451 21G 497.64 20G 677.07 20.14
VStem: 100.29 8.00999 250.78 20.35 404.71 20.36
AnchorPoint: "Anchor-11" 0 0 basechar 0
AnchorPoint: "Anchor-10" 0 0 basechar 0
AnchorPoint: "Anchor-9" 330 614 basechar 0
AnchorPoint: "Anchor-8" 426 0 basechar 0
LayerCount: 2
Fore
SplineSet
261.28 697.21 m 0
 268.061 697.21 271.562 692.28 271.132 686.71 c 0
 270.702 681.57 266.992 677.07 260.632 677.07 c 0
 254.062 677.07 250.352 682 250.781 687.57 c 0
 251.211 692.71 255.141 697.21 261.28 697.21 c 0
415.421 697.21 m 0
 421.991 697.21 425.501 692.28 425.071 686.71 c 0
 424.642 681.57 420.922 677.07 414.782 677.07 c 0
 407.992 677.07 404.282 682 404.712 687.57 c 0
 405.142 692.71 409.071 697.21 415.421 697.21 c 0
416.36 -0 m 1x7e
 409.851 -0.0107422 l 1x7e
 432.95 166.079 l 1
 384.601 54.6094 308.99 -9.2207 221.641 -9.2207 c 0
 134.641 -9.2207 88.6406 46.209 102.851 149.989 c 2
 154.07 517.64 l 1
 162.07 517.64 l 1
 110.851 149.989 l 2
 97.0703 50.1396 140.141 -1.65039 222.28 -1.65039 c 0xbe
 309.59 -1.65039 383.83 65.0801 433.99 181.04 c 1
 480.78 517.64 l 1
 488.78 517.64 l 1
 416.36 -0 l 1x7e
EndSplineSet
Substitution2: "'smcp' Lowercase to Small Capitals lookup 24 subtable" udieresis.sc
Substitution2: "'aalt' Access All Alternates lookup 0 subtable" udieresis.sc
EndChar

StartChar: yacute
Encoding: 253 253 258
Width: 437
GlyphClass: 2
Flags: MW
HStem: -190.71 21G 0.220001 21G 497.65 20G
VStem: -3.28999 448.65
AnchorPoint: "Anchor-11" 0 0 basechar 0
AnchorPoint: "Anchor-10" 0 0 basechar 0
AnchorPoint: "Anchor-9" 253 518 basechar 0
AnchorPoint: "Anchor-8" 0 0 basechar 0
LayerCount: 2
Fore
SplineSet
365.07 742.07 m 1
 182.851 659.649 l 1
 181.141 665.72 l 1
 362.141 750.5 l 1
 365.07 742.07 l 1
194.501 -0.640625 m 2
 139.281 -113.28 107.071 -160.281 -2.64844 -190.711 c 1
 -3.28809 -184.001 l 1
 103.352 -153.781 132.352 -109.211 186.502 0.21875 c 1
 182.142 -0.000976562 l 1
 64.0713 517.649 l 1
 72.501 517.649 l 1
 188.861 5.49902 l 1
 436.501 517.649 l 1
 445.361 517.649 l 1
 194.501 -0.640625 l 2
EndSplineSet
Substitution2: "'smcp' Lowercase to Small Capitals lookup 24 subtable" yacute.sc
Substitution2: "'aalt' Access All Alternates lookup 0 subtable" yacute.sc
EndChar
StartChar: thorn
Encoding: 254 254 598
Width: 566
GlyphClass: 2
Flags: MW
HStem: -192 21G<59 59> -9 7<218.5 334 217.5 336.5> 520 8<301.5 388> 712 20G<197 197>
VStem: 482 8<274.5 397.5>
LayerCount: 2
Back
Fore
SplineSet
342 528 m 0
 439 528 490 460 490 339 c 0
 490 206 427 -9 246 -9 c 0
 191 -9 150 1 98 24 c 1
 68 -190 l 1
 59 -192 l 1
 189 731 l 1
 197 732 l 1
 154 426 l 1
 203 484 261 528 342 528 c 0
246 -2 m 0
 422 -2 482 210 482 339 c 0
 482 456 434 520 342 520 c 0
 261 520 207 479 153 416 c 1
 99 31 l 1
 151 9 189 -2 246 -2 c 0
EndSplineSet
Substitution2: "'smcp' Lowercase to Small Capitals lookup 28 subtable" thorn.sc
Substitution2: "'aalt' Access All Alternates lookup 0 subtable" thorn.sc
EndChar

StartChar: ydieresis
Encoding: 255 255 260
Width: 437
GlyphClass: 2
Flags: MW
HStem: -190.72 21G 0.210007 21G 497.64 20G 677.07 20.14
VStem: 179.99 20.36 333.92 20.36
AnchorPoint: "Anchor-11" 0 0 basechar 0
AnchorPoint: "Anchor-10" 0 0 basechar 0
AnchorPoint: "Anchor-9" 259 614 basechar 0
AnchorPoint: "Anchor-8" 0 0 basechar 0
LayerCount: 2
Fore
SplineSet
190.5 697.21 m 0
 197.29 697.21 200.779 692.28 200.35 686.71 c 0
 199.92 681.57 196.2 677.07 189.851 677.07 c 0
 183.28 677.07 179.561 682 179.99 687.57 c 0
 180.42 692.71 184.35 697.21 190.5 697.21 c 0
344.64 697.21 m 0
 351.21 697.21 354.71 692.28 354.28 686.71 c 0
 353.851 681.57 350.141 677.07 343.99 677.07 c 0
 337.21 677.07 333.49 682 333.92 687.57 c 0
 334.35 692.71 338.279 697.21 344.64 697.21 c 0
194.5 -0.639648 m 2
 139.28 -113.29 107.07 -160.289 -2.64941 -190.719 c 1
 -3.28906 -183.999 l 1
 103.351 -153.789 132.351 -109.219 186.501 0.210938 c 1
 182.141 0.000976562 l 1
 64.0703 517.641 l 1
 72.5 517.641 l 1
 188.86 5.50098 l 1
 436.5 517.641 l 1
 445.36 517.641 l 1
 194.5 -0.639648 l 2
EndSplineSet
Substitution2: "'smcp' Lowercase to Small Capitals lookup 24 subtable" ydieresis.sc
Substitution2: "'aalt' Access All Alternates lookup 0 subtable" ydieresis.sc
EndChar

StartChar: Amacron
Encoding: 256 256 7
Width: 556
GlyphClass: 2
Flags: MW
HStem: 0 21G<-3.58008 5.26953 -3.58008 -3.58008 478.92 478.92 478.92 487.35> 210 7.78 671.93 8.5 813.71 7.78999
VStem: -3.58 490.93
AnchorPoint: "Anchor-11" 0 0 basechar 0
AnchorPoint: "Anchor-10" 198 518 basechar 0
AnchorPoint: "Anchor-9" 337 680 basechar 0
AnchorPoint: "Anchor-8" 497 0 basechar 0
LayerCount: 2
Fore
SplineSet
453.35 813.71 m 1
 258.21 813.71 l 1
 259.28 821.5 l 1
 454.42 821.5 l 1
 453.35 813.71 l 1
434.18 210 m 1
 108.56 210 l 1
 5.26953 0 l 1
 -3.58008 -0 l 1
 332.35 680.43 l 1
 341.279 680.43 l 1
 487.35 0 l 1
 478.92 0 l 1
 434.18 210 l 1
432.52 217.78 m 1
 335.77 671.931 l 1
 112.39 217.78 l 1
 432.52 217.78 l 1
EndSplineSet
Substitution2: "'c2sc' Capitals to Small Capitals lookup 23 subtable" amacron.sc
Substitution2: "'aalt' Access All Alternates lookup 0 subtable" amacron.sc
Position2: "'cpsp' Capital Spacing lookup 0 subtable" dx=5 dy=0 dh=10 dv=0
EndChar

StartChar: amacron
Encoding: 257 257 140
Width: 541
GlyphClass: 2
Flags: MW
HStem: -9.22 7.58 520.5 7.14 687.71 7.78999
VStem: 72.07 8.21001 398.11 44.1
AnchorPoint: "Anchor-11" 0 0 basechar 0
AnchorPoint: "Anchor-10" 0 0 basechar 0
AnchorPoint: "Anchor-9" 336 518 basechar 0
AnchorPoint: "Anchor-8" 452 -9 basechar 0
LayerCount: 2
Fore
SplineSet
262.14 687.71 m 1
 263.21 695.5 l 1
 458.35 695.5 l 1
 457.279 687.71 l 1
 262.14 687.71 l 1
334.21 527.64 m 0
 388.92 527.64 429.922 510.989 465.422 487.209 c 1
 409.422 118.419 l 2
 406.642 97.709 404.852 80.7793 404.852 65.8496 c 0
 404.852 29.2793 416.852 7.84961 444.922 -2.7207 c 1
 442.212 -9.2207 l 1
 392.062 9.62891 395.212 60.2793 401.422 111.989 c 1
 356.352 30.9893 292.281 -9.2207 227.001 -9.2207 c 0
 128.351 -9.2207 72.0703 70.4893 72.0703 185.14 c 0
 72.0703 327.279 137.92 527.64 334.21 527.64 c 0
334.422 520.5 m 0
 143.422 520.5 80.2822 323.499 80.2822 185.359 c 0
 80.2822 74.709 132.992 -1.64062 227.212 -1.64062 c 0
 292.492 -1.64062 355.922 39.7891 402.712 125.069 c 1
 457.212 483.43 l 1
 423.852 506.14 383.642 520.5 334.422 520.5 c 0
EndSplineSet
Substitution2: "'smcp' Lowercase to Small Capitals lookup 24 subtable" amacron.sc
Substitution2: "'aalt' Access All Alternates lookup 0 subtable" amacron.sc
EndChar
StartChar: Abreve
Encoding: 258 258 4
Width: 556
GlyphClass: 2
Flags: MW
HStem: 0 21G<-3 5 -3 -3 479 487 479 479> 210 8<112 433 112 434 108 433> 672 8<336 336>
VStem: -3 490<0 0>
AnchorPoint: "Anchor-14" 0 0 basechar 0
AnchorPoint: "Anchor-13" 0 0 basechar 0
AnchorPoint: "Anchor-12" 357 840 basechar 0
AnchorPoint: "Anchor-11" 497 0 basechar 0
AnchorPoint: "Anchor-10" 242 0 basechar 0
LayerCount: 2
Back
Fore
SplineSet
347 775 m 0
 296 775 264 803 257 839 c 1
 260 839 l 1
 267 809 294 779 347 779 c 0
 401 779 435 809 450 839 c 1
 453 838 l 1
 436 802 397 775 347 775 c 0
479 0 m 1
 434 210 l 1
 108 210 l 1
 5 0 l 1
 -3 0 l 1
 332 680 l 1
 341 680 l 1
 487 0 l 1
 479 0 l 1
112 218 m 1
 433 218 l 1
 336 672 l 1
 112 218 l 1
EndSplineSet
Substitution2: "'c2sc' Capitals to Small Capitals lookup 27 subtable" abreve.sc
Substitution2: "'aalt' Access All Alternates lookup 0 subtable" abreve.sc
Position2: "'cpsp' Capital Spacing lookup 0 subtable" dx=5 dy=0 dh=10 dv=0
EndChar
StartChar: abreve
Encoding: 259 259 337
Width: 542
GlyphClass: 2
Flags: MW
HStem: -9 7<180 259.5 180 259.5> 521 7<238.5 358.5> 665 8<331 379 331 383> 719 20G<465 465> 720 20G<265 265>
VStem: 72 8<130 254.5 130 256> 265 7<740 741> 397.41 7.59
AnchorPoint: "Anchor-14" 0 0 basechar 0
AnchorPoint: "Anchor-13" 0 0 basechar 0
AnchorPoint: "Anchor-12" 367 742 basechar 0
AnchorPoint: "Anchor-11" 452 -9 basechar 0
AnchorPoint: "Anchor-10" 259 0 basechar 0
LayerCount: 2
Back
Fore
SplineSet
355 665 m 0xef
 299 665 270 698 265 740 c 1
 272 741 l 1xef
 278 697 307 673 355 673 c 0
 403 673 440 698 459 742 c 1
 465 739 l 1xf7
 448 698 411 665 355 665 c 0xef
334 528 m 0
 389 528 430 511 465 487 c 1
 409 118 l 2
 406 98 405 81 405 66 c 0
 405 29 417 8 445 -3 c 1
 442 -9 l 1
 392 10 395 60 400 110 c 1
 356 31 292 -9 227 -9 c 0
 128 -9 72 71 72 185 c 0
 72 327 138 528 334 528 c 0
334 521 m 0
 143 521 80 324 80 185 c 0
 80 75 133 -2 227 -2 c 0
 292 -2 356 40 403 125 c 1
 457 483 l 1
 424 506 383 521 334 521 c 0
EndSplineSet
Substitution2: "'smcp' Lowercase to Small Capitals lookup 28 subtable" abreve.sc
Substitution2: "'aalt' Access All Alternates lookup 0 subtable" abreve.sc
EndChar

StartChar: Aogonek
Encoding: 260 260 8
Width: 556
GlyphClass: 2
Flags: MW
HStem: -196.56 8 0 21G 0.580002 21G 210 7.78999 671.94 8.49001
VStem: 328.92 8.64999
AnchorPoint: "Anchor-11" 0 0 basechar 0
AnchorPoint: "Anchor-10" 198 518 basechar 0
AnchorPoint: "Anchor-9" 337 680 basechar 0
AnchorPoint: "Anchor-8" 497 0 basechar 0
LayerCount: 2
Fore
SplineSet
337.57 -130.07 m 0xbc
 337.57 -169.141 362.213 -188.561 402.713 -188.561 c 0
 420.923 -188.561 434.143 -186.561 456.923 -180.99 c 1
 454.853 -188.99 l 1
 433.282 -194.561 419.853 -196.561 401.072 -196.561 c 0
 355.922 -196.561 328.922 -174.211 328.922 -132.641 c 0
 328.922 -63.541 403.592 -25.3711 478.432 2.29883 c 1
 434.182 209.999 l 1
 108.571 209.999 l 1
 5.28125 -0.000976562 l 1
 -3.5791 -0.000976562 l 1xdc
 332.351 680.429 l 1
 341.28 680.429 l 1
 487.23 0.579102 l 1
 487.57 -0.000976562 l 1
 393.78 -34.4307 337.57 -73.0703 337.57 -130.07 c 0xbc
432.522 217.789 m 1
 335.782 671.939 l 1
 112.402 217.789 l 1
 432.522 217.789 l 1
EndSplineSet
Substitution2: "'c2sc' Capitals to Small Capitals lookup 23 subtable" aogonek.sc
Substitution2: "'aalt' Access All Alternates lookup 0 subtable" aogonek.sc
Position2: "'cpsp' Capital Spacing lookup 0 subtable" dx=5 dy=0 dh=10 dv=0
EndChar
StartChar: aogonek
Encoding: 261 261 362
Width: 542
GlyphClass: 2
Flags: MW
HStem: -206 8<337 365.5> -9 7<180 259.5 180 259.5> -6 21G -3 21G<445 445> 521 7<238.5 358.5>
VStem: 72 8<130 254.5 130 256> 284 8<-158.5 -110.5 -158.5 -107.5> 397.31 7.69
AnchorPoint: "Anchor-14" 0 0 basechar 0
AnchorPoint: "Anchor-13" 0 0 basechar 0
AnchorPoint: "Anchor-12" 336 518 basechar 0
AnchorPoint: "Anchor-11" 452 -9 basechar 0
AnchorPoint: "Anchor-10" 259 0 basechar 0
LayerCount: 2
Back
Fore
SplineSet
405 66 m 0xcf
 405 29 417 8 445 -3 c 1
 442 -9 l 1x9f
 348 -43 292 -82 292 -139 c 0
 292 -178 317 -198 357 -198 c 0
 376 -198 389 -196 412 -190 c 1
 410 -198 l 1
 388 -204 375 -206 356 -206 c 0
 311 -206 284 -183 284 -142 c 0
 284 -73 359 -34 435 -6 c 1xaf
 392 15 395 63 400 110 c 1
 356 31 292 -9 227 -9 c 0
 128 -9 72 71 72 185 c 0
 72 327 138 528 334 528 c 0
 389 528 430 511 465 487 c 1
 409 118 l 2
 406 98 405 81 405 66 c 0xcf
227 -2 m 0
 292 -2 356 40 403 125 c 1
 457 483 l 1
 424 506 383 521 334 521 c 0
 143 521 80 324 80 185 c 0
 80 75 133 -2 227 -2 c 0
EndSplineSet
Substitution2: "'smcp' Lowercase to Small Capitals lookup 28 subtable" aogonek.sc
Substitution2: "'aalt' Access All Alternates lookup 0 subtable" aogonek.sc
EndChar

StartChar: Cacute
Encoding: 262 262 15
Width: 532
GlyphClass: 2
Flags: MW
HStem: -9.21001 8 682.65 7.78
VStem: 88.64 8.22
AnchorPoint: "Anchor-11" 305 0 basechar 0
AnchorPoint: "Anchor-10" 0 0 basechar 0
AnchorPoint: "Anchor-9" 402 680 basechar 0
AnchorPoint: "Anchor-8" 0 0 basechar 0
LayerCount: 2
Fore
SplineSet
511.14 839.36 m 1
 331.851 768.859 l 1
 329.78 774.93 l 1
 508 847.79 l 1
 511.14 839.36 l 1
403.001 690.43 m 0
 477.001 690.43 517.641 665.078 549.791 633.008 c 1
 544.931 626.728 l 1
 510.791 659.798 475.001 682.647 403.431 682.647 c 0
 170.501 682.647 96.8613 424.218 96.8613 254.508 c 0
 96.8613 87.2178 178.861 -1.21191 305.211 -1.21191 c 0
 385.141 -1.21191 435.211 29.0781 473.141 57.5781 c 1
 477.791 50.8584 l 1
 439.001 21.5088 385.931 -9.21094 305.001 -9.21094 c 0
 172.791 -9.21094 88.6406 83.0088 88.6406 254.289 c 0
 88.6406 431.359 166.001 690.43 403.001 690.43 c 0
EndSplineSet
Substitution2: "'c2sc' Capitals to Small Capitals lookup 23 subtable" cacute.sc
Substitution2: "'locl' Localized Forms in Latin lookup 7 subtable" Cacute.loclPLK
AlternateSubs2: "'aalt' Access All Alternates lookup 1 subtable" Cacute.loclPLK cacute.sc
Position2: "'cpsp' Capital Spacing lookup 0 subtable" dx=5 dy=0 dh=10 dv=0
EndChar

StartChar: cacute
Encoding: 263 263 148
Width: 467
GlyphClass: 2
Flags: MW
HStem: -9.21001 7.57001 520.29 7.35001
VStem: 74.06 8.09
AnchorPoint: "Anchor-11" 248 -1 basechar 0
AnchorPoint: "Anchor-10" 0 0 basechar 0
AnchorPoint: "Anchor-9" 309 518 basechar 0
AnchorPoint: "Anchor-8" 0 0 basechar 0
LayerCount: 2
Fore
SplineSet
421.14 742.07 m 1
 238.92 659.64 l 1
 237.21 665.71 l 1
 418.21 750.5 l 1
 421.14 742.07 l 1
319.21 527.64 m 0
 372.64 527.64 411.5 510.858 443.35 477.648 c 1
 437.71 472.578 l 1
 407.35 504.508 370 520.288 319.43 520.288 c 0
 186.21 520.288 103.28 401.508 85.21 243.578 c 0
 66.3604 85.8584 135.21 -1.6416 244.07 -1.6416 c 0
 301.78 -1.6416 344 18.9287 382.78 49.2891 c 1
 387 43.7891 l 1
 348.14 12.3594 304.43 -9.21094 244.5 -9.21094 c 0
 129.71 -9.21094 58.1396 81.0693 77 243.569 c 0
 95.8496 405.859 180.14 527.64 319.21 527.64 c 0
EndSplineSet
Substitution2: "'smcp' Lowercase to Small Capitals lookup 24 subtable" cacute.sc
Substitution2: "'locl' Localized Forms in Latin lookup 7 subtable" cacute.loclPLK
AlternateSubs2: "'aalt' Access All Alternates lookup 1 subtable" cacute.loclPLK cacute.sc
EndChar
StartChar: Ccircumflex
Encoding: 264 264 46
Width: 532
GlyphClass: 2
Flags: MW
HStem: -9 8<242 345 242 345.5> 683 7<287 439> 847 9<422 422>
VStem: 89 8<171 339.5 171 342.5>
AnchorPoint: "Anchor-14" 0 0 basechar 0
AnchorPoint: "Anchor-13" 482 706 basechar 0
AnchorPoint: "Anchor-12" 423 856 basechar 0
AnchorPoint: "Anchor-11" 0 0 basechar 0
AnchorPoint: "Anchor-10" 305 0 basechar 0
LayerCount: 2
Back
Fore
SplineSet
522 769 m 1
 422 847 l 1
 303 769 l 1
 298 774 l 1
 421 856 l 1
 426 856 l 1
 527 774 l 1
 522 769 l 1
403 690 m 0
 477 690 518 665 550 633 c 1
 545 627 l 1
 511 660 475 683 403 683 c 0
 171 683 97 424 97 255 c 0
 97 87 179 -1 305 -1 c 0
 385 -1 435 29 473 58 c 1
 478 51 l 1
 439 22 386 -9 305 -9 c 0
 173 -9 89 83 89 254 c 0
 89 431 166 690 403 690 c 0
EndSplineSet
Substitution2: "'c2sc' Capitals to Small Capitals lookup 27 subtable" ccircumflex.sc
Substitution2: "'aalt' Access All Alternates lookup 0 subtable" ccircumflex.sc
Position2: "'cpsp' Capital Spacing lookup 0 subtable" dx=5 dy=0 dh=10 dv=0
EndChar
StartChar: ccircumflex
Encoding: 265 265 384
Width: 467
GlyphClass: 2
Flags: MW
HStem: -9 7<195 273 195 274> 520 8<239 344.5> 742 8<341 341>
VStem: 74 8<130.5 274.5 130.5 276>
AnchorPoint: "Anchor-14" 0 0 basechar 0
AnchorPoint: "Anchor-13" 0 0 basechar 0
AnchorPoint: "Anchor-12" 342 750 basechar 0
AnchorPoint: "Anchor-11" 0 0 basechar 0
AnchorPoint: "Anchor-10" 248 -1 basechar 0
LayerCount: 2
Back
Fore
SplineSet
219 658 m 1
 214 663 l 1
 339 750 l 1
 344 750 l 1
 442 663 l 1
 438 658 l 1
 341 742 l 1
 219 658 l 1
319 528 m 0
 372 528 411 511 443 478 c 1
 438 473 l 1
 407 504 370 520 319 520 c 0
 159 520 82 354 82 195 c 0
 82 66 146 -2 244 -2 c 0
 302 -2 344 19 383 49 c 1
 387 44 l 1
 348 12 304 -9 244 -9 c 0
 142 -9 74 62 74 195 c 0
 74 357 154 528 319 528 c 0
EndSplineSet
Substitution2: "'smcp' Lowercase to Small Capitals lookup 28 subtable" ccircumflex.sc
Substitution2: "'aalt' Access All Alternates lookup 0 subtable" ccircumflex.sc
EndChar
StartChar: Cdotaccent
Encoding: 266 266 47
Width: 532
GlyphClass: 2
Flags: MW
HStem: -9 8<242 345 242 345.5> 683 7<287 439> 817 20<421 426.5>
VStem: 89 8<171 339.5 171 342.5> 413 21<827 828>
AnchorPoint: "Anchor-14" 0 0 basechar 0
AnchorPoint: "Anchor-13" 0 0 basechar 0
AnchorPoint: "Anchor-12" 424 837 basechar 0
AnchorPoint: "Anchor-11" 0 0 basechar 0
AnchorPoint: "Anchor-10" 305 0 basechar 0
LayerCount: 2
Back
Fore
SplineSet
424 837 m 0
 431 837 434 832 434 827 c 0
 433 822 430 817 423 817 c 0
 417 817 413 822 413 828 c 0
 414 833 418 837 424 837 c 0
403 690 m 0
 477 690 518 665 550 633 c 1
 545 627 l 1
 511 660 475 683 403 683 c 0
 171 683 97 424 97 255 c 0
 97 87 179 -1 305 -1 c 0
 385 -1 435 29 473 58 c 1
 478 51 l 1
 439 22 386 -9 305 -9 c 0
 173 -9 89 83 89 254 c 0
 89 431 166 690 403 690 c 0
EndSplineSet
Substitution2: "'c2sc' Capitals to Small Capitals lookup 27 subtable" cdotaccent.sc
Substitution2: "'aalt' Access All Alternates lookup 0 subtable" cdotaccent.sc
Position2: "'cpsp' Capital Spacing lookup 0 subtable" dx=5 dy=0 dh=10 dv=0
EndChar

StartChar: cdotaccent
Encoding: 267 267 152
Width: 467
GlyphClass: 2
Flags: MW
HStem: -9.22 7.58 520.29 7.35001 691.21 20.14
VStem: 74.06 8.10001 324 20.35
AnchorPoint: "Anchor-11" 248 -1 basechar 0
AnchorPoint: "Anchor-10" 0 0 basechar 0
AnchorPoint: "Anchor-9" 309 518 basechar 0
AnchorPoint: "Anchor-8" 0 0 basechar 0
LayerCount: 2
Fore
SplineSet
334.5 711.35 m 0
 341.5 711.35 344.78 706.42 344.351 700.85 c 0
 343.921 695.71 340.421 691.21 333.851 691.21 c 0
 327.07 691.21 323.57 696.14 324 701.71 c 0
 324.43 706.85 328.14 711.35 334.5 711.35 c 0
319.21 527.64 m 0
 372.64 527.64 411.5 510.859 443.36 477.64 c 1
 437.71 472.569 l 1
 407.36 504.499 370 520.289 319.43 520.289 c 0
 186.22 520.289 103.29 401.499 85.2197 243.569 c 0
 66.3594 85.8594 135.22 -1.64062 244.069 -1.64062 c 0
 301.789 -1.64062 343.999 18.9297 382.789 49.2793 c 1
 386.999 43.7793 l 1
 348.149 12.3496 304.43 -9.2207 244.5 -9.2207 c 0
 129.72 -9.2207 58.1494 81.0693 76.999 243.569 c 0
 95.8594 405.85 180.14 527.64 319.21 527.64 c 0
EndSplineSet
Substitution2: "'smcp' Lowercase to Small Capitals lookup 24 subtable" cdotaccent.sc
Substitution2: "'aalt' Access All Alternates lookup 0 subtable" cdotaccent.sc
EndChar

StartChar: Ccaron
Encoding: 268 268 16
Width: 532
GlyphClass: 2
Flags: MW
HStem: -9.22 8 682.64 7.78 763.5 8.64
VStem: 88.64 8.22
AnchorPoint: "Anchor-11" 305 0 basechar 0
AnchorPoint: "Anchor-10" 0 0 basechar 0
AnchorPoint: "Anchor-9" 402 680 basechar 0
AnchorPoint: "Anchor-8" 0 0 basechar 0
LayerCount: 2
Fore
SplineSet
534.5 845.71 m 1
 410.859 763.501 l 1
 405.859 763.501 l 1
 306.43 845.711 l 1
 311.43 850.141 l 1
 409.21 772.141 l 1
 529.93 850.36 l 1
 534.5 845.71 l 1
402.999 690.421 m 0
 476.999 690.421 517.639 665.069 549.789 632.999 c 1
 544.929 626.719 l 1
 510.789 659.789 474.999 682.639 403.429 682.639 c 0
 170.499 682.639 96.8594 424.209 96.8594 254.499 c 0
 96.8594 87.209 178.859 -1.2207 305.209 -1.2207 c 0
 385.139 -1.2207 435.209 29.0693 473.139 57.5693 c 1
 477.789 50.8496 l 1
 438.999 21.5 385.929 -9.21973 304.999 -9.21973 c 0
 172.789 -9.21973 88.6387 83 88.6387 254.28 c 0
 88.6387 431.351 165.999 690.421 402.999 690.421 c 0
EndSplineSet
Substitution2: "'c2sc' Capitals to Small Capitals lookup 23 subtable" ccaron.sc
Substitution2: "'aalt' Access All Alternates lookup 0 subtable" ccaron.sc
Position2: "'cpsp' Capital Spacing lookup 0 subtable" dx=5 dy=0 dh=10 dv=0
EndChar

StartChar: ccaron
Encoding: 269 269 149
Width: 467
GlyphClass: 2
Flags: MW
HStem: -9.21001 7.57001 520.29 7.35001 646.5 8.64 713.93 20G 718.57 20G
VStem: 74.07 8.09
AnchorPoint: "Anchor-11" 248 -1 basechar 0
AnchorPoint: "Anchor-10" 0 0 basechar 0
AnchorPoint: "Anchor-9" 309 518 basechar 0
AnchorPoint: "Anchor-8" 0 0 basechar 0
LayerCount: 2
Fore
SplineSet
457.43 733.93 m 1xf4
 332.789 646.5 l 1
 327.789 646.5 l 1
 229.359 733.93 l 1
 234.359 738.569 l 1xec
 331.14 655.14 l 1
 452.859 738.569 l 1
 457.43 733.93 l 1xf4
319.219 527.64 m 0
 372.648 527.64 411.509 510.858 443.358 477.648 c 1
 437.719 472.578 l 1
 407.358 504.508 370.009 520.288 319.438 520.288 c 0
 186.219 520.288 103.289 401.508 85.2188 243.578 c 0
 66.3691 85.8584 135.219 -1.6416 244.079 -1.6416 c 0
 301.789 -1.6416 344.009 18.9287 382.789 49.2891 c 1
 387.009 43.7891 l 1
 348.148 12.3594 304.438 -9.21094 244.509 -9.21094 c 0
 129.719 -9.21094 58.1484 81.0693 77.0088 243.569 c 0
 95.8584 405.859 180.148 527.64 319.219 527.64 c 0
EndSplineSet
Substitution2: "'smcp' Lowercase to Small Capitals lookup 24 subtable" ccaron.sc
Substitution2: "'aalt' Access All Alternates lookup 0 subtable" ccaron.sc
EndChar

StartChar: Dcaron
Encoding: 270 270 22
Width: 615
GlyphClass: 2
Flags: MW
HStem: 0 7.78 672.64 7.78999 763.5 8.64
VStem: 542.64 8.21001
AnchorPoint: "Anchor-11" 0 0 basechar 0
AnchorPoint: "Anchor-10" 0 0 basechar 0
AnchorPoint: "Anchor-9" 350 680 basechar 0
AnchorPoint: "Anchor-8" 0 0 basechar 0
LayerCount: 2
Fore
SplineSet
481.85 845.71 m 1
 358.209 763.501 l 1
 353.209 763.501 l 1
 253.779 845.711 l 1
 258.779 850.141 l 1
 356.569 772.141 l 1
 477.279 850.36 l 1
 481.85 845.71 l 1
295.999 680.431 m 2
 424.429 680.431 550.849 638.001 550.849 434.501 c 0
 550.849 230.641 464.209 0.000976562 207.349 0.000976562 c 2
 91.6387 0.000976562 l 1
 186.849 680.431 l 1
 295.999 680.431 l 2
194.209 672.641 m 1
 100.928 7.78125 l 1
 208.208 7.78125 l 2
 458.568 7.78125 542.639 235.281 542.639 434.711 c 0
 542.639 633.211 419.139 672.641 294.919 672.641 c 2
 194.209 672.641 l 1
EndSplineSet
Substitution2: "'c2sc' Capitals to Small Capitals lookup 23 subtable" dcaron.sc
Substitution2: "'aalt' Access All Alternates lookup 0 subtable" dcaron.sc
Position2: "'cpsp' Capital Spacing lookup 0 subtable" dx=5 dy=0 dh=10 dv=0
EndChar

StartChar: dcaron
Encoding: 271 271 155
Width: 571
GlyphClass: 2
Flags: MW
HStem: -9.22 7.57001 -0.00999451 21G 520.28 7.36 711.71 20G<506.931 506.931> 717 20G
VStem: 76.78 8.21001
LayerCount: 2
Fore
SplineSet
630.64 736.14 m 1xac
 590.07 597 l 1
 584 597.64 l 1
 622.21 737 l 1
 630.64 736.14 l 1xac
514.931 730.85 m 1xb4
 412.5 -0.00976562 l 1
 405.57 -0.00976562 l 1x6c
 424.851 143.21 l 1
 380.001 63.0596 323.121 -9.2207 227.281 -9.2207 c 0
 136.211 -9.2207 76.7812 61.8496 76.7812 184.35 c 0
 76.7812 317.989 136.432 527.64 316.281 527.64 c 0
 400.841 527.64 445.73 476.76 464.9 429.89 c 1
 506.931 731.71 l 1
 514.931 730.85 l 1xb4
316.5 520.28 m 0
 142.57 520.28 84.9893 315.49 84.9893 184.561 c 0
 84.9893 66.0605 140.85 -1.64941 227.489 -1.64941 c 0xac
 322.659 -1.64941 378.489 71.8506 426.56 157.78 c 1
 463.489 418.92 l 1
 442.64 471.42 398.71 520.28 316.5 520.28 c 0
EndSplineSet
Substitution2: "'smcp' Lowercase to Small Capitals lookup 24 subtable" dcaron.sc
Substitution2: "'aalt' Access All Alternates lookup 0 subtable" dcaron.sc
EndChar

StartChar: Dcroat
Encoding: 272 272 23
Width: 606
GlyphClass: 2
Flags: MW
HStem: 0 7.78 349.21 7.57001 672.64 7.78999
VStem: 534.42 8.22
AnchorPoint: "Anchor-11" 0 0 basechar 0
AnchorPoint: "Anchor-10" 0 0 basechar 0
AnchorPoint: "Anchor-9" 342 680 basechar 0
AnchorPoint: "Anchor-8" 0 0 basechar 0
LayerCount: 2
Fore
SplineSet
287.78 680.43 m 2
 416.21 680.43 542.64 637.999 542.64 434.499 c 0
 542.64 230.639 455.989 -0.000976562 199.14 -0.000976562 c 2
 83.4199 -0.000976562 l 1
 132.29 349.209 l 1
 41.4902 349.209 l 1
 42.3506 356.779 l 1
 133.351 356.779 l 1
 178.641 680.43 l 1
 287.78 680.43 l 2
199.99 7.77832 m 2
 450.34 7.77832 534.42 235.279 534.42 434.709 c 0
 534.42 633.209 410.92 672.639 286.71 672.639 c 2
 185.99 672.639 l 1
 141.67 356.778 l 1
 338.63 356.778 l 1
 337.78 349.208 l 1
 140.61 349.208 l 1
 92.71 7.77832 l 1
 199.99 7.77832 l 2
EndSplineSet
Substitution2: "'c2sc' Capitals to Small Capitals lookup 23 subtable" dcroat.sc
Substitution2: "'aalt' Access All Alternates lookup 0 subtable" dcroat.sc
Position2: "'cpsp' Capital Spacing lookup 0 subtable" dx=5 dy=0 dh=10 dv=0
EndChar

StartChar: dcroat
Encoding: 273 273 156
Width: 573
GlyphClass: 2
Flags: MW
HStem: -9.22 7.57001 -0.00999451 21G 520.28 7.36 635.21 7.35001 635.21 7.36 635.21 96.5
VStem: 77.86 8.21001
LayerCount: 2
Fore
SplineSet
576.14 635.21 m 1xb2
 502.601 635.211 l 1
 413.57 -0.00878906 l 1
 406.641 -0.00878906 l 1x72
 425.931 143.211 l 1
 381.07 63.0605 324.2 -9.21973 228.36 -9.21973 c 0
 137.29 -9.21973 77.8604 61.8506 77.8604 184.351 c 0
 77.8604 317.99 137.5 527.641 317.36 527.641 c 0
 401.92 527.641 446.8 476.761 465.97 429.891 c 1
 494.56 635.211 l 1
 315.93 635.211 l 1
 315.93 642.561 l 1
 495.59 642.561 l 1xb2
 508 731.711 l 1
 516 730.851 l 1xa6
 503.63 642.57 l 1xaa
 577 642.57 l 1
 576.14 635.21 l 1xb2
464.57 418.921 m 1
 443.71 471.421 399.79 520.281 317.57 520.281 c 0
 143.641 520.281 86.0703 315.491 86.0703 184.562 c 0
 86.0703 66.0615 141.931 -1.64844 228.57 -1.64844 c 0xaa
 323.74 -1.64844 379.57 71.8516 427.641 157.781 c 1
 464.57 418.921 l 1
EndSplineSet
Substitution2: "'smcp' Lowercase to Small Capitals lookup 24 subtable" dcroat.sc
Substitution2: "'aalt' Access All Alternates lookup 0 subtable" dcroat.sc
EndChar
StartChar: Emacron
Encoding: 274 274 83
Width: 495
GlyphClass: 2
Flags: MW
HStem: 0 8<101 411> 357 7<151 409 150 410> 673 7<194 495 194 194> 814 8<266 460 265 461>
VStem: 92 405
AnchorPoint: "Anchor-14" 0 0 basechar 0
AnchorPoint: "Anchor-13" 0 0 basechar 0
AnchorPoint: "Anchor-12" 365 822 basechar 0
AnchorPoint: "Anchor-11" 392 0 basechar 0
AnchorPoint: "Anchor-10" 248 0 basechar 0
LayerCount: 2
Back
Fore
SplineSet
460 814 m 1
 265 814 l 1
 266 822 l 1
 461 822 l 1
 460 814 l 1
497 680 m 1
 495 673 l 1
 194 673 l 1
 151 364 l 1
 410 364 l 1
 409 357 l 1
 150 357 l 1
 101 8 l 1
 412 8 l 1
 411 0 l 1
 92 0 l 1
 187 680 l 1
 497 680 l 1
EndSplineSet
Substitution2: "'c2sc' Capitals to Small Capitals lookup 27 subtable" emacron.sc
Substitution2: "'aalt' Access All Alternates lookup 0 subtable" emacron.sc
Position2: "'cpsp' Capital Spacing lookup 0 subtable" dx=5 dy=0 dh=10 dv=0
EndChar

StartChar: emacron
Encoding: 275 275 165
Width: 526
GlyphClass: 2
Flags: MW
HStem: -9.22 7.58 217.04 7.14 520.28 7.36 687.71 7.78
VStem: 72.85 8.22 458.71 8.22
AnchorPoint: "Anchor-11" 233 0 basechar 0
AnchorPoint: "Anchor-10" 0 0 basechar 0
AnchorPoint: "Anchor-9" 309 518 basechar 0
AnchorPoint: "Anchor-8" 343 9 basechar 0
LayerCount: 2
Fore
SplineSet
429.78 687.71 m 1
 234.641 687.71 l 1
 235.711 695.49 l 1
 430.851 695.49 l 1
 429.78 687.71 l 1
466.921 413.14 m 0
 466.921 302.25 344.85 230.338 81.8701 217.038 c 1
 81.3301 208.288 81.0703 199.818 81.0703 191.708 c 0
 81.0703 64.3584 142.07 -1.6416 240.5 -1.6416 c 0
 304.85 -1.6416 348.21 19.1387 399.78 56.499 c 1
 403.99 50.209 l 1
 351.99 11.999 305.71 -9.2207 240.49 -9.2207 c 0
 136.141 -9.2207 72.8506 61.209 72.8506 191.499 c 0
 72.8506 317.279 135.351 527.64 324.141 527.64 c 0
 403.211 527.64 466.921 486.71 466.921 413.14 c 0
324.14 520.277 m 0
 156.37 520.277 92 347.417 82.3701 224.177 c 1
 343.7 237.667 458.71 308.497 458.71 412.917 c 0
 458.71 482.067 399.64 520.277 324.14 520.277 c 0
EndSplineSet
Substitution2: "'smcp' Lowercase to Small Capitals lookup 24 subtable" emacron.sc
Substitution2: "'aalt' Access All Alternates lookup 0 subtable" emacron.sc
EndChar

StartChar: Ebreve
Encoding: 276 276 26
Width: 495
GlyphClass: 2
Flags: MW
HStem: 0 7.78 356.78 7.57001 672.64 7.78999 672.64 106.72
VStem: 91.63 404.93
AnchorPoint: "Anchor-11" 248 0 basechar 0
AnchorPoint: "Anchor-10" 88 518 basechar 0
AnchorPoint: "Anchor-9" 344 680 basechar 0
AnchorPoint: "Anchor-8" 392 0 basechar 0
LayerCount: 2
Fore
SplineSet
353.07 774.71 m 0xd8
 302.28 774.71 270.13 802.711 263.2 838.861 c 1
 266.34 838.711 l 1
 273.34 808.641 299.99 779.36 353.061 779.36 c 0
 406.561 779.36 440.771 809.07 456.2 839.141 c 1
 459.351 838.431 l 1
 441.99 802.28 403.42 774.71 353.07 774.71 c 0xd8
494.84 672.641 m 1xe8
 194.19 672.642 l 1
 151.261 364.352 l 1
 409.551 364.352 l 1
 408.69 356.781 l 1
 150.41 356.781 l 1
 100.91 7.78125 l 1
 411.55 7.78125 l 1
 410.479 0.000976562 l 1
 91.6299 0.000976562 l 1
 186.84 680.431 l 1
 496.56 680.431 l 1
 494.84 672.641 l 1xe8
EndSplineSet
Substitution2: "'c2sc' Capitals to Small Capitals lookup 23 subtable" ebreve.sc
Substitution2: "'aalt' Access All Alternates lookup 0 subtable" ebreve.sc
Position2: "'cpsp' Capital Spacing lookup 0 subtable" dx=5 dy=0 dh=10 dv=0
EndChar

StartChar: ebreve
Encoding: 277 277 159
Width: 526
GlyphClass: 2
Flags: MW
HStem: -9.21001 7.57001 217.04 7.14 520.29 7.35001 720.64 20G 720.93 20G
VStem: 72.85 8.22 458.71 8.22
AnchorPoint: "Anchor-11" 233 0 basechar 0
AnchorPoint: "Anchor-10" 0 0 basechar 0
AnchorPoint: "Anchor-9" 309 518 basechar 0
AnchorPoint: "Anchor-8" 343 9 basechar 0
LayerCount: 2
Fore
SplineSet
329.64 666.5 m 0xee
 278.85 666.5 246.92 694.5 241.78 740.64 c 1
 245.13 740.5 l 1
 250.35 701.21 276.56 671.14 329.63 671.14 c 0xf6
 383.13 671.14 417.78 701.64 434.99 740.93 c 1
 437.92 740.21 l 1
 419.57 694.07 380 666.5 329.64 666.5 c 0xee
466.92 413.14 m 0
 466.92 302.25 344.85 230.35 81.8691 217.04 c 1
 81.3291 208.29 81.0693 199.82 81.0693 191.721 c 0
 81.0693 64.3604 142.069 -1.63965 240.499 -1.63965 c 0
 304.849 -1.63965 348.209 19.1504 399.779 56.5 c 1
 403.989 50.2197 l 1
 351.989 12 305.709 -9.20996 240.489 -9.20996 c 0
 136.14 -9.20996 72.8496 61.2197 72.8496 191.5 c 0
 72.8496 317.29 135.35 527.64 324.14 527.64 c 0
 403.21 527.64 466.92 486.71 466.92 413.14 c 0
324.14 520.29 m 0
 156.37 520.29 92 347.431 82.3701 224.181 c 1
 343.7 237.681 458.71 308.501 458.71 412.931 c 0
 458.71 482.07 399.64 520.29 324.14 520.29 c 0
EndSplineSet
Substitution2: "'smcp' Lowercase to Small Capitals lookup 24 subtable" ebreve.sc
Substitution2: "'aalt' Access All Alternates lookup 0 subtable" ebreve.sc
EndChar
StartChar: Edotaccent
Encoding: 278 278 78
Width: 495
GlyphClass: 2
Flags: MW
HStem: 0 8<101 411> 357 7<151 409 150 410> 673 7<194 495 194 194> 817 20<363 368.5>
VStem: 355 21<827 828>
AnchorPoint: "Anchor-14" 0 0 basechar 0
AnchorPoint: "Anchor-13" 0 0 basechar 0
AnchorPoint: "Anchor-12" 366 837 basechar 0
AnchorPoint: "Anchor-11" 392 0 basechar 0
AnchorPoint: "Anchor-10" 248 0 basechar 0
LayerCount: 2
Back
Fore
SplineSet
366 837 m 0
 373 837 376 832 376 827 c 0
 375 822 372 817 365 817 c 0
 359 817 355 822 355 828 c 0
 356 833 360 837 366 837 c 0
497 680 m 1
 495 673 l 1
 194 673 l 1
 151 364 l 1
 410 364 l 1
 409 357 l 1
 150 357 l 1
 101 8 l 1
 412 8 l 1
 411 0 l 1
 92 0 l 1
 187 680 l 1
 497 680 l 1
EndSplineSet
Substitution2: "'c2sc' Capitals to Small Capitals lookup 27 subtable" edotaccent.sc
Substitution2: "'aalt' Access All Alternates lookup 0 subtable" edotaccent.sc
Position2: "'cpsp' Capital Spacing lookup 0 subtable" dx=5 dy=0 dh=10 dv=0
EndChar
StartChar: edotaccent
Encoding: 279 279 422
Width: 519
GlyphClass: 2
Flags: MW
HStem: -9 7<191 272.5 191 273> 217 7<82 82> 520 8<240 361.5> 691 20<332 337.5>
VStem: 73 8<128 196 128 254.5> 324 21<701 702> 459 8<361 447.5>
AnchorPoint: "Anchor-14" 0 0 basechar 0
AnchorPoint: "Anchor-13" 0 0 basechar 0
AnchorPoint: "Anchor-12" 336 711 basechar 0
AnchorPoint: "Anchor-11" 343 9 basechar 0
AnchorPoint: "Anchor-10" 235 0 basechar 0
LayerCount: 2
Back
Fore
SplineSet
334 691 m 0
 328 691 324 696 324 702 c 0
 325 707 329 711 335 711 c 0
 342 711 345 706 345 701 c 0
 344 696 341 691 334 691 c 0
467 413 m 0
 467 302 345 230 82 217 c 1
 81 208 81 200 81 192 c 0
 81 64 142 -2 240 -2 c 0
 305 -2 348 19 400 57 c 1
 404 50 l 1
 352 12 306 -9 240 -9 c 0
 136 -9 73 61 73 192 c 0
 73 317 135 528 324 528 c 0
 403 528 467 487 467 413 c 0
324 520 m 0
 156 520 92 347 82 224 c 1
 343 238 459 309 459 413 c 0
 459 482 399 520 324 520 c 0
EndSplineSet
Substitution2: "'smcp' Lowercase to Small Capitals lookup 28 subtable" edotaccent.sc
Substitution2: "'aalt' Access All Alternates lookup 0 subtable" edotaccent.sc
EndChar

StartChar: Eogonek
Encoding: 280 280 33
Width: 495
GlyphClass: 2
Flags: MW
HStem: -196.57 8 0 7.78999 356.79 7.57001 672.64 7.78999
VStem: 223.14 8.64
AnchorPoint: "Anchor-11" 248 0 basechar 0
AnchorPoint: "Anchor-10" 88 518 basechar 0
AnchorPoint: "Anchor-9" 344 680 basechar 0
AnchorPoint: "Anchor-8" 392 0 basechar 0
LayerCount: 2
Fore
SplineSet
194.21 672.64 m 1
 151.28 364.359 l 1
 409.561 364.359 l 1
 408.711 356.789 l 1
 150.421 356.789 l 1
 100.921 7.78906 l 1
 411.571 7.78906 l 1
 410.501 -0.000976562 l 1
 381.781 -0.000976562 l 1
 287.991 -34.4307 231.781 -73.0703 231.781 -130.07 c 0
 231.781 -169.141 256.432 -188.57 296.932 -188.57 c 0
 315.142 -188.57 328.361 -186.57 351.142 -181 c 1
 349.071 -189 l 1
 327.501 -194.57 314.071 -196.57 295.291 -196.57 c 0
 250.141 -196.57 223.141 -174.221 223.141 -132.65 c 0
 223.141 -65.4404 293.78 -27.4902 366.511 0 c 1
 91.6406 -0 l 1
 186.86 680.43 l 1
 496.57 680.43 l 1
 494.86 672.64 l 1
 194.21 672.64 l 1
EndSplineSet
Substitution2: "'c2sc' Capitals to Small Capitals lookup 23 subtable" eogonek.sc
Substitution2: "'aalt' Access All Alternates lookup 0 subtable" eogonek.sc
Position2: "'cpsp' Capital Spacing lookup 0 subtable" dx=5 dy=0 dh=10 dv=0
EndChar

StartChar: eogonek
Encoding: 281 281 166
Width: 526
GlyphClass: 2
Flags: MW
HStem: -187.64 8 -9.22 7.58 217.04 7.14 520.28 7.36
VStem: 72.86 8.21001 192.71 8.64 458.71 8.22
AnchorPoint: "Anchor-11" 233 0 basechar 0
AnchorPoint: "Anchor-10" 0 0 basechar 0
AnchorPoint: "Anchor-9" 309 518 basechar 0
AnchorPoint: "Anchor-8" 343 9 basechar 0
LayerCount: 2
Fore
SplineSet
466.93 413.14 m 0
 466.93 302.25 344.85 230.338 81.8701 217.038 c 1
 81.3301 208.288 81.0703 199.818 81.0703 191.708 c 0
 81.0703 64.3584 142.07 -1.6416 240.5 -1.6416 c 0
 304.85 -1.6416 348.21 19.1387 399.78 56.499 c 1
 403.99 50.209 l 1
 375.221 29.0693 348.201 13.1396 318.761 3.12012 c 1
 261.94 -20.2695 201.351 -54.6699 201.351 -111.28 c 0
 201.351 -156.07 230.851 -179.641 275.49 -179.641 c 0
 293.49 -179.641 306.71 -177.641 328.49 -172.07 c 1
 327.851 -180.07 l 1
 306.28 -185.641 293.63 -187.641 274.63 -187.641 c 0
 224.28 -187.641 192.71 -160.07 192.71 -111.5 c 0
 192.71 -62.46 235.49 -29.21 287.391 -5.08984 c 1
 272.73 -7.82031 257.24 -9.2207 240.5 -9.2207 c 0
 136.14 -9.2207 72.8594 61.209 72.8594 191.499 c 0
 72.8594 317.279 135.359 527.64 324.14 527.64 c 0
 403.21 527.64 466.93 486.71 466.93 413.14 c 0
324.14 520.277 m 0
 156.37 520.277 92 347.417 82.3701 224.177 c 1
 343.7 237.667 458.71 308.497 458.71 412.917 c 0
 458.71 482.067 399.64 520.277 324.14 520.277 c 0
EndSplineSet
Substitution2: "'smcp' Lowercase to Small Capitals lookup 24 subtable" eogonek.sc
Substitution2: "'aalt' Access All Alternates lookup 0 subtable" eogonek.sc
EndChar
StartChar: Ecaron
Encoding: 282 282 68
Width: 495
GlyphClass: 2
Flags: MW
HStem: 0 8<101 411> 357 7<151 409 150 410> 673 7<194 495 194 194> 764 8<351 351 351 353 348 351>
VStem: 92 405
AnchorPoint: "Anchor-14" 0 0 basechar 0
AnchorPoint: "Anchor-13" 0 0 basechar 0
AnchorPoint: "Anchor-12" 364 850 basechar 0
AnchorPoint: "Anchor-11" 392 0 basechar 0
AnchorPoint: "Anchor-10" 248 0 basechar 0
LayerCount: 2
Back
Fore
SplineSet
472 850 m 1
 476 846 l 1
 353 764 l 1
 348 764 l 1
 248 846 l 1
 253 850 l 1
 351 772 l 1
 472 850 l 1
497 680 m 1
 495 673 l 1
 194 673 l 1
 151 364 l 1
 410 364 l 1
 409 357 l 1
 150 357 l 1
 101 8 l 1
 412 8 l 1
 411 0 l 1
 92 0 l 1
 187 680 l 1
 497 680 l 1
EndSplineSet
Substitution2: "'c2sc' Capitals to Small Capitals lookup 27 subtable" ecaron.sc
Substitution2: "'aalt' Access All Alternates lookup 0 subtable" ecaron.sc
Position2: "'cpsp' Capital Spacing lookup 0 subtable" dx=5 dy=0 dh=10 dv=0
EndChar
StartChar: ecaron
Encoding: 283 283 412
Width: 519
GlyphClass: 2
Flags: MW
HStem: -9 7<191 272.5 191 273> 217 7<82 82> 520 8<240 361.5> 646 9<327 327 327 328 323 327> 713 20G<225 225 453 453> 718 20G<230 230 449 449>
VStem: 73 8<128 196 128 254.5> 459 8<361 447.5>
AnchorPoint: "Anchor-14" 0 0 basechar 0
AnchorPoint: "Anchor-13" 0 0 basechar 0
AnchorPoint: "Anchor-12" 341 738 basechar 0
AnchorPoint: "Anchor-11" 343 9 basechar 0
AnchorPoint: "Anchor-10" 235 0 basechar 0
LayerCount: 2
Back
Fore
SplineSet
328 646 m 1xf7
 323 646 l 1
 225 733 l 1
 230 738 l 1xf7
 327 655 l 1
 449 738 l 1
 453 733 l 1xfb
 328 646 l 1xf7
467 413 m 0
 467 302 345 230 82 217 c 1
 81 208 81 200 81 192 c 0
 81 64 142 -2 240 -2 c 0
 305 -2 348 19 400 57 c 1
 404 50 l 1
 352 12 306 -9 240 -9 c 0
 136 -9 73 61 73 192 c 0
 73 317 135 528 324 528 c 0
 403 528 467 487 467 413 c 0
324 520 m 0
 156 520 92 347 82 224 c 1
 343 238 459 309 459 413 c 0
 459 482 399 520 324 520 c 0
EndSplineSet
Substitution2: "'smcp' Lowercase to Small Capitals lookup 28 subtable" ecaron.sc
Substitution2: "'aalt' Access All Alternates lookup 0 subtable" ecaron.sc
EndChar

StartChar: Gcircumflex
Encoding: 284 284 37
Width: 601
GlyphClass: 2
Flags: MW
HStem: -9.22 7.78999 337.86 7.78 682.65 7.78 847.14 8.64
VStem: 88.64 8.44
AnchorPoint: "Anchor-11" 302 0 basechar 0
AnchorPoint: "Anchor-10" 0 0 basechar 0
AnchorPoint: "Anchor-9" 399 680 basechar 0
AnchorPoint: "Anchor-8" 0 0 basechar 0
LayerCount: 2
Fore
SplineSet
427.35 847.14 m 1
 308 768.92 l 1
 303.43 773.57 l 1
 425.71 855.78 l 1
 430.71 855.78 l 1
 531.5 773.57 l 1
 526.5 768.92 l 1
 427.35 847.14 l 1
404.43 690.43 m 0
 467.72 690.42 513.429 671.219 558.289 634.148 c 1
 552.999 628.078 l 1
 509.649 664.288 465.649 682.648 404.43 682.648 c 0
 191.859 682.648 97.0791 445.498 97.0791 256.428 c 0
 97.0791 86.7881 180.009 -1.43164 316.789 -1.43164 c 0
 386.509 -1.43164 440.579 20.4287 484.859 43.8584 c 1
 527.01 337.858 l 1
 377.939 337.858 l 1
 377.72 345.639 l 1
 536.08 345.639 l 1
 492.86 39.4287 l 1
 445.221 13.499 385.07 -9.2207 316.79 -9.2207 c 0
 175.14 -9.2207 88.6396 82.5693 88.6396 256.85 c 0
 88.6396 453 189 690.43 404.43 690.43 c 0
EndSplineSet
Substitution2: "'c2sc' Capitals to Small Capitals lookup 23 subtable" gcircumflex.sc
Substitution2: "'aalt' Access All Alternates lookup 0 subtable" gcircumflex.sc
Position2: "'cpsp' Capital Spacing lookup 0 subtable" dx=5 dy=0 dh=10 dv=0
EndChar
StartChar: gcircumflex
Encoding: 285 285 455
Width: 551
GlyphClass: 2
Flags: MW
HStem: -193 7<176.5 253 176.5 254.5> 0 8<181 260.5> 521 7<238.5 359> 742 8<348 348>
VStem: 74 8<142 197>
AnchorPoint: "Anchor-14" 0 0 basechar 0
AnchorPoint: "Anchor-13" 0 0 basechar 0
AnchorPoint: "Anchor-12" 349 750 basechar 0
AnchorPoint: "Anchor-11" 0 0 basechar 0
AnchorPoint: "Anchor-10" 210 -189 basechar 0
LayerCount: 2
Back
Fore
SplineSet
226 658 m 1
 221 663 l 1
 346 750 l 1
 351 750 l 1
 449 663 l 1
 445 658 l 1
 348 742 l 1
 226 658 l 1
334 528 m 0
 389 528 430 511 465 487 c 1
 392 -9 l 2
 371 -152 299 -193 210 -193 c 0
 141 -193 84 -169 50 -147 c 1
 53 -140 l 1
 88 -162 142 -186 211 -186 c 0
 295 -186 364 -146 384 -10 c 2
 404 125 l 1
 359 42 293 0 228 0 c 0
 129 0 74 83 74 197 c 0
 73 337 138 528 334 528 c 0
334 521 m 0
 143 521 82 333 82 197 c 0
 82 87 134 8 228 8 c 0
 297 8 360 54 406 140 c 1
 457 483 l 1
 424 506 384 521 334 521 c 0
EndSplineSet
Substitution2: "'smcp' Lowercase to Small Capitals lookup 28 subtable" gcircumflex.sc
Substitution2: "'aalt' Access All Alternates lookup 0 subtable" gcircumflex.sc
EndChar

StartChar: Gbreve
Encoding: 286 286 36
Width: 601
GlyphClass: 2
Flags: MW
HStem: -9.22 7.78999 337.85 7.78999 682.64 7.78 682.64 96.71
VStem: 88.63 8.42999
AnchorPoint: "Anchor-11" 302 0 basechar 0
AnchorPoint: "Anchor-10" 0 0 basechar 0
AnchorPoint: "Anchor-9" 399 680 basechar 0
AnchorPoint: "Anchor-8" 0 0 basechar 0
LayerCount: 2
Fore
SplineSet
408.35 774.71 m 0xd8
 357.569 774.71 325.41 802.71 318.48 838.85 c 1
 321.631 838.71 l 1
 328.631 808.64 355.271 779.35 408.341 779.35 c 0
 461.841 779.35 496.061 809.069 511.49 839.14 c 1
 514.63 838.42 l 1
 497.28 802.28 458.71 774.71 408.35 774.71 c 0xd8
404.411 690.42 m 0xe8
 467.691 690.42 513.424 671.212 558.273 634.142 c 1
 552.993 628.071 l 1
 509.633 664.291 465.633 682.641 404.423 682.641 c 0
 191.853 682.641 97.0625 445.501 97.0625 256.431 c 0
 97.0625 86.7803 179.992 -1.42969 316.782 -1.42969 c 0
 386.492 -1.42969 440.562 20.4199 484.853 43.8496 c 1
 526.992 337.85 l 1
 377.922 337.85 l 1
 377.712 345.64 l 1
 536.062 345.64 l 1
 492.852 39.4199 l 1
 445.201 13.4902 385.062 -9.21973 316.771 -9.21973 c 0
 175.132 -9.21973 88.6318 82.5605 88.6318 256.851 c 0
 88.6318 452.99 188.981 690.42 404.411 690.42 c 0xe8
EndSplineSet
Substitution2: "'c2sc' Capitals to Small Capitals lookup 23 subtable" gbreve.sc
Substitution2: "'aalt' Access All Alternates lookup 0 subtable" gbreve.sc
Position2: "'cpsp' Capital Spacing lookup 0 subtable" dx=5 dy=0 dh=10 dv=0
EndChar
StartChar: gbreve
Encoding: 287 287 453
Width: 551
GlyphClass: 2
Flags: MW
HStem: -193 7<176.5 253 176.5 254.5> 0 8<181 260.5> 521 7<238.5 359> 665 8<311 359 311 363> 719 20G<445 445> 720 20G<245 245>
VStem: 74 8<142 197> 245 7<740 741>
AnchorPoint: "Anchor-14" 0 0 basechar 0
AnchorPoint: "Anchor-13" 0 0 basechar 0
AnchorPoint: "Anchor-12" 347 742 basechar 0
AnchorPoint: "Anchor-11" 0 0 basechar 0
AnchorPoint: "Anchor-10" 210 -189 basechar 0
LayerCount: 2
Back
Fore
SplineSet
335 665 m 0xf7
 279 665 250 698 245 740 c 1
 252 741 l 1xf7
 258 697 287 673 335 673 c 0
 383 673 420 698 439 742 c 1
 445 739 l 1xfb
 428 698 391 665 335 665 c 0xf7
334 528 m 0
 389 528 430 511 465 487 c 1
 392 -9 l 2
 371 -152 299 -193 210 -193 c 0
 141 -193 84 -169 50 -147 c 1
 53 -140 l 1
 88 -162 142 -186 211 -186 c 0
 295 -186 364 -146 384 -10 c 2
 404 125 l 1
 359 42 293 0 228 0 c 0
 129 0 74 83 74 197 c 0
 73 337 138 528 334 528 c 0
334 521 m 0
 143 521 82 333 82 197 c 0
 82 87 134 8 228 8 c 0
 297 8 360 54 406 140 c 1
 457 483 l 1
 424 506 384 521 334 521 c 0
EndSplineSet
Substitution2: "'smcp' Lowercase to Small Capitals lookup 28 subtable" gbreve.sc
Substitution2: "'aalt' Access All Alternates lookup 0 subtable" gbreve.sc
EndChar

StartChar: Gdotaccent
Encoding: 288 288 39
Width: 601
GlyphClass: 2
Flags: MW
HStem: -9.22 7.78999 337.86 7.78 682.65 7.78 817.21 20.14
VStem: 88.64 8.44 409.07 20.35
AnchorPoint: "Anchor-11" 302 0 basechar 0
AnchorPoint: "Anchor-10" 0 0 basechar 0
AnchorPoint: "Anchor-9" 399 680 basechar 0
AnchorPoint: "Anchor-8" 0 0 basechar 0
LayerCount: 2
Fore
SplineSet
419.57 837.35 m 0
 426.57 837.35 429.851 832.42 429.421 826.85 c 0
 428.991 821.71 425.491 817.21 418.921 817.21 c 0
 412.141 817.21 408.641 822.14 409.07 827.71 c 0
 409.5 832.85 413.21 837.35 419.57 837.35 c 0
404.431 690.43 m 0
 467.721 690.42 513.43 671.219 558.29 634.148 c 1
 553 628.078 l 1
 509.65 664.288 465.65 682.648 404.431 682.648 c 0
 191.86 682.648 97.0801 445.498 97.0801 256.428 c 0
 97.0801 86.7881 180.01 -1.43164 316.79 -1.43164 c 0
 386.51 -1.43164 440.58 20.4287 484.86 43.8584 c 1
 527.011 337.858 l 1
 377.94 337.858 l 1
 377.721 345.639 l 1
 536.081 345.639 l 1
 492.861 39.4287 l 1
 445.222 13.499 385.071 -9.2207 316.791 -9.2207 c 0
 175.141 -9.2207 88.6406 82.5693 88.6406 256.85 c 0
 88.6406 453 189.001 690.43 404.431 690.43 c 0
EndSplineSet
Substitution2: "'c2sc' Capitals to Small Capitals lookup 23 subtable" gdotaccent.sc
Substitution2: "'aalt' Access All Alternates lookup 0 subtable" gdotaccent.sc
Position2: "'cpsp' Capital Spacing lookup 0 subtable" dx=5 dy=0 dh=10 dv=0
EndChar

StartChar: gdotaccent
Encoding: 289 289 172
Width: 551
GlyphClass: 2
Flags: MW
HStem: -192.72 7.14 0 7.57001 520.49 7.14999 691.21 20.14
VStem: 73.64 8.21001 330.71 20.36
AnchorPoint: "Anchor-11" 0 0 basechar 0
AnchorPoint: "Anchor-10" 0 0 basechar 0
AnchorPoint: "Anchor-9" 316 518 basechar 0
AnchorPoint: "Anchor-8" 0 0 basechar 0
LayerCount: 2
Fore
SplineSet
341.21 711.35 m 0
 348.21 711.35 351.501 706.42 351.071 700.85 c 0
 350.642 695.71 347.142 691.21 340.571 691.21 c 0
 333.781 691.21 330.281 696.14 330.711 701.71 c 0
 331.141 706.85 334.86 711.35 341.21 711.35 c 0
334.211 527.64 m 0
 388.921 527.64 429.92 510.99 465.42 487.21 c 1
 392.28 -9.08008 l 2
 371.28 -151.58 298.49 -192.72 210.351 -192.72 c 0
 140.78 -192.72 84.21 -168.939 49.8496 -146.51 c 1
 53.4199 -140.22 l 1
 87.9902 -162.439 141.641 -185.579 210.57 -185.579 c 0
 294.71 -185.579 364.14 -146.079 384.29 -9.93945 c 2
 404 124.921 l 1
 358.93 41.5605 293.29 -0.00976562 228 -0.00976562 c 0
 129.36 -0.00976562 73.8604 82.71 73.6406 196.49 c 0
 73.4307 336.71 137.931 527.64 334.211 527.64 c 0
334.42 520.49 m 0
 143.42 520.49 81.6299 333.353 81.8496 196.702 c 0
 82.0596 86.9219 133.989 7.56152 228.209 7.56152 c 0
 297.419 7.56152 360.279 53.4912 406.279 139.921 c 1
 457.419 483.421 l 1
 424.069 506.141 383.64 520.49 334.42 520.49 c 0
EndSplineSet
Substitution2: "'smcp' Lowercase to Small Capitals lookup 24 subtable" gdotaccent.sc
Substitution2: "'aalt' Access All Alternates lookup 0 subtable" gdotaccent.sc
EndChar
StartChar: Gcommaaccent
Encoding: 290 290 102
Width: 602
GlyphClass: 2
Flags: MW
HStem: -9 8<248.5 351> 338 8<378 527 378 536> 683 7<298 435>
VStem: 89 8<171.5 351 171.5 355> 276 22<-116.5 -111.5>
AnchorPoint: "Anchor-14" 0 0 basechar 0
AnchorPoint: "Anchor-13" 0 0 basechar 0
AnchorPoint: "Anchor-12" 399 680 basechar 0
AnchorPoint: "Anchor-11" 0 0 basechar 0
AnchorPoint: "Anchor-10" 302 0 basechar 0
LayerCount: 2
Back
Fore
SplineSet
404 690 m 0
 468 690 513 671 558 634 c 1
 553 628 l 1
 510 664 466 683 404 683 c 0
 192 683 97 446 97 256 c 0
 97 87 180 -1 317 -1 c 0
 387 -1 441 20 485 44 c 1
 527 338 l 1
 378 338 l 1
 378 346 l 1
 536 346 l 1
 493 39 l 1
 445 14 385 -9 317 -9 c 0
 175 -9 89 83 89 257 c 0
 89 453 189 690 404 690 c 0
287 -104 m 0
 293 -104 298 -108 298 -114 c 0
 298 -119 295 -123 290 -135 c 2
 247 -245 l 1
 242 -245 l 1
 284 -125 l 1
 278 -123 276 -119 276 -115 c 0
 276 -108 280 -104 287 -104 c 0
EndSplineSet
Substitution2: "'c2sc' Capitals to Small Capitals lookup 27 subtable" gcommaaccent.sc
Substitution2: "'aalt' Access All Alternates lookup 0 subtable" gcommaaccent.sc
Position2: "'cpsp' Capital Spacing lookup 0 subtable" dx=5 dy=0 dh=10 dv=0
EndChar

StartChar: gcommaaccent
Encoding: 291 291 171
Width: 551
GlyphClass: 2
Flags: MW
HStem: -192.72 7.14 0 7.57001 520.5 7.14 621.21 20.93
VStem: 73.64 8.21001 314.14 21.78
AnchorPoint: "Anchor-11" 0 0 basechar 0
AnchorPoint: "Anchor-10" 0 0 basechar 0
AnchorPoint: "Anchor-9" 316 518 basechar 0
AnchorPoint: "Anchor-8" 0 0 basechar 0
LayerCount: 2
Fore
SplineSet
324.5 621.21 m 0
 318.28 621.21 314.141 625.361 314.141 631.142 c 0
 314.141 636.571 316.211 640.861 322.061 652.861 c 1
 364.631 762.211 l 1
 369.921 762.211 l 1
 327.561 642.141 l 1
 333.28 640.86 335.92 636.71 335.92 632.43 c 0
 335.92 626 331.57 621.21 324.5 621.21 c 0
334.21 527.641 m 0
 388.92 527.641 429.919 511.002 465.419 487.212 c 1
 392.279 -9.06836 l 2
 371.279 -151.568 298.489 -192.719 210.35 -192.719 c 0
 140.779 -192.719 84.209 -168.929 49.8486 -146.499 c 1
 53.4189 -140.219 l 1
 87.9893 -162.429 141.64 -185.579 210.569 -185.579 c 0
 294.709 -185.579 364.139 -146.079 384.289 -9.92871 c 2
 403.999 124.921 l 1
 358.929 41.5713 293.289 0.000976562 227.999 0.000976562 c 0
 129.359 0.000976562 73.8594 82.7109 73.6396 196.501 c 0
 73.4297 336.711 137.93 527.641 334.21 527.641 c 0
334.419 520.502 m 0
 143.419 520.502 81.6289 333.352 81.8486 196.712 c 0
 82.0586 86.9219 133.988 7.57227 228.208 7.57227 c 0
 297.418 7.57227 360.278 53.502 406.278 139.932 c 1
 457.418 483.432 l 1
 424.068 506.142 383.639 520.502 334.419 520.502 c 0
EndSplineSet
Substitution2: "'smcp' Lowercase to Small Capitals lookup 24 subtable" gcommaaccent.sc
Substitution2: "'aalt' Access All Alternates lookup 0 subtable" gcommaaccent.sc
EndChar

StartChar: Hcircumflex
Encoding: 292 292 42
Width: 656
GlyphClass: 2
Flags: MW
HStem: -0.00999451 21G 360.71 7.78 660.42 20G 847.14 8.64
VStem: 91.64 495.22
AnchorPoint: "Anchor-11" 0 0 basechar 0
AnchorPoint: "Anchor-10" 88 518 basechar 0
AnchorPoint: "Anchor-9" 386 680 basechar 0
AnchorPoint: "Anchor-8" 0 0 basechar 0
LayerCount: 2
Fore
SplineSet
413.85 847.14 m 1
 294.5 768.92 l 1
 289.93 773.57 l 1
 412.21 855.78 l 1
 417.21 855.78 l 1
 518 773.57 l 1
 513 768.92 l 1
 413.85 847.14 l 1
534 360.71 m 1
 150.43 360.71 l 1
 99.8594 -0.00976562 l 1
 91.6396 -0.00976562 l 1
 186.859 680.42 l 1
 195.069 680.42 l 1
 151.289 368.49 l 1
 534.859 368.49 l 1
 578.64 680.42 l 1
 586.859 680.42 l 1
 491.64 -0.00976562 l 1
 483.43 -0.00976562 l 1
 534 360.71 l 1
EndSplineSet
Substitution2: "'c2sc' Capitals to Small Capitals lookup 23 subtable" hcircumflex.sc
Substitution2: "'aalt' Access All Alternates lookup 0 subtable" hcircumflex.sc
Position2: "'cpsp' Capital Spacing lookup 0 subtable" dx=5 dy=0 dh=10 dv=0
EndChar

StartChar: hcircumflex
Encoding: 293 293 175
Width: 580
GlyphClass: 2
Flags: MW
HStem: 0 21G 520.5 7.14 711.93 20G 895.21 8.64999
VStem: 473.18 8.00999
AnchorPoint: "Anchor-11" 250 0 basechar 0
AnchorPoint: "Anchor-10" 0 0 basechar 0
AnchorPoint: "Anchor-9" 330 729 basechar 0
AnchorPoint: "Anchor-8" 0 0 basechar 0
LayerCount: 2
Fore
SplineSet
358.21 895.21 m 1
 238.86 817 l 1
 234.29 821.64 l 1
 356.57 903.859 l 1
 361.57 903.859 l 1
 462.36 821.64 l 1
 457.36 817 l 1
 358.21 895.21 l 1
366.07 527.64 m 0
 459.07 527.64 491.79 467.858 478.36 368.219 c 2
 426.36 -0.000976562 l 1
 418.36 -0.000976562 l 1
 470.36 367.789 l 2
 483.36 464.719 453.36 520.499 365.431 520.499 c 0
 279.431 520.499 208.86 460.929 140.21 324.929 c 1
 94.6396 -0.000976562 l 1
 86.6396 -0.000976562 l 1
 189.069 730.859 l 1
 197.069 731.93 l 1
 142.72 342.069 l 1
 208.29 472.569 281.36 527.64 366.07 527.64 c 0
EndSplineSet
Substitution2: "'smcp' Lowercase to Small Capitals lookup 24 subtable" hcircumflex.sc
Substitution2: "'aalt' Access All Alternates lookup 0 subtable" hcircumflex.sc
EndChar
StartChar: Hbar
Encoding: 294 294 108
Width: 665
GlyphClass: 2
Flags: MW
HStem: 0 21G<97 105 97 97 489 497 489 489> 361 8<157 540 157 540 156 540> 524 7<117 170 116 171 180 562 571 623> 524 156<116 201 116 201 179 201 192 201 192 562 584 592>
VStem: 97 527
AnchorPoint: "Anchor-14" 344 340 basechar 0
AnchorPoint: "Anchor-13" 0 0 basechar 0
AnchorPoint: "Anchor-12" 391 680 basechar 0
AnchorPoint: "Anchor-11" 0 0 basechar 0
AnchorPoint: "Anchor-10" 306 0 basechar 0
LayerCount: 2
Back
Fore
SplineSet
624 531 m 1xe8
 623 524 l 1
 570 524 l 1
 497 0 l 1
 489 0 l 1
 540 361 l 1
 156 361 l 1
 105 0 l 1
 97 0 l 1
 170 524 l 1
 116 524 l 1
 117 531 l 1
 171 531 l 1xe8
 192 680 l 1
 201 680 l 1xd8
 180 531 l 1
 563 531 l 1xe8
 584 680 l 1
 592 680 l 1xd8
 571 531 l 1
 624 531 l 1xe8
540 369 m 1
 562 524 l 1
 179 524 l 1
 157 369 l 1
 540 369 l 1
EndSplineSet
Substitution2: "'c2sc' Capitals to Small Capitals lookup 27 subtable" hbar.sc
Substitution2: "'aalt' Access All Alternates lookup 0 subtable" hbar.sc
Position2: "'cpsp' Capital Spacing lookup 0 subtable" dx=5 dy=0 dh=10 dv=0
EndChar
StartChar: hbar
Encoding: 295 295 469
Width: 582
GlyphClass: 2
Flags: MW
HStem: 0 21G<88 96 88 88 419 427 419 419> 521 7<324.5 410.5> 635 8<105 177 104 178 105 185 186 375> 635 97<104 198 104 198 185 198 198 198 198 375>
VStem: 473.82 8.19
AnchorPoint: "Anchor-14" 285 259 basechar 0
AnchorPoint: "Anchor-13" 0 0 basechar 0
AnchorPoint: "Anchor-12" 331 729 basechar 0
AnchorPoint: "Anchor-11" 0 0 basechar 0
AnchorPoint: "Anchor-10" 258 0 basechar 0
LayerCount: 2
Back
Fore
SplineSet
367 528 m 0xe8
 460 528 493 468 479 368 c 2
 427 0 l 1
 419 0 l 1
 471 368 l 2
 484 465 454 521 367 521 c 0
 281 521 210 461 141 325 c 1
 96 0 l 1
 88 0 l 1
 177 635 l 1
 104 635 l 1
 105 643 l 1
 178 643 l 1xe8
 190 731 l 1
 198 732 l 1xd8
 186 643 l 1
 377 643 l 1
 375 635 l 1
 185 635 l 1
 144 342 l 1
 209 473 282 528 367 528 c 0xe8
EndSplineSet
Substitution2: "'smcp' Lowercase to Small Capitals lookup 28 subtable" hbar.sc
Substitution2: "'aalt' Access All Alternates lookup 0 subtable" hbar.sc
EndChar
